<?xml version="1.0" encoding="utf-8"?>
<!-- Generator: Adobe Illustrator 22.1.0, SVG Export Plug-In . SVG Version: 6.00 Build 0)  -->
<svg version="1.1" id="Layer_1" xmlns="http://www.w3.org/2000/svg" xmlns:xlink="http://www.w3.org/1999/xlink" x="0px" y="0px"
	 viewBox="0 0 560 288" style="enable-background:new 0 0 560 288;" xml:space="preserve">
<style type="text/css">
	.st0{display:none;fill:#999999;}
	.st1{fill:url(#SVGID_1_);}
	.st2{fill:url(#SVGID_2_);}
	.st3{fill:#FBB03B;}
	.st4{fill:url(#SVGID_3_);}
	.st5{fill:url(#SVGID_4_);}
	.st6{fill:url(#SVGID_5_);}
	.st7{fill:url(#SVGID_6_);}
	.st8{fill:url(#SVGID_7_);}
	.st9{fill:url(#SVGID_8_);}
	.st10{fill:url(#SVGID_9_);}
	.st11{fill:url(#SVGID_10_);}
	.st12{fill:url(#SVGID_11_);}
	.st13{fill:url(#SVGID_12_);}
</style>
<rect x="195.5" y="55.5" class="st0" width="206.5" height="202"/>
<g>
	<linearGradient id="SVGID_1_" gradientUnits="userSpaceOnUse" x1="292" y1="162.097" x2="326.1217" y2="162.097">
		<stop  offset="0" style="stop-color:#00FF00"/>
		<stop  offset="1" style="stop-color:#006837"/>
	</linearGradient>
	<path class="st1" d="M292,151.3c11.4,4,22.7,8.1,34.1,12.1c0,3.2,0,6.4,0,9.6c-11.4-4-22.7-8.1-34.1-12.1
		C292,157.6,292,154.4,292,151.3z"/>
	<g>
		
			<image style="overflow:visible;opacity:0.4;" width="79" height="67" xlink:href="5C559F02.png"  transform="matrix(1 0 0 1 243.1837 135.7761)">
		</image>
		<g>
			<linearGradient id="SVGID_2_" gradientUnits="userSpaceOnUse" x1="258.0461" y1="162.097" x2="292.1678" y2="162.097">
				<stop  offset="0" style="stop-color:#9E005D"/>
				<stop  offset="1" style="stop-color:#C1272D"/>
			</linearGradient>
			<path class="st2" d="M292.2,151.3c-11.4,4-22.7,8.1-34.1,12.1c0,3.2,0,6.4,0,9.6c11.4-4,22.7-8.1,34.1-12.1
				C292.2,157.6,292.2,154.4,292.2,151.3z"/>
		</g>
	</g>
	<g>
		<g>
			<path class="st3" d="M334.7,132.4c0,0.2,0,0.4,0,0.6"/>
			<path class="st3" d="M334.7,132.2c0,0.1,0,0.2,0,0.3"/>
			<path class="st3" d="M333.9,139.3c0-0.1,0-0.2,0-0.2"/>
			<path class="st3" d="M333.9,139.9c0-0.2,0-0.4,0-0.6"/>
			<path class="st3" d="M334.7,133.1c0.1-0.1,0.2-0.2,0.3-0.3"/>
			<g>
				
					<image style="overflow:visible;opacity:0.4;" width="95" height="96" xlink:href="5C559F06.png"  transform="matrix(1 0 0 1 227.411 128.0518)">
				</image>
				<g>
					<g>
						<linearGradient id="SVGID_3_" gradientUnits="userSpaceOnUse" x1="242.1486" y1="168.4593" x2="292.4345" y2="168.4593">
							<stop  offset="0" style="stop-color:#00A99D"/>
							<stop  offset="1" style="stop-color:#000000"/>
						</linearGradient>
						<path class="st4" d="M267.1,143.4c15.5,1.3,23.8,10.4,25.3,25c0.6,6.5-2.5,11.2-5.8,16.3c-0.4,0.6-0.8,1.1-1.5,1.6
							c-5.7,4.6-10,7.1-18,7.3c-7.3,0.2-17.1-0.1-24.9,0c0,0-0.1,0-0.1-0.1c0-16.7,0-33.5,0-50.3c0,0,0.1-0.1,0.1-0.1
							C249.8,143.6,260.1,142.9,267.1,143.4z M251.1,184.6C251.1,184.7,251.2,184.7,251.1,184.6c4.8-0.2,11.7,0.4,16.1,0
							c9.8-0.9,16.4-7.1,16-16.9c-0.4-9.3-7.2-14.6-16.5-15.4c-4.2-0.3-10.9,0.1-15.5-0.1c0,0-0.1,0-0.1,0.1
							C251.1,163.1,251.1,173.9,251.1,184.6z"/>
					</g>
				</g>
			</g>
			<g>
				
					<image style="overflow:visible;opacity:0.4;" width="95" height="96" xlink:href="5C559F01.png"  transform="matrix(1 0 0 1 277.4109 128.0518)">
				</image>
				<g>
					<g>
						
							<linearGradient id="SVGID_4_" gradientUnits="userSpaceOnUse" x1="279.9546" y1="168.4593" x2="330.2419" y2="168.4593" gradientTransform="matrix(-1 0 0 1 622.8716 0)">
							<stop  offset="0" style="stop-color:#9E005D"/>
							<stop  offset="1" style="stop-color:#000000"/>
						</linearGradient>
						<path class="st5" d="M318,143.4c-15.5,1.3-23.8,10.4-25.3,25c-0.6,6.5,2.5,11.2,5.8,16.3c0.4,0.6,0.8,1.1,1.5,1.6
							c5.7,4.6,10,7.1,18,7.3c7.3,0.2,17.1-0.1,24.9,0c0,0,0.1,0,0.1-0.1c0-16.7,0-33.5,0-50.3c0,0-0.1-0.1-0.1-0.1
							C335.2,143.6,325,142.9,318,143.4z M333.9,184.6C333.9,184.7,333.9,184.7,333.9,184.6c-4.8-0.2-11.7,0.4-16.1,0
							c-9.8-0.9-16.4-7.1-16-16.9c0.4-9.3,7.2-14.6,16.5-15.4c4.2-0.3,10.9,0.1,15.5-0.1c0,0,0.1,0,0.1,0.1
							C333.9,163.1,333.9,173.9,333.9,184.6z"/>
					</g>
				</g>
			</g>
			<g>
				<g>
					
						<image style="overflow:visible;opacity:0.4;" width="97" height="98" xlink:href="5C559F03.png"  transform="matrix(1 0 0 1 231.411 72.0518)">
					</image>
					<g>
						<g>
							<linearGradient id="SVGID_5_" gradientUnits="userSpaceOnUse" x1="292.5912" y1="146.4101" x2="252.9324" y2="106.7514">
								<stop  offset="0" style="stop-color:#FFFFFF"/>
								<stop  offset="1" style="stop-color:#E6E6E6"/>
							</linearGradient>
							<path class="st6" d="M298.6,140.5c-3.6-0.4-6.8-0.2-10.2-0.1c-2.1-4.4-2.3-4.8-4.9-10.2c-2.6-5.4-7.6-16.1-10.7-22.3
								c-3.1,6.2-8.1,16.9-10.7,22.3c-2.6,5.4-2.8,5.8-4.9,10.2c-3.3,0-6.6-0.3-10.2,0.1c3.1-6.4,1-2.3,5.3-11.2
								s14.7-31.3,20.4-42.4c5.7,11,16.1,33.5,20.4,42.4S295.5,134,298.6,140.5z"/>
						</g>
					</g>
				</g>
				
					<linearGradient id="SVGID_6_" gradientUnits="userSpaceOnUse" x1="273.113" y1="113.2024" x2="303.7109" y2="113.2024" gradientTransform="matrix(1 -2.715471e-03 2.715471e-03 1 -0.3575 0.7688)">
					<stop  offset="0" style="stop-color:#D4145A"/>
					<stop  offset="1" style="stop-color:#00A99D"/>
				</linearGradient>
				<path class="st7" d="M303.7,135.6c-1.8,1.6-3.7,3.2-5.5,4.8c-8.4-17.9-16.8-35.8-25.2-53.8c2.4-0.2,4.8-0.5,7.3-0.7
					C288.1,102.5,295.9,119,303.7,135.6z"/>
			</g>
			<linearGradient id="SVGID_7_" gradientUnits="userSpaceOnUse" x1="294.4571" y1="113.9659" x2="335.4388" y2="113.9659">
				<stop  offset="0" style="stop-color:#D4145A"/>
				<stop  offset="0.3029" style="stop-color:#D1135A"/>
				<stop  offset="0.5542" style="stop-color:#C60F5B"/>
				<stop  offset="0.7863" style="stop-color:#B5095C"/>
				<stop  offset="1" style="stop-color:#9E005D"/>
			</linearGradient>
			<path class="st8" d="M335.4,143.3c-13.7-19.6-27.3-39.1-41-58.7c2.9,1.5,5.8,3,8.8,4.4c9.7,14,19.4,27.9,29.1,41.9"/>
			<g>
				
					<image style="overflow:visible;opacity:0.4;" width="87" height="96" xlink:href="5C559F00.png"  transform="matrix(1 0 0 1 276.4109 74.0518)">
				</image>
				<g>
					<linearGradient id="SVGID_8_" gradientUnits="userSpaceOnUse" x1="331.199" y1="141.5399" x2="305.7363" y2="97.4372">
						<stop  offset="0" style="stop-color:#FFFFFF"/>
						<stop  offset="1" style="stop-color:#E6E6E6"/>
					</linearGradient>
					<path class="st9" d="M292,115.8c2.5-2.4,4.4-4.3,7-6.7s3.5-3.4,6.8-6.6c3.3-3.2,9.6-9.2,13.4-12.9c4.5-0.2,8.9-0.2,13.4-0.3
						c-7.2,6.9-14.4,13.9-21.7,20.8c7.5,10,15,20.1,22.4,30.1c-3.7,0.1-7.4,0.1-11.1,0.2c-6-8-11.9-16-17.9-24c-4.2,4-8.3,8-12.5,12
						"/>
				</g>
			</g>
			<linearGradient id="SVGID_9_" gradientUnits="userSpaceOnUse" x1="315.7845" y1="94.1919" x2="343.4789" y2="94.1919">
				<stop  offset="0" style="stop-color:#F15A24"/>
				<stop  offset="1" style="stop-color:#F7931E"/>
			</linearGradient>
			<path class="st10" d="M343.5,88.2c-5.8,5.6-11.6,11.2-17.3,16.9c-3.5,0.1-6.9,0.2-10.4,0.3c7.8-7.4,15.6-14.9,23.4-22.3"/>
			
				<linearGradient id="SVGID_10_" gradientUnits="userSpaceOnUse" x1="224.9755" y1="138.6617" x2="242.9702" y2="138.6617" gradientTransform="matrix(0.3935 0.9193 -0.9193 0.3935 308.8532 -139.0821)">
				<stop  offset="0" style="stop-color:#00FFFF"/>
				<stop  offset="1" style="stop-color:#0071BC"/>
			</linearGradient>
			<path class="st11" d="M278.2,127.1c-2.3-1.8-4.6-3.6-6.9-5.4c-2.2,0.9-4.4,1.9-6.6,2.8c5,4.4,9.9,8.8,14.9,13.2"/>
		</g>
	</g>
	<g>
		
			<image style="overflow:visible;opacity:0.4;" width="79" height="67" xlink:href="5C559F0E.png"  transform="matrix(1 0 0 1 243.1837 148.7761)">
		</image>
		<g>
			<linearGradient id="SVGID_11_" gradientUnits="userSpaceOnUse" x1="258.0461" y1="174.562" x2="292.1678" y2="174.562">
				<stop  offset="0" style="stop-color:#F7931E"/>
				<stop  offset="1" style="stop-color:#FCEE21"/>
			</linearGradient>
			<path class="st12" d="M258,163.7c11.4,4,22.7,8.1,34.1,12.1c0,3.2,0,6.4,0,9.6c-11.4-4-22.7-8.1-34.1-12.1
				C258,170.1,258,166.9,258,163.7z"/>
		</g>
	</g>
	<g>
		
			<image style="overflow:visible;opacity:0.4;" width="79" height="67" xlink:href="5C559F05.png"  transform="matrix(1 0 0 1 277.1837 148.7761)">
		</image>
		<g>
			<linearGradient id="SVGID_12_" gradientUnits="userSpaceOnUse" x1="292" y1="174.562" x2="326.1217" y2="174.562">
				<stop  offset="0" style="stop-color:#00FFFF"/>
				<stop  offset="1" style="stop-color:#0071BC"/>
			</linearGradient>
			<path class="st13" d="M326.1,163.7c-11.4,4-22.7,8.1-34.1,12.1c0,3.2,0,6.4,0,9.6c11.4-4,22.7-8.1,34.1-12.1
				C326.1,170.1,326.1,166.9,326.1,163.7z"/>
		</g>
	</g>
</g>
</svg>
