<svg id="Layer_1" data-name="Layer 1" xmlns="http://www.w3.org/2000/svg" viewBox="0 0 750.35 494.51"><defs><style>.cls-1{fill:#f2f2f2;}</style></defs><title>tech1</title><path class="cls-1" d="M511.79,306l-42.51-24.15a236.7,236.7,0,0,1,80.91-89.61l-28.5-40.09a14.06,14.06,0,0,1,3.14-1.94l28.26,41.31a241.41,241.41,0,0,0-81.88,88.64c13.76,7.73,27.53,15.46,41.06,24.15a200.33,200.33,0,0,1,42.27-53.86l12.31,13.29a10.8,10.8,0,0,1-1.69,1.69c-3.86-4.35-8-8.46-12.07-12.56A196.5,196.5,0,0,0,511.79,306Z" transform="translate(-368.89 -126.42)"/><path class="cls-1" d="M524.34,153.32c-4.58,2.9-8.69,4.84-9.41,3.87s2.41-4.11,7-7.25,9.18-4.59,9.9-3.62S528.93,150.18,524.34,153.32Z" transform="translate(-368.89 -126.42)"/><path class="cls-1" d="M552.6,193.42c-3.86,2.66-7.48,4.11-8.21,3.14s1.93-3.62,6-6.28,7.73-3.87,8.21-2.9S556.47,191,552.6,193.42Z" transform="translate(-368.89 -126.42)"/><path class="cls-1" d="M566.85,264.91c-1.93,1.69-4.1,2.9-4.58,2.18s0-2.66,2.41-4.59,4.35-2.9,5.07-2.18S569,263,566.85,264.91Z" transform="translate(-368.89 -126.42)"/><path class="cls-1" d="M471.69,282.06c-1.93,3.62-4.35,6.28-5.31,5.8s0-3.87,1.93-7.73,4.59-6.52,5.31-5.8S473.62,278.2,471.69,282.06Z" transform="translate(-368.89 -126.42)"/><path class="cls-1" d="M514.93,305.73c-1.45,3.14-3.63,5.32-4.59,4.83s0-3.62,1.2-6.76,3.39-5.07,3.39-4.59Z" transform="translate(-368.89 -126.42)"/><path class="cls-1" d="M554.29,252.59c-1.69,1.45-3.38,2.42-3.86,1.94s0-2.18,2.17-3.87,3.63-2.41,3.87-1.93S556,250.9,554.29,252.59Z" transform="translate(-368.89 -126.42)"/><path class="cls-1" d="M593.66,378l-46.13-14.73a153.85,153.85,0,0,1,35.75-63.77l-36.23-33.57,1.69-1.69L585,298.49a155.76,155.76,0,0,0-36.23,63.28l44.68,14.73a113.2,113.2,0,0,1,15.7-32.61l14.74,10.63h0l-14.25-10.14A118,118,0,0,0,593.66,378Z" transform="translate(-368.89 -126.42)"/><path class="cls-1" d="M549.22,266.36c-2.41,2.66-4.83,4.11-5.79,3.38s0-3.38,2.89-6,5.08-3.87,6-3.14S551.64,264,549.22,266.36Z" transform="translate(-368.89 -126.42)"/><path class="cls-1" d="M585.45,300.18c-1.93,1.93-4.1,3.14-4.83,2.41s0-3.14,1.93-5.07,4.83-2.9,4.83-2.17A6.54,6.54,0,0,1,585.45,300.18Z" transform="translate(-368.89 -126.42)"/><path class="cls-1" d="M624.58,355.73s-1.93,1.45-2.66,0,0-1.69,0-2.9,2.18-1.45,2.9,0A2.66,2.66,0,0,1,624.58,355.73Z" transform="translate(-368.89 -126.42)"/><path class="cls-1" d="M549.71,363c0,2.41-1.94,4.34-3.14,4.1s-1.21-2.66,0-5.31,2.17-4.35,3.14-4.11S550.43,360.56,549.71,363Z" transform="translate(-368.89 -126.42)"/><path class="cls-1" d="M595.6,378c0,1.69-1.69,2.9-2.66,2.66s-1.45-1.93,0-3.87,1.93-2.9,2.9-2.65S596.08,376.26,595.6,378Z" transform="translate(-368.89 -126.42)"/><path class="cls-1" d="M610.09,345.83s-1.93,1.45-2.42,1.2,0-1.44,0-2.65,1.69-1.45,2.42,0S611.54,344.86,610.09,345.83Z" transform="translate(-368.89 -126.42)"/><path class="cls-1" d="M518.55,415.63H470.24a247.22,247.22,0,0,1,18.84-101.69l-44.44-21a9.16,9.16,0,0,0,1.21-2.66l44.92,22.23a244.7,244.7,0,0,0-19.56,101.2h46.61a205,205,0,0,1,7.25-57l17.39,5.55a4.8,4.8,0,0,0,0,1.69l-16.67-5.07A205.25,205.25,0,0,0,518.55,415.63Z" transform="translate(-368.89 -126.42)"/><path class="cls-1" d="M447.05,292.93c-1.69,4.11-3.86,7.25-4.83,6.76s.25-3.62.25-6.76,4.34-7.25,5.31-6.52S448.75,289.31,447.05,292.93Z" transform="translate(-368.89 -126.42)"/><path class="cls-1" d="M490.77,314.19c-1.45,3.38-3.38,5.79-4.35,5.55s0-3.62,0-7.24,3.63-5.8,4.59-5.32S493.19,310.8,490.77,314.19Z" transform="translate(-368.89 -126.42)"/><path class="cls-1" d="M543.43,363.46c0,2.17-1.69,3.62-2.66,3.38s0-2.17,0-4.35,1.93-3.62,2.66-3.38S543.91,361.28,543.43,363.46Z" transform="translate(-368.89 -126.42)"/><path class="cls-1" d="M472.42,413.7c0,3.86,0,7-1.7,6.76s-2.17-2.9-2.17-6.76,0-6.77,1.93-6.77S472.42,411,472.42,413.7Z" transform="translate(-368.89 -126.42)"/><path class="cls-1" d="M520.48,413.7c0,3.14,0,5.55-1.93,5.55s-1.93-2.41-2.18-5.55,0-5.56,2.18-5.56S520.24,411.77,520.48,413.7Z" transform="translate(-368.89 -126.42)"/><path class="cls-1" d="M526.52,358.87c0,1.93-1.45,3.14-2.18,2.9s0-1.69,0-3.63,1.45-3.14,2.18-2.89S527,357.18,526.52,358.87Z" transform="translate(-368.89 -126.42)"/><path class="cls-1" d="M440.77,591.71h0A331.8,331.8,0,0,1,407,519.25l-19.32,6.52a370.49,370.49,0,0,1,2.41-238.15L418.31,298A280.7,280.7,0,0,1,573.86,133.52h0A280.41,280.41,0,0,0,416.38,300.66L388.6,289.79a369.77,369.77,0,0,0-2.41,230.91l19.32-6.53A360.85,360.85,0,0,0,440.77,591.71Z" transform="translate(-368.89 -126.42)"/><path class="cls-1" d="M564.68,138.11a22.75,22.75,0,0,1,8.7-6c5.55-2.17,9.9-3.38,10.38-2.17s-3.62,3.38-8.93,5.55S565.16,139.07,564.68,138.11Z" transform="translate(-368.89 -126.42)"/><path class="cls-1" d="M414.69,307.18c-1.21,0,0-4.59,0-9.18s4.1-8,5.07-7.73,0,4.59-1.45,9.18S415.65,307.42,414.69,307.18Z" transform="translate(-368.89 -126.42)"/><path class="cls-1" d="M443.91,597a15.54,15.54,0,0,1-5.31-5.31c-2.17-3.63-3.14-6.77-2.41-7.49s3.14,2.17,5.07,5.8S444.64,596.54,443.91,597Z" transform="translate(-368.89 -126.42)"/><path class="cls-1" d="M386.67,296.8c-1.21,0,0-4.84,0-9.91S391,278,392,278.44s0,4.83-1.69,9.9S387.64,297.28,386.67,296.8Z" transform="translate(-368.89 -126.42)"/><path class="cls-1" d="M390.54,534.46c-1.21,0-3.39-3.62-5.08-8.69s-2.17-9.66,0-9.9,2.9,3.62,4.59,8.69S391.5,534.46,390.54,534.46Z" transform="translate(-368.89 -126.42)"/><path class="cls-1" d="M408.17,523.35a13.36,13.36,0,0,1-2.9-5.07c-1-3.14-1.21-5.8,0-5.8s1.93,1.94,2.9,5.08S408.89,523.11,408.17,523.35Z" transform="translate(-368.89 -126.42)"/><path class="cls-1" d="M570.72,505.72h0A167,167,0,0,1,553.09,468l-19.33,6.52a200.51,200.51,0,0,1,1.45-129.7l28,11.35a141.05,141.05,0,0,1,78.5-82.36h0a140.36,140.36,0,0,0-78.5,84.29l-27.77-10.86a200.39,200.39,0,0,0-1.21,125.35l19.32-6.28A180.55,180.55,0,0,0,570.72,505.72Z" transform="translate(-368.89 -126.42)"/><path class="cls-1" d="M635.69,276.27a8.62,8.62,0,0,1,3.87-3.87c2.65-1.21,5.31-1.21,5.55,0s-1.45,2.66-3.86,3.62S635.69,277.23,635.69,276.27Z" transform="translate(-368.89 -126.42)"/><path class="cls-1" d="M561.3,360.8c-1.21,0-1.21-2.66,0-4.83s2.41-3.86,3.38-3.62,1.21,2.65,0,5.07S563.23,361.28,561.3,360.8Z" transform="translate(-368.89 -126.42)"/><path class="cls-1" d="M572.17,508.62a4,4,0,0,1-3.38-2.42c-1.21-2.41-1.45-3.62,0-4.1s2.17,0,3.38,2.41S572.89,508.14,572.17,508.62Z" transform="translate(-368.89 -126.42)"/><path class="cls-1" d="M533.28,350.66c-1.21,0-1.21-2.9,0-5.8s2.9-4.59,3.87-4.35,0,3.14,0,5.8S534.25,350.9,533.28,350.66Z" transform="translate(-368.89 -126.42)"/><path class="cls-1" d="M535.21,479.39a7.5,7.5,0,0,1-3.38-4.34,13.9,13.9,0,0,1,0-5.8c0-.24,2.42,1.69,3.38,4.59S536.18,479.15,535.21,479.39Z" transform="translate(-368.89 -126.42)"/><path class="cls-1" d="M553.57,470.7s-1.45,0-1.93-2.42,0-3.14,0-3.14,1.45,0,1.93,2.42S554.29,470.46,553.57,470.7Z" transform="translate(-368.89 -126.42)"/><path class="cls-1" d="M598.25,611.51h0a213.43,213.43,0,0,1-45.65-34.29l-14.25,15a257.68,257.68,0,0,1-71.73-154.34l29.22-2.9a217.43,217.43,0,0,1,35.27-146.13h0a217.43,217.43,0,0,0-34.06,149l-29.22,3.38A257.23,257.23,0,0,0,536.9,590.74L551.4,576A196,196,0,0,0,598.25,611.51Z" transform="translate(-368.89 -126.42)"/><path class="cls-1" d="M528.21,294.62a14,14,0,0,1,1.69-6.28c1.69-2.9,4.35-4.59,5.31-3.86s0,3.38-1.93,6.28S529.18,295.35,528.21,294.62Z" transform="translate(-368.89 -126.42)"/><path class="cls-1" d="M497.78,442a13.76,13.76,0,0,1-2.66-6c-.48-3.38,0-6.28,1.45-6.28s2.17,2.66,2.41,5.8S499,441.72,497.78,442Z" transform="translate(-368.89 -126.42)"/><path class="cls-1" d="M602.12,613.93h-5.56c-2.65,0-4.34-3.38-3.86-4.11s2.9,0,5.55,1.21S602.6,613.2,602.12,613.93Z" transform="translate(-368.89 -126.42)"/><path class="cls-1" d="M468.07,445.82a14.66,14.66,0,0,1-2.9-7c-.48-4.11,0-7,1.45-7s2.17,3.14,2.41,6.77S469,445.58,468.07,445.82Z" transform="translate(-368.89 -126.42)"/><path class="cls-1" d="M543.18,597.26a8.42,8.42,0,0,1-6.28-3.62c-2.65-3.62-4.34-5.56-3.62-6.28s3.62,0,6.28,3.38S543.91,596.3,543.18,597.26Z" transform="translate(-368.89 -126.42)"/><path class="cls-1" d="M555,580.35a5.24,5.24,0,0,1-3.62-1.93c-1.69-1.93-2.42-3.38-1.94-3.86s2.18,0,3.63,1.93S555.5,579.87,555,580.35Z" transform="translate(-368.89 -126.42)"/><path class="cls-1" d="M628.69,502.34h0a122.05,122.05,0,0,1-18.84-24.15L592.94,489.3a150.44,150.44,0,0,1-21.25-94.44l29.22,3.86a101.2,101.2,0,0,1,34.78-66.42h0a101.93,101.93,0,0,0-34.78,69.08l-29.47-3.62A152.21,152.21,0,0,0,592,488.81L609.12,478A114.77,114.77,0,0,0,628.69,502.34Z" transform="translate(-368.89 -126.42)"/><path class="cls-1" d="M633.28,334.72v-3.63c0-1.2,3.14-1.45,3.86,0s0,2.42,0,3.63S634,335.44,633.28,334.72Z" transform="translate(-368.89 -126.42)"/><path class="cls-1" d="M600.67,403.79c-1.21,0-1.93-1.69-1.69-3.38s0-2.9,2.17-2.9,1.69,1.7,1.69,3.39S601.64,403.79,600.67,403.79Z" transform="translate(-368.89 -126.42)"/><path class="cls-1" d="M630.14,504.27a2.4,2.4,0,0,1-3.14,0c-1.21,0-1.45-2.41,0-3.14s1.93,0,3.14,0S630.62,503.55,630.14,504.27Z" transform="translate(-368.89 -126.42)"/><path class="cls-1" d="M571.2,400.65c-1.21,0-1.93-1.93-1.69-4.1s1.21-3.87,2.42-3.62,1.69,1.93,1.45,4.1S572.17,400.9,571.2,400.65Z" transform="translate(-368.89 -126.42)"/><path class="cls-1" d="M594.63,493.89a4.68,4.68,0,0,1-3.86-2.18c-1.21-2.17-1.21-3.86,0-4.59s2.41,0,3.62,2.42S595.6,493.4,594.63,493.89Z" transform="translate(-368.89 -126.42)"/><path class="cls-1" d="M611.54,481.33a2.72,2.72,0,0,1-2.18-1.21,2.63,2.63,0,0,1,0-2.42c0-.24,1.45,0,2.18,1.21A2.18,2.18,0,0,1,611.54,481.33Z" transform="translate(-368.89 -126.42)"/><path class="cls-1" d="M729.89,571.18h0a178.44,178.44,0,0,1-48.31,0L678,591.47a162.38,162.38,0,0,1-111.11-65.94L591,506.93a164,164,0,0,1-30.92-101.2h0A164.72,164.72,0,0,0,591,510.31l-24.16,18.6a161.83,161.83,0,0,0,107.25,64c1.44-6.76,2.65-13.52,3.86-20.28A180.79,180.79,0,0,0,729.89,571.18Z" transform="translate(-368.89 -126.42)"/><path class="cls-1" d="M558.64,411.52s-1.93-2.17-1.93-4.34,0-4.35,2.17-4.35,1.94,1.93,1.94,4.35S559.85,411.52,558.64,411.52Z" transform="translate(-368.89 -126.42)"/><path class="cls-1" d="M592.46,512a5.11,5.11,0,0,1-4.11-2.41c-1.45-2.42-1.93-3.87,0-4.59s2.66,0,4.11,2.41S593.42,510.31,592.46,512Z" transform="translate(-368.89 -126.42)"/><path class="cls-1" d="M734.24,570.94a9.79,9.79,0,0,1-4.83,2.41,13.05,13.05,0,0,1-4.83,0,8.28,8.28,0,0,1,4.58-2.17C731.82,570.94,734,570.21,734.24,570.94Z" transform="translate(-368.89 -126.42)"/><path class="cls-1" d="M569.75,531.08a6,6,0,0,1-4.83-2.9c-1.69-2.89-2.41-4.83-1.45-5.31s2.9,0,4.59,2.9S570.48,530.36,569.75,531.08Z" transform="translate(-368.89 -126.42)"/><path class="cls-1" d="M682.79,593.16a10.74,10.74,0,0,1-6.28,1.2c-3.38-.48-5.55-1.69-5.31-2.89s2.9-1.45,6,0S684,592,682.79,593.16Z" transform="translate(-368.89 -126.42)"/><path class="cls-1" d="M684,572.87h-3.62c-1.94,0-2.9,0-2.9-1.69s1.69,0,3.38,0S684,572.14,684,572.87Z" transform="translate(-368.89 -126.42)"/><path class="cls-1" d="M560.82,568h0a164.27,164.27,0,0,1-15.94-18.12l-7.25,6a239.3,239.3,0,0,1-33.82-61.59l11.12-4.83a231.84,231.84,0,0,1-13.29-65.46h0a230.52,230.52,0,0,0,13.77,66.42l-12.32,4.84a226.16,226.16,0,0,0,32.85,59.9l7.24-6A176.55,176.55,0,0,0,560.82,568Z" transform="translate(-368.89 -126.42)"/><path class="cls-1" d="M502.85,426.74v-2.66C502.85,426.74,503.33,426.74,502.85,426.74Z" transform="translate(-368.89 -126.42)"/><path class="cls-1" d="M517.1,492.2s-1.21,0-1.69-2.18a4.53,4.53,0,0,1,0-2.9c0-.24,1.21,0,1.69,2.42S517.58,492,517.1,492.2Z" transform="translate(-368.89 -126.42)"/><path class="cls-1" d="M562,569.73l-2.17-1.21c-2.17-1.21,0-1.69,0-2.17s0,0,1.93,1.2S563.23,569.24,562,569.73Z" transform="translate(-368.89 -126.42)"/><path class="cls-1" d="M504.78,497.27l-1.69-2.42c-1.69-2.41,0-2.65,0-2.9s1.21,0,1.69,2.42S505.26,497,504.78,497.27Z" transform="translate(-368.89 -126.42)"/><path class="cls-1" d="M539.08,558.62a3,3,0,0,1-2.42-1.69c-1-1.69-1.45-2.42-1.2-2.9s1.69,0,2.65,1.93A7.32,7.32,0,0,1,539.08,558.62Z" transform="translate(-368.89 -126.42)"/><path class="cls-1" d="M545.6,551.37h-1.45c-1.45,0,0-1.45,0-1.69s0,0,1.45,0S545.84,551.13,545.6,551.37Z" transform="translate(-368.89 -126.42)"/><path class="cls-1" d="M585,489.78h0a135.08,135.08,0,0,0,8.94,13.77l7.24-5.56a125.7,125.7,0,0,0,30.92,30l-7.73,11.35a139,139,0,0,0,46.13,19.81h0a130.77,130.77,0,0,1-46.61-20.29l7.73-11.11a128.12,128.12,0,0,1-30-29.47l-7.49,5.8A101.46,101.46,0,0,1,585,489.78Z" transform="translate(-368.89 -126.42)"/><path class="cls-1" d="M668.54,558.62h2.17c1,0,2.18,0,1.94,1.2s0,0-2.18,0S668.54,558.62,668.54,558.62Z" transform="translate(-368.89 -126.42)"/><path class="cls-1" d="M622.89,537.85h2.17c2.18,0,1.45,1.44,0,1.69s0,0-1.93,0S622.65,538.33,622.89,537.85Z" transform="translate(-368.89 -126.42)"/><path class="cls-1" d="M584.49,488.57h0v1.69h0S584.24,488.81,584.49,488.57Z" transform="translate(-368.89 -126.42)"/><path class="cls-1" d="M630.62,526.73a2,2,0,0,1,1.93,0s1.21,1.45,0,1.94a1.7,1.7,0,0,1-1.93,0A5.09,5.09,0,0,1,630.62,526.73Z" transform="translate(-368.89 -126.42)"/><path class="cls-1" d="M600.43,496.3h1.69c.48,0,0,1.69,0,1.93s0,0-1.69,0S599.94,496.78,600.43,496.3Z" transform="translate(-368.89 -126.42)"/><path class="cls-1" d="M593.42,502.58h0v1.21h-1.2C591,503.79,593.18,502.82,593.42,502.58Z" transform="translate(-368.89 -126.42)"/><path class="cls-1" d="M483,201.39h0a274.51,274.51,0,0,0-34.78,44.2l12.56,8.21a283.38,283.38,0,0,0-42.51,139.85L397.06,392A345.88,345.88,0,0,0,425.8,548h0a347.26,347.26,0,0,1-28.74-158.45l21,1.69a287.91,287.91,0,0,1,41.54-135.74l-12.56-8A273.2,273.2,0,0,1,483,201.39Z" transform="translate(-368.89 -126.42)"/><path class="cls-1" d="M423.38,542.19a18.36,18.36,0,0,1,3.87,5.32c1.45,3.14,1.93,6.28,1.45,6.52s-2.66-1.93-4.11-5.32S422.66,542.68,423.38,542.19Z" transform="translate(-368.89 -126.42)"/><path class="cls-1" d="M397.54,385.2a10.25,10.25,0,0,1,0,6.52c-1.21,3.38,0,6.28-1.69,6.28s-1.21-2.9-1.21-6.52S396.82,385.2,397.54,385.2Z" transform="translate(-368.89 -126.42)"/><path class="cls-1" d="M486.42,198.25s0,2.42-2.89,4.59-4.11,3.38-4.59,3.14,0-2.66,2.89-4.83S485.94,197.77,486.42,198.25Z" transform="translate(-368.89 -126.42)"/><path class="cls-1" d="M418.31,387.13v6.28c0,3.38,0,5.8-1.69,5.8s-1.21-2.9-1.21-6S418.31,387.13,418.31,387.13Z" transform="translate(-368.89 -126.42)"/><path class="cls-1" d="M464,249a11,11,0,0,1-1.93,5.8c-1.93,2.66-3.62,4.83-4.35,4.35s0-2.9,1.93-5.8S463.48,248.49,464,249Z" transform="translate(-368.89 -126.42)"/><path class="cls-1" d="M450.68,242.69a5.86,5.86,0,0,1-1.45,3.87c-1.21,1.93-2.42,3.14-2.9,2.89s0-1.93,1.45-3.86S450.19,242.45,450.68,242.69Z" transform="translate(-368.89 -126.42)"/><path class="cls-1" d="M510.34,516.11v1.45l-10.87,5.79A242.37,242.37,0,0,0,526,566.1l-26.57,22.23a270.64,270.64,0,0,1-40.82-72.46l-32.13,13.28v-2.42l32.61-12.8a277.33,277.33,0,0,0,40.1,72.46l26.08-21.25a230.86,230.86,0,0,1-26.33-43Z" transform="translate(-368.89 -126.42)"/><path class="cls-1" d="M427.49,526.25c1.21,3.14,1.69,6,0,6.28s-2.17-1.93-3.38-5.31-1.69-6,0-6.28S426.28,523.11,427.49,526.25Z" transform="translate(-368.89 -126.42)"/><path class="cls-1" d="M460.34,513.93c1.21,2.9,1.45,5.32,0,5.56s-2.18-1.69-3.38-4.59-1.21-5.31,0-5.56S459.37,510.31,460.34,513.93Z" transform="translate(-368.89 -126.42)"/><path class="cls-1" d="M511.54,516.35c0,1.93,1.21,3.62,0,3.86s-1.69,0-2.41-2.9-1.21-3.38,0-3.62S510.58,514.66,511.54,516.35Z" transform="translate(-368.89 -126.42)"/><path class="cls-1" d="M500.67,586.39c1.7,2.42,2.9,4.83,2.18,5.32s-2.66,0-4.35-3.38-2.9-4.84-2.17-5.32S498.74,584.22,500.67,586.39Z" transform="translate(-368.89 -126.42)"/><path class="cls-1" d="M527.24,564.41c1.45,2.18,2.42,4.11,1.94,4.83s-2.42,0-4.11-2.89-2.42-4.35-1.93-4.83S525.55,562.48,527.24,564.41Z" transform="translate(-368.89 -126.42)"/><path class="cls-1" d="M500.67,522.63v3.14c0,.24-1.2,0-1.93-2.42s0-2.9,0-2.9A5.72,5.72,0,0,1,500.67,522.63Z" transform="translate(-368.89 -126.42)"/><path class="cls-1" d="M622.17,542.19h0l-6.77,10.39A131.55,131.55,0,0,0,647.77,569l-12.08,33.09a177.42,177.42,0,0,1-54.83-31.4c-7.48,8.94-14.73,18.12-22.22,27.3l-1.45-1.21,22.71-27.54a173.82,173.82,0,0,0,55.79,31.65c4.11-10.39,8.46-20.78,12.32-31.4a141.54,141.54,0,0,1-32.37-16.67Z" transform="translate(-368.89 -126.42)"/><path class="cls-1" d="M559.61,596.3c1.93,1.69,3.14,3.38,2.66,4.1s-2.42,0-4.59-1.93-3.14-3.86-2.66-4.35S557.43,594.36,559.61,596.3Z" transform="translate(-368.89 -126.42)"/><path class="cls-1" d="M581.83,569c1.69,1.45,2.66,2.9,2.17,3.63s-2.17,0-3.86-1.45-2.66-3.14-2.42-3.87S580.14,567.55,581.83,569Z" transform="translate(-368.89 -126.42)"/><path class="cls-1" d="M623.13,541.47s1.93,1.93,1.45,2.41-1.45,0-2.66,0-1.93-1.93-1.69-2.65S621.92,540.74,623.13,541.47Z" transform="translate(-368.89 -126.42)"/><path class="cls-1" d="M635.69,600.4c2.18,0,3.87,1.93,3.62,2.66s-2.41,0-4.58,0-3.87-2.17-3.63-2.9S633.76,599.68,635.69,600.4Z" transform="translate(-368.89 -126.42)"/><path class="cls-1" d="M648.73,568c1.94,0,3.14,1.69,2.9,2.41s-2.17,0-3.86,0-3.38-1.93-2.9-2.65S646.8,567.55,648.73,568Z" transform="translate(-368.89 -126.42)"/><path class="cls-1" d="M616.37,552.34s1.69,1.45,1.45,1.93,0,0-2.42,0-1.45-1.45-1.21-1.93A1.93,1.93,0,0,1,616.37,552.34Z" transform="translate(-368.89 -126.42)"/><path class="cls-1" d="M647.77,300.18h0L642,289.31a143.23,143.23,0,0,0-28,18.11c-7.48-8.69-15.45-17.39-24.15-25.84a168.8,168.8,0,0,1,53.14-30.43l-13.05-30.68h1.94c4.34,10.87,8.45,21.74,12.8,32.85A169.1,169.1,0,0,0,591.25,283l22.46,25.6a132.7,132.7,0,0,1,28-18.11A44.21,44.21,0,0,1,647.77,300.18Z" transform="translate(-368.89 -126.42)"/><path class="cls-1" d="M631.34,220.47H626c-.24,0,1.69-2.17,4.35-3.14a8.8,8.8,0,0,1,5.31,0C635.93,217.33,634,220.47,631.34,220.47Z" transform="translate(-368.89 -126.42)"/><path class="cls-1" d="M644.15,252.84h-4.59c-.25,0,1.2-1.94,3.62-2.66a8.59,8.59,0,0,1,4.59,0C648,250.18,646.32,251.87,644.15,252.84Z" transform="translate(-368.89 -126.42)"/><path class="cls-1" d="M647.77,301.14h-2.66c-.24,0,0-1.45,1.69-2.17a2.88,2.88,0,0,1,2.66,0C649.7,299,649,300.66,647.77,301.14Z" transform="translate(-368.89 -126.42)"/><path class="cls-1" d="M590.52,283.27c-1.69,1.45-3.14,1.93-3.86,1.45s0-2.17,1.93-3.62,3.38-1.94,3.87-1.45S592.22,282.06,590.52,283.27Z" transform="translate(-368.89 -126.42)"/><path class="cls-1" d="M614.44,308.63s-2.66,1.45-3.14,0,0-1.93,0-3.14,2.89-1.45,3.38,0S615.64,307.42,614.44,308.63Z" transform="translate(-368.89 -126.42)"/><path class="cls-1" d="M641.49,290.27h-2.18c-.24,0,0-1.2,1.45-1.69a2.85,2.85,0,0,1,2.18,0C643.18,288.58,642.45,289.79,641.49,290.27Z" transform="translate(-368.89 -126.42)"/><path class="cls-1" d="M418.31,328.19h0l-5.07-1.44a261.07,261.07,0,0,0-5.8,27.29L393,351.38a345.57,345.57,0,0,1,9.66-41.54l-14-4.83h0l14.25,5.07a339.92,339.92,0,0,0-9.66,41.06L407,354c1.69-9.18,3.62-18.36,6-27.29Z" transform="translate(-368.89 -126.42)"/><path class="cls-1" d="M389.57,305.73a5.8,5.8,0,0,1-1.45,2.66v-3.14c0-1.69,0-2.66,1.45-2.42S390.05,304.28,389.57,305.73Z" transform="translate(-368.89 -126.42)"/><path class="cls-1" d="M403.58,310.56c0,1.45,0,2.66-1.45,2.66a7.55,7.55,0,0,1,0-3.14,2.75,2.75,0,0,1,1.45-2.42C403.82,307.66,404.06,309.11,403.58,310.56Z" transform="translate(-368.89 -126.42)"/><path class="cls-1" d="M418.31,328.92v1.93a3.82,3.82,0,0,1,0-2.41V326.5A3.85,3.85,0,0,1,418.31,328.92Z" transform="translate(-368.89 -126.42)"/><path class="cls-1" d="M394.16,351.86v0Z" transform="translate(-368.89 -126.42)"/><path class="cls-1" d="M408.17,354.76v-2.9A10.1,10.1,0,0,1,408.17,354.76Z" transform="translate(-368.89 -126.42)"/><path class="cls-1" d="M413.72,327.71V326A3.62,3.62,0,0,1,413.72,327.71Z" transform="translate(-368.89 -126.42)"/><path class="cls-1" d="M470.24,385.44h-5.07c0,7.24,0,15-1.21,22.46H449.47a269.44,269.44,0,0,1,2.17-34.3l-14.49-2.41h0l14.73,2.41a273.29,273.29,0,0,0-2.41,34.3h14c0-7.49,0-15,1.21-22.46Z" transform="translate(-368.89 -126.42)"/><path class="cls-1" d="M437.63,370.46v2.42a3.17,3.17,0,0,1,0-2.42v0Z" transform="translate(-368.89 -126.42)"/><path class="cls-1" d="M452.37,372.88v0Z" transform="translate(-368.89 -126.42)"/><path class="cls-1" d="M470.48,385.92v-1.69A3.61,3.61,0,0,1,470.48,385.92Z" transform="translate(-368.89 -126.42)"/><path class="cls-1" d="M449.71,407.18V405A5.52,5.52,0,0,1,449.71,407.18Z" transform="translate(-368.89 -126.42)"/><path class="cls-1" d="M464.44,407.66v0Z" transform="translate(-368.89 -126.42)"/><path class="cls-1" d="M465.41,385.44V384A5,5,0,0,1,465.41,385.44Z" transform="translate(-368.89 -126.42)"/><path class="cls-1" d="M563.23,321.19h0l-5.07-3.14a172.42,172.42,0,0,0-8.7,16.18l-15.21-7.73A168.31,168.31,0,0,1,549,301.14l-13.28-8.21h0l14,10.15A221.72,221.72,0,0,0,535,328.44l14.74,7.48a151.57,151.57,0,0,1,8.93-16.18Z" transform="translate(-368.89 -126.42)"/><path class="cls-1" d="M536.42,292.93s-1.21,1.45-1.69,0,0,0,0-2.17,1.45-1.45,1.69-1.21S537.15,291,536.42,292.93Z" transform="translate(-368.89 -126.42)"/><path class="cls-1" d="M550.43,301.87s-1.21,1.45-1.69,1.21,0-1.21,0-1.94a2.4,2.4,0,0,1,1.69-1.45A2.12,2.12,0,0,1,550.43,301.87Z" transform="translate(-368.89 -126.42)"/><path class="cls-1" d="M564.68,321.67h-1.21c-1.2,0,0,0,0-1.45a1.5,1.5,0,0,1,1.21,0A2.79,2.79,0,0,1,564.68,321.67Z" transform="translate(-368.89 -126.42)"/><path class="cls-1" d="M535.7,327s0,1.69-1.21,1.45,0,0,0-1.94,1.21-1.69,1.45-1.45S536.18,326,535.7,327Z" transform="translate(-368.89 -126.42)"/><path class="cls-1" d="M550.91,334.72s-1.2,1.45-1.45,0,0,0,0-1.94,0-1.45,1.45,0S551.4,333.75,550.91,334.72Z" transform="translate(-368.89 -126.42)"/><path class="cls-1" d="M559.37,318.53h0v-1.2h0S559.61,317.08,559.37,318.53Z" transform="translate(-368.89 -126.42)"/><path class="cls-1" d="M439.08,507.41h0c-2.41-7.73-4.83-15.7-6.76-24.15L425.56,485a334.2,334.2,0,0,1-9.18-71.25h10.14a299.84,299.84,0,0,1,6.53-68.84h0a304.37,304.37,0,0,0-6.53,69.56H416.38a327.63,327.63,0,0,0,8.69,68.6l6.77-1.69C434,491,436.43,499.2,439.08,507.41Z" transform="translate(-368.89 -126.42)"/><path class="cls-1" d="M432.56,348.72a5.26,5.26,0,0,1,0-2.89c0-1.45,0-2.66,1.21-2.42s0,1.21,0,2.66S433.05,348.72,432.56,348.72Z" transform="translate(-368.89 -126.42)"/><path class="cls-1" d="M426.77,417.56V414.9C426.77,416.6,427,417.56,426.77,417.56Z" transform="translate(-368.89 -126.42)"/><path class="cls-1" d="M439.57,510.31l-1.21-2.17c-1.21-2.18,0-2.18,0-2.18l1.21,1.94C440.77,509.83,439.81,510.31,439.57,510.31Z" transform="translate(-368.89 -126.42)"/><path class="cls-1" d="M416.62,417.8v-2.9C416.62,416.6,416.86,417.8,416.62,417.8Z" transform="translate(-368.89 -126.42)"/><path class="cls-1" d="M426,488.09a4.59,4.59,0,0,1-1.21-2.9v-2.9A4.31,4.31,0,0,1,426,485C426.52,486.16,426.52,487.85,426,488.09Z" transform="translate(-368.89 -126.42)"/><path class="cls-1" d="M432.56,486.16v-1.94C432.56,485.67,432.8,486.16,432.56,486.16Z" transform="translate(-368.89 -126.42)"/><path class="cls-1" d="M514.93,467.56h0c1.69,5.55,3.38,11.11,5.31,16.66l6.28-2.41a207.68,207.68,0,0,0,20.53,42.27l-8.45,5.79A191.15,191.15,0,0,0,570.24,568h0a196.57,196.57,0,0,1-31.16-38.65l8.21-5.8a206.45,206.45,0,0,1-19.56-41.06l-6.53,2.66A147.18,147.18,0,0,1,514.93,467.56Z" transform="translate(-368.89 -126.42)"/><path class="cls-1" d="M569,566.83H571c1.93,0,0,1.45,0,1.69s0,0-1.69,0S568.79,567.07,569,566.83Z" transform="translate(-368.89 -126.42)"/><path class="cls-1" d="M537.87,528.18l1.69,1.21c1.69,1.21,0,1.93,0,2.18s0,0-1.69-1.45S537.63,528.18,537.87,528.18Z" transform="translate(-368.89 -126.42)"/><path class="cls-1" d="M514.93,466.35v1.45a2,2,0,0,1,0,1.69v-3.14Z" transform="translate(-368.89 -126.42)"/><path class="cls-1" d="M546.32,522.39l1.7,1.2c1.69,1.21,0,1.94,0,1.94h-1.45C545.12,525.53,546.08,522.63,546.32,522.39Z" transform="translate(-368.89 -126.42)"/><path class="cls-1" d="M526.52,480.12a2.4,2.4,0,0,1,1.21,1.69v1.93c0,.24,0,0-1.21-1.45S526,480.36,526.52,480.12Z" transform="translate(-368.89 -126.42)"/><path class="cls-1" d="M520.24,483.26h0v.24C520.24,482.29,520,483.26,520.24,483.26Z" transform="translate(-368.89 -126.42)"/><path class="cls-1" d="M611.54,312.25h0a93.28,93.28,0,0,0-7,6.77l4.11,3.62a124.16,124.16,0,0,0-15.46,20.53l-6.76-4.35A117.73,117.73,0,0,0,574.83,363h0a114,114,0,0,1,11.59-24.16l6.76,4.11a107,107,0,0,1,15-19.81l-4.11-3.86Z" transform="translate(-368.89 -126.42)"/><path class="cls-1" d="M576.27,362.49h0v-1.21C576.27,360.08,575.79,362.49,576.27,362.49Z" transform="translate(-368.89 -126.42)"/><path class="cls-1" d="M587.38,338.1v1.21h0Z" transform="translate(-368.89 -126.42)"/><path class="cls-1" d="M613,311.77Z" transform="translate(-368.89 -126.42)"/><path class="cls-1" d="M594.63,342.45Z" transform="translate(-368.89 -126.42)"/><path class="cls-1" d="M610.09,322.16Z" transform="translate(-368.89 -126.42)"/><path class="cls-1" d="M606,318.77Z" transform="translate(-368.89 -126.42)"/><path class="cls-1" d="M565.65,220.47h0c-4.83,3.14-9.42,6.76-14,10.15l3.62,4.34a206.21,206.21,0,0,0-32.36,32.61l-6.28-5.07a211,211,0,0,0-24.16,39.37h0A222.62,222.62,0,0,1,516.62,262l6.28,4.84a215.42,215.42,0,0,1,31.39-31.65l-3.62-4.1C555.74,226.51,560.57,222.89,565.65,220.47Z" transform="translate(-368.89 -126.42)"/><path class="cls-1" d="M492.46,299.45v1.93a1.92,1.92,0,0,1-1.21,1.45V300.9C491.25,299,492.22,299.45,492.46,299.45Z" transform="translate(-368.89 -126.42)"/><path class="cls-1" d="M517.82,260.32V262c0,1.7-1.45,1.45-1.69,0s0,0,0-1.93S517.58,260.08,517.82,260.32Z" transform="translate(-368.89 -126.42)"/><path class="cls-1" d="M566.61,218.78V220l-3.38.48h1.93S566.61,218.54,566.61,218.78Z" transform="translate(-368.89 -126.42)"/><path class="cls-1" d="M524.1,265.4a6,6,0,0,1,0,1.69l-1.69,1.2v-1.93C522.41,265.64,523.86,265.15,524.1,265.4Z" transform="translate(-368.89 -126.42)"/><path class="cls-1" d="M556.71,233a4.32,4.32,0,0,1-1.21,1.69h-1.93c-.24,0,0,0,1.21-1.69S556.47,232.79,556.71,233Z" transform="translate(-368.89 -126.42)"/><path class="cls-1" d="M552.6,229.41Z" transform="translate(-368.89 -126.42)"/><path class="cls-1" d="M543.43,367.32h0q-1.7,7.24-2.9,14.49l6.76,1.21a199.83,199.83,0,0,0-1.93,39.86h-9.9a191.4,191.4,0,0,0,7.24,42h0a196.63,196.63,0,0,1-7.49-42.51h10.15a169.08,169.08,0,0,1,1.93-38.4l-6.76-1.45Q541.61,374.94,543.43,367.32Z" transform="translate(-368.89 -126.42)"/><path class="cls-1" d="M542.22,463.45v3.38L541,465.39A2.18,2.18,0,0,1,542.22,463.45Z" transform="translate(-368.89 -126.42)"/><path class="cls-1" d="M535.46,421.43v1.69C535.46,421.43,535,421.43,535.46,421.43Z" transform="translate(-368.89 -126.42)"/><path class="cls-1" d="M543.91,365.39v1.45h0v-1.45C543.91,363.94,543.67,365.39,543.91,365.39Z" transform="translate(-368.89 -126.42)"/><path class="cls-1" d="M545.36,420.94v1.69C545.36,420.94,545.12,420.94,545.36,420.94Z" transform="translate(-368.89 -126.42)"/><path class="cls-1" d="M547.77,381.57a2.86,2.86,0,0,1,0,1.69V383C547.77,381.33,547.29,381.57,547.77,381.57Z" transform="translate(-368.89 -126.42)"/><path class="cls-1" d="M540.77,380.85h0v-1.21A1.68,1.68,0,0,1,540.77,380.85Z" transform="translate(-368.89 -126.42)"/><path class="cls-1" d="M638.59,327.23h0L635,322.64a78,78,0,0,0-9.66,8.21L613.47,319a127.72,127.72,0,0,1,16.42-13.29c-3.38-4.59-6.52-9.18-9.9-13.52h0l9.9,13.76a124.82,124.82,0,0,0-16.18,13.29l11.35,11.59a82.66,82.66,0,0,1,9.67-8.45Z" transform="translate(-368.89 -126.42)"/><path class="cls-1" d="M620.23,292.93h-1.69c-.24,0,0,0,0-1.45s1.45,0,1.69,0S621,292.93,620.23,292.93Z" transform="translate(-368.89 -126.42)"/><path class="cls-1" d="M630.14,306.46h-1.69c-.25,0,0,0,0-1.45s1.44,0,1.69,0S630.62,306,630.14,306.46Z" transform="translate(-368.89 -126.42)"/><path class="cls-1" d="M638.59,327.71h1.21A1.42,1.42,0,0,1,638.59,327.71Z" transform="translate(-368.89 -126.42)"/><path class="cls-1" d="M613.71,319.5h-1.45c-.24,0,0,0,0-1.45s0,0,1.45,0S614.19,319,613.71,319.5Z" transform="translate(-368.89 -126.42)"/><path class="cls-1" d="M624.1,331.33h1.45c.24,0,.48-.48,0,0Z" transform="translate(-368.89 -126.42)"/><path class="cls-1" d="M635.69,322.88Z" transform="translate(-368.89 -126.42)"/><path class="cls-1" d="M452.37,516.83h0A303.55,303.55,0,0,1,447.05,319l28,10.14A223.66,223.66,0,0,1,586.9,198l-10.14-17.87a306.05,306.05,0,0,1,81.64-27.3h0a294,294,0,0,0-78.5,25.85c3.38,5.79,6.52,12.07,9.9,17.87a222.69,222.69,0,0,0-115,134.77l-28.26-9.9A301.39,301.39,0,0,0,452.37,516.83Z" transform="translate(-368.89 -126.42)"/><path class="cls-1" d="M449.23,510.31a17.44,17.44,0,0,1,4.59,6.76c1.45,4.11,2.17,7.49,0,8.22s-3.14-2.66-4.59-7S448.26,510.31,449.23,510.31Z" transform="translate(-368.89 -126.42)"/><path class="cls-1" d="M448.5,314.19v8.21c0,4.1-3.14,7.24-4.1,7s0-4.1,0-8.45S447.54,313.7,448.5,314.19Z" transform="translate(-368.89 -126.42)"/><path class="cls-1" d="M664.68,152.36a23.06,23.06,0,0,1-8,2.9,26.49,26.49,0,0,1-8.21,0,20.53,20.53,0,0,1,7.73-3.14C660.81,151.15,664.43,151.39,664.68,152.36Z" transform="translate(-368.89 -126.42)"/><path class="cls-1" d="M476.28,325.05v7.25c0,3.62-2.66,6.52-3.86,6.28s0-3.86,0-7.49S475.31,324.57,476.28,325.05Z" transform="translate(-368.89 -126.42)"/><path class="cls-1" d="M595.84,193.9a19.25,19.25,0,0,1-6.28,5.32c-3.87,1.93-7.49,2.89-8,1.93s1.93-3.38,5.79-4.83S595.36,192.94,595.84,193.9Z" transform="translate(-368.89 -126.42)"/><path class="cls-1" d="M583.76,177.24a15.52,15.52,0,0,1-4.35,3.62c-2.65,1.45-5.07,1.93-5.55,1.45s1.69-2.42,4.35-3.62S583.52,176.75,583.76,177.24Z" transform="translate(-368.89 -126.42)"/><path class="cls-1" d="M611.54,242.21l-24.16-43.72h0l24.16,44Z" transform="translate(-368.89 -126.42)"/><path class="cls-1" d="M614.44,244.62c-3.38,1.7-6.52,2.42-7.25,0s1.69-3.14,5.07-4.83,6.77-2.41,7.49-1.2S617.82,242.21,614.44,244.62Z" transform="translate(-368.89 -126.42)"/><path class="cls-1" d="M426.28,527.7h0a338.23,338.23,0,0,1-21-101.2,261.65,261.65,0,0,1-8-34.3h0a281.63,281.63,0,0,0,8,35A342.3,342.3,0,0,0,426.28,527.7Z" transform="translate(-368.89 -126.42)"/><path class="cls-1" d="M567.34,528.18l-4.83,3.87a204.28,204.28,0,0,1-28.75-55.31h0a195.39,195.39,0,0,0,29.47,54.1,32.3,32.3,0,0,1,4.59-3.38Z" transform="translate(-368.89 -126.42)"/><path class="cls-1" d="M459.37,514.42h0a303.49,303.49,0,0,1-16.9-74.15l24.15-2.42a5.69,5.69,0,0,0,0,1.93l-24.15,2.66A297.85,297.85,0,0,0,459.37,514.42Z" transform="translate(-368.89 -126.42)"/><path class="cls-1" d="M571.69,396.79h0c0-5.07,1.44-10.39,2.41-15.46l18.84,4.59c0-2.66,0-5.55,1.93-8.21h0l-2.17,9.18-18.84-4.59C572.89,387.37,572.17,392,571.69,396.79Z" transform="translate(-368.89 -126.42)"/><path class="cls-1" d="M557.43,467.08l-4.34,1.69v-1.21l4.1-1.45A175,175,0,0,1,548.74,406h10.39v1.21h-9.91A173.54,173.54,0,0,0,557.43,467.08Z" transform="translate(-368.89 -126.42)"/><path class="cls-1" d="M500.19,522.87h0a263.24,263.24,0,0,1-19.56-56.28l21.25-4.83a253.59,253.59,0,0,1-4.35-26.57h0a219.35,219.35,0,0,0,4.59,28l-21.25,5.07A248.16,248.16,0,0,0,500.19,522.87Z" transform="translate(-368.89 -126.42)"/><path class="cls-1" d="M520,467.8,515.65,469h0l3.86-1.21a215,215,0,0,1-6.76-43.23H513A220.5,220.5,0,0,0,520,467.8Z" transform="translate(-368.89 -126.42)"/><path class="cls-1" d="M389.81,287.62h0a273.85,273.85,0,0,1,11.35-27.54c6.28,3.38,12.8,6.52,19.33,9.66A285.18,285.18,0,0,1,523.38,151.39h0A284,284,0,0,0,420,272.16l-19.32-9.66A196,196,0,0,0,389.81,287.62Z" transform="translate(-368.89 -126.42)"/><path class="cls-1" d="M583.76,165.64c-4.83-9.9-9.9-19.8-15-29.95h1.93l14.49,29.71a325.31,325.31,0,0,1,69.56-21.25c0,3.38,1.21,6.76,1.93,10.14h-1.93c0-3.38,0-6.76-1.93-9.9A317.39,317.39,0,0,0,583.76,165.64Z" transform="translate(-368.89 -126.42)"/><path class="cls-1" d="M566.13,264h0a155.13,155.13,0,0,1,21.25-17.63l12.08,16.9a183.84,183.84,0,0,0-16.91,13l6,6.52h-1.21l-6.28-7a182.23,182.23,0,0,1,16.67-13l-10.39-15A151.82,151.82,0,0,0,566.13,264Z" transform="translate(-368.89 -126.42)"/><path class="cls-1" d="M620.47,257.43l-8.93-14.25h1.21l7.72,14a149.13,149.13,0,0,1,15.22-7.24v2.17h-.48v-2.17Z" transform="translate(-368.89 -126.42)"/><path class="cls-1" d="M461.06,254.29h0a268.92,268.92,0,0,1,32.85-41.79L483,202.11v-1.2l11.35,10.62A259.72,259.72,0,0,0,461.06,254.29Z" transform="translate(-368.89 -126.42)"/><path class="cls-1" d="M505,321l-14.25-7h0l15,7c2.17-5.07,4.59-10.15,7.24-15h0C509.85,310.32,507.44,315.63,505,321Z" transform="translate(-368.89 -126.42)"/><path class="cls-1" d="M647.28,300.42h0a126.63,126.63,0,0,1,20.29-7.49c-2.89-8.21-5.55-16.42-8.21-24.15a100.33,100.33,0,0,0-18.11,6.52h0a194.65,194.65,0,0,1,18.59-8.21c2.9,8.45,5.56,16.9,8.22,25.36A135.74,135.74,0,0,0,647.28,300.42Z" transform="translate(-368.89 -126.42)"/><path class="cls-1" d="M606.47,402.59H606a101,101,0,0,1,16.91-48.31h0A99.46,99.46,0,0,0,606.47,402.59Z" transform="translate(-368.89 -126.42)"/><path class="cls-1" d="M622.89,542.68h0s-6.76-4.83-9.9-7.49v-1.45a145.42,145.42,0,0,1-24.16-25.6h0A151.25,151.25,0,0,0,613,534.22l-1.21,1.69Z" transform="translate(-368.89 -126.42)"/><path class="cls-1" d="M539.08,612l-8,8.93a254.67,254.67,0,0,1-30.19-32.36h0a268.13,268.13,0,0,0,28.74,31.15l7-8.21-8.21-8,10.15-10.63,1.2,1.45-9.42,10.15A35.56,35.56,0,0,0,539.08,612Z" transform="translate(-368.89 -126.42)"/><path class="cls-1" d="M976.34,303l42.51-24.15a236.7,236.7,0,0,0-80.91-89.61l28.5-40.09a14.29,14.29,0,0,0-3.14-1.94L935,188.49a241.49,241.49,0,0,1,81.88,88.64c-13.77,7.73-27.54,15.46-41.06,24.15a200.73,200.73,0,0,0-42.27-53.86l-12.32,13.29A11.25,11.25,0,0,0,923,262.4c3.87-4.35,8-8.46,12.08-12.56A196.5,196.5,0,0,1,976.34,303Z" transform="translate(-368.89 -126.42)"/><path class="cls-1" d="M963.78,150.32c4.59,2.9,8.7,4.84,9.42,3.87s-2.41-4.11-7-7.25-9.18-4.59-9.91-3.62S959.19,147.18,963.78,150.32Z" transform="translate(-368.89 -126.42)"/><path class="cls-1" d="M935.52,190.42c3.87,2.66,7.49,4.11,8.21,3.14s-1.93-3.62-6-6.28-7.73-3.87-8.22-2.9S931.66,188,935.52,190.42Z" transform="translate(-368.89 -126.42)"/><path class="cls-1" d="M921.27,261.91c1.93,1.69,4.11,2.9,4.59,2.18s0-2.66-2.41-4.59-4.35-2.9-5.08-2.18S919.1,260,921.27,261.91Z" transform="translate(-368.89 -126.42)"/><path class="cls-1" d="M1016.44,279.06c1.93,3.62,4.34,6.28,5.31,5.8s0-3.87-1.93-7.73-4.59-6.52-5.32-5.8S1014.5,275.2,1016.44,279.06Z" transform="translate(-368.89 -126.42)"/><path class="cls-1" d="M973.2,302.73c1.45,3.14,3.62,5.32,4.59,4.83s0-3.62-1.21-6.76-3.38-5.07-3.38-4.59Z" transform="translate(-368.89 -126.42)"/><path class="cls-1" d="M933.83,249.59c1.69,1.45,3.38,2.42,3.87,1.94s0-2.18-2.18-3.87-3.62-2.41-3.86-1.93S932.14,247.9,933.83,249.59Z" transform="translate(-368.89 -126.42)"/><path class="cls-1" d="M894.46,375l46.13-14.73a153.94,153.94,0,0,0-35.74-63.77l36.23-33.57-1.69-1.69-36.23,34.3a155.76,155.76,0,0,1,36.23,63.28L894.7,373.5A112.68,112.68,0,0,0,879,340.89l-14.73,10.63h0l14.25-10.14A118.22,118.22,0,0,1,894.46,375Z" transform="translate(-368.89 -126.42)"/><path class="cls-1" d="M938.9,263.36c2.42,2.66,4.83,4.11,5.8,3.38s0-3.38-2.9-6-5.07-3.87-6-3.14S936.49,261,938.9,263.36Z" transform="translate(-368.89 -126.42)"/><path class="cls-1" d="M902.67,297.18c1.94,1.93,4.11,3.14,4.83,2.41s0-3.14-1.93-5.07-4.83-2.9-4.83-2.17A6.54,6.54,0,0,0,902.67,297.18Z" transform="translate(-368.89 -126.42)"/><path class="cls-1" d="M863.55,352.73s1.93,1.45,2.65,0,0-1.69,0-2.9-2.17-1.45-2.9,0A2.66,2.66,0,0,0,863.55,352.73Z" transform="translate(-368.89 -126.42)"/><path class="cls-1" d="M938.42,360c0,2.41,1.93,4.34,3.14,4.1s1.21-2.66,0-5.31-2.17-4.35-3.14-4.11S937.7,357.56,938.42,360Z" transform="translate(-368.89 -126.42)"/><path class="cls-1" d="M892.53,375c0,1.69,1.69,2.9,2.66,2.66s1.45-1.93,0-3.87-1.94-2.9-2.9-2.65S892.05,373.26,892.53,375Z" transform="translate(-368.89 -126.42)"/><path class="cls-1" d="M878,342.83s1.93,1.45,2.41,1.2,0-1.44,0-2.65-1.69-1.45-2.41,0S876.59,341.86,878,342.83Z" transform="translate(-368.89 -126.42)"/><path class="cls-1" d="M969.58,412.63h48.3a247,247,0,0,0-18.83-101.69l44.44-21a8.66,8.66,0,0,1-1.21-2.66L997.35,309.5a244.55,244.55,0,0,1,19.57,101.2H970.3a205,205,0,0,0-7.24-57l-17.39,5.55a4.8,4.8,0,0,1,0,1.69l16.66-5.07A205.26,205.26,0,0,1,969.58,412.63Z" transform="translate(-368.89 -126.42)"/><path class="cls-1" d="M1041.07,289.93c1.69,4.11,3.87,7.25,4.83,6.76s-.24-3.62-.24-6.76-4.35-7.25-5.31-6.52S1039.38,286.31,1041.07,289.93Z" transform="translate(-368.89 -126.42)"/><path class="cls-1" d="M997.35,311.19c1.45,3.38,3.39,5.79,4.35,5.55s0-3.62,0-7.24-3.62-5.8-4.59-5.32S994.94,307.8,997.35,311.19Z" transform="translate(-368.89 -126.42)"/><path class="cls-1" d="M944.7,360.46c0,2.17,1.69,3.62,2.66,3.38s0-2.17,0-4.35-1.94-3.62-2.66-3.38S944.22,358.28,944.7,360.46Z" transform="translate(-368.89 -126.42)"/><path class="cls-1" d="M1015.71,410.7c0,3.86,0,7,1.69,6.76s2.18-2.9,2.18-6.76,0-6.77-1.94-6.77S1015.71,408,1015.71,410.7Z" transform="translate(-368.89 -126.42)"/><path class="cls-1" d="M967.65,410.7c0,3.14,0,5.55,1.93,5.55s1.93-2.41,2.17-5.55,0-5.56-2.17-5.56S967.89,408.77,967.65,410.7Z" transform="translate(-368.89 -126.42)"/><path class="cls-1" d="M961.61,355.87c0,1.93,1.45,3.14,2.17,2.9s0-1.69,0-3.63-1.45-3.14-2.17-2.89S961.12,354.18,961.61,355.87Z" transform="translate(-368.89 -126.42)"/><path class="cls-1" d="M1047.35,588.71h0a331.37,331.37,0,0,0,33.82-72.46l19.32,6.52a370.49,370.49,0,0,0-2.42-238.15L1069.81,295A280.65,280.65,0,0,0,914.27,130.52h0a280.44,280.44,0,0,1,157.48,167.14l27.77-10.87a369.77,369.77,0,0,1,2.42,230.91l-19.32-6.53A360.4,360.4,0,0,1,1047.35,588.71Z" transform="translate(-368.89 -126.42)"/><path class="cls-1" d="M923.45,135.11a22.75,22.75,0,0,0-8.7-6c-5.55-2.17-9.9-3.38-10.39-2.17s3.63,3.38,8.94,5.55S923,136.07,923.45,135.11Z" transform="translate(-368.89 -126.42)"/><path class="cls-1" d="M1073.44,304.18c1.2,0,0-4.59,0-9.18s-4.11-8-5.07-7.73,0,4.59,1.44,9.18S1072.47,304.42,1073.44,304.18Z" transform="translate(-368.89 -126.42)"/><path class="cls-1" d="M1044.21,594a15.61,15.61,0,0,0,5.32-5.31c2.17-3.63,3.14-6.77,2.41-7.49s-3.14,2.17-5.07,5.8S1043.49,593.54,1044.21,594Z" transform="translate(-368.89 -126.42)"/><path class="cls-1" d="M1101.46,293.8c1.2,0,0-4.84,0-9.91s-4.35-8.93-5.32-8.45,0,4.83,1.69,9.9S1100.49,294.28,1101.46,293.8Z" transform="translate(-368.89 -126.42)"/><path class="cls-1" d="M1097.59,531.46c1.21,0,3.38-3.62,5.07-8.69s2.18-9.66,0-9.9-2.9,3.62-4.59,8.69S1096.62,531.46,1097.59,531.46Z" transform="translate(-368.89 -126.42)"/><path class="cls-1" d="M1080,520.35a13.36,13.36,0,0,0,2.9-5.07c1-3.14,1.2-5.8,0-5.8s-1.94,1.94-2.9,5.08S1079.23,520.11,1080,520.35Z" transform="translate(-368.89 -126.42)"/><path class="cls-1" d="M917.41,502.72h0A167.47,167.47,0,0,0,935,465l19.32,6.52a200.38,200.38,0,0,0-1.45-129.7l-28,11.35a141,141,0,0,0-78.49-82.36h0a140.32,140.32,0,0,1,78.49,84.29l27.78-10.86a200.46,200.46,0,0,1,1.21,125.35l-19.32-6.28A181,181,0,0,1,917.41,502.72Z" transform="translate(-368.89 -126.42)"/><path class="cls-1" d="M852.43,273.27a8.57,8.57,0,0,0-3.86-3.87c-2.66-1.21-5.31-1.21-5.55,0s1.44,2.66,3.86,3.62S852.43,274.23,852.43,273.27Z" transform="translate(-368.89 -126.42)"/><path class="cls-1" d="M926.83,357.8c1.2,0,1.2-2.66,0-4.83s-2.42-3.86-3.38-3.62-1.21,2.65,0,5.07S924.89,358.28,926.83,357.8Z" transform="translate(-368.89 -126.42)"/><path class="cls-1" d="M916,505.62a4,4,0,0,0,3.38-2.42c1.21-2.41,1.45-3.62,0-4.1s-2.17,0-3.38,2.41S915.23,505.14,916,505.62Z" transform="translate(-368.89 -126.42)"/><path class="cls-1" d="M954.84,347.66c1.21,0,1.21-2.9,0-5.8s-2.89-4.59-3.86-4.35,0,3.14,0,5.8S953.88,347.9,954.84,347.66Z" transform="translate(-368.89 -126.42)"/><path class="cls-1" d="M952.91,476.39a7.46,7.46,0,0,0,3.38-4.34,13.72,13.72,0,0,0,0-5.8c0-.24-2.41,1.69-3.38,4.59S952,476.15,952.91,476.39Z" transform="translate(-368.89 -126.42)"/><path class="cls-1" d="M934.56,467.7s1.45,0,1.93-2.42,0-3.14,0-3.14-1.45,0-1.93,2.42S933.83,467.46,934.56,467.7Z" transform="translate(-368.89 -126.42)"/><path class="cls-1" d="M889.87,608.51h0a213.18,213.18,0,0,0,45.65-34.29l14.25,15a257.75,257.75,0,0,0,71.74-154.34L992.28,432A217.37,217.37,0,0,0,957,285.82h0a217.37,217.37,0,0,1,34.05,149l29.23,3.38a257.24,257.24,0,0,1-69.08,149.51L936.73,573A195.84,195.84,0,0,1,889.87,608.51Z" transform="translate(-368.89 -126.42)"/><path class="cls-1" d="M959.92,291.62a14,14,0,0,0-1.69-6.28c-1.69-2.9-4.35-4.59-5.32-3.86s0,3.38,1.93,6.28S959,292.35,959.92,291.62Z" transform="translate(-368.89 -126.42)"/><path class="cls-1" d="M990.35,439a13.89,13.89,0,0,0,2.66-6c.48-3.38,0-6.28-1.45-6.28s-2.18,2.66-2.42,5.8S989.14,438.72,990.35,439Z" transform="translate(-368.89 -126.42)"/><path class="cls-1" d="M886,610.93h5.55c2.66,0,4.35-3.38,3.87-4.11s-2.9,0-5.56,1.21S885.52,610.2,886,610.93Z" transform="translate(-368.89 -126.42)"/><path class="cls-1" d="M1020.06,442.82a14.77,14.77,0,0,0,2.9-7c.48-4.11,0-7-1.45-7s-2.18,3.14-2.42,6.77S1019.09,442.58,1020.06,442.82Z" transform="translate(-368.89 -126.42)"/><path class="cls-1" d="M944.94,594.26a8.42,8.42,0,0,0,6.28-3.62c2.66-3.62,4.35-5.56,3.62-6.28s-3.62,0-6.28,3.38S944.22,593.3,944.94,594.26Z" transform="translate(-368.89 -126.42)"/><path class="cls-1" d="M933.11,577.35a5.24,5.24,0,0,0,3.62-1.93c1.69-1.93,2.42-3.38,1.93-3.86s-2.17,0-3.62,1.93S932.62,576.87,933.11,577.35Z" transform="translate(-368.89 -126.42)"/><path class="cls-1" d="M859.44,499.34h0a122.05,122.05,0,0,0,18.84-24.15l16.91,11.11a150.5,150.5,0,0,0,21.25-94.44l-29.22,3.86a101.26,101.26,0,0,0-34.79-66.42h0a101.94,101.94,0,0,1,34.79,69.08l29.46-3.62a152.07,152.07,0,0,1-20.53,91.05L879,475A115,115,0,0,1,859.44,499.34Z" transform="translate(-368.89 -126.42)"/><path class="cls-1" d="M854.85,331.72v-3.63c0-1.2-3.14-1.45-3.86,0s0,2.42,0,3.63S854.13,332.44,854.85,331.72Z" transform="translate(-368.89 -126.42)"/><path class="cls-1" d="M887.46,400.79c1.2,0,1.93-1.69,1.69-3.38s0-2.9-2.18-2.9-1.69,1.7-1.69,3.39S886.49,400.79,887.46,400.79Z" transform="translate(-368.89 -126.42)"/><path class="cls-1" d="M858,501.27a2.4,2.4,0,0,0,3.14,0c1.21,0,1.45-2.41,0-3.14s-1.93,0-3.14,0S857.51,500.55,858,501.27Z" transform="translate(-368.89 -126.42)"/><path class="cls-1" d="M916.92,397.65c1.21,0,1.94-1.93,1.69-4.1s-1.2-3.87-2.41-3.62-1.69,1.93-1.45,4.1S916,397.9,916.92,397.65Z" transform="translate(-368.89 -126.42)"/><path class="cls-1" d="M893.5,490.89a4.69,4.69,0,0,0,3.86-2.18c1.21-2.17,1.21-3.86,0-4.59s-2.42,0-3.62,2.42S892.53,490.4,893.5,490.89Z" transform="translate(-368.89 -126.42)"/><path class="cls-1" d="M876.59,478.33a2.69,2.69,0,0,0,2.17-1.21,2.6,2.6,0,0,0,0-2.42c0-.24-1.45,0-2.17,1.21A2.18,2.18,0,0,0,876.59,478.33Z" transform="translate(-368.89 -126.42)"/><path class="cls-1" d="M758.24,568.18h0a178.36,178.36,0,0,0,48.3,0l3.63,20.29a162.34,162.34,0,0,0,111.1-65.94l-24.15-18.6A164,164,0,0,0,928,402.73h0a164.71,164.71,0,0,1-30.91,104.58l24.15,18.6a161.81,161.81,0,0,1-107.24,64c-1.45-6.76-2.66-13.52-3.86-20.28A180.79,180.79,0,0,1,758.24,568.18Z" transform="translate(-368.89 -126.42)"/><path class="cls-1" d="M929.48,408.52s1.94-2.17,1.94-4.34,0-4.35-2.18-4.35-1.93,1.93-1.93,4.35S928.28,408.52,929.48,408.52Z" transform="translate(-368.89 -126.42)"/><path class="cls-1" d="M895.67,509a5.11,5.11,0,0,0,4.11-2.41c1.44-2.42,1.93-3.87,0-4.59s-2.66,0-4.11,2.41S894.7,507.31,895.67,509Z" transform="translate(-368.89 -126.42)"/><path class="cls-1" d="M753.89,567.94a9.73,9.73,0,0,0,4.83,2.41,13.05,13.05,0,0,0,4.83,0,8.28,8.28,0,0,0-4.59-2.17C756.3,567.94,754.13,567.21,753.89,567.94Z" transform="translate(-368.89 -126.42)"/><path class="cls-1" d="M918.37,528.08a6,6,0,0,0,4.83-2.9c1.69-2.89,2.42-4.83,1.45-5.31s-2.9,0-4.59,2.9S917.65,527.36,918.37,528.08Z" transform="translate(-368.89 -126.42)"/><path class="cls-1" d="M805.34,590.16a10.71,10.71,0,0,0,6.28,1.2c3.38-.48,5.55-1.69,5.31-2.89s-2.9-1.45-6,0S804.13,589,805.34,590.16Z" transform="translate(-368.89 -126.42)"/><path class="cls-1" d="M804.13,569.87h3.62c1.93,0,2.9,0,2.9-1.69s-1.69,0-3.38,0S804.13,569.14,804.13,569.87Z" transform="translate(-368.89 -126.42)"/><path class="cls-1" d="M927.31,565h0a164.27,164.27,0,0,0,15.94-18.12l7.25,6a239.27,239.27,0,0,0,33.81-61.59l-11.11-4.83a232.19,232.19,0,0,0,13.29-65.46h0a231.19,231.19,0,0,1-13.77,66.42L985,492.34a226.44,226.44,0,0,1-32.85,59.9l-7.25-6A176.45,176.45,0,0,1,927.31,565Z" transform="translate(-368.89 -126.42)"/><path class="cls-1" d="M985.28,423.74v-2.66C985.28,423.74,984.79,423.74,985.28,423.74Z" transform="translate(-368.89 -126.42)"/><path class="cls-1" d="M971,489.2s1.21,0,1.69-2.18a4.53,4.53,0,0,0,0-2.9c0-.24-1.21,0-1.69,2.42S970.54,489,971,489.2Z" transform="translate(-368.89 -126.42)"/><path class="cls-1" d="M926.1,566.73l2.18-1.21c2.17-1.21,0-1.69,0-2.17s0,0-1.94,1.2S924.89,566.24,926.1,566.73Z" transform="translate(-368.89 -126.42)"/><path class="cls-1" d="M983.35,494.27l1.69-2.42c1.69-2.41,0-2.65,0-2.9s-1.21,0-1.69,2.42S982.86,494,983.35,494.27Z" transform="translate(-368.89 -126.42)"/><path class="cls-1" d="M949.05,555.62a3,3,0,0,0,2.41-1.69c1-1.69,1.45-2.42,1.21-2.9S951,551,950,553A7.38,7.38,0,0,0,949.05,555.62Z" transform="translate(-368.89 -126.42)"/><path class="cls-1" d="M942.53,548.37H944c1.44,0,0-1.45,0-1.69s0,0-1.45,0S942.28,548.13,942.53,548.37Z" transform="translate(-368.89 -126.42)"/><path class="cls-1" d="M903.16,486.78h0a135.08,135.08,0,0,1-8.94,13.77L887,495a125.49,125.49,0,0,1-30.91,30l7.73,11.35a139,139,0,0,1-46.14,19.81h0a130.73,130.73,0,0,0,46.62-20.29l-7.73-11.11a128.51,128.51,0,0,0,30-29.47L894,501A102.37,102.37,0,0,0,903.16,486.78Z" transform="translate(-368.89 -126.42)"/><path class="cls-1" d="M819.59,555.62h-2.18c-1,0-2.17,0-1.93,1.2s0,0,2.17,0S819.59,555.62,819.59,555.62Z" transform="translate(-368.89 -126.42)"/><path class="cls-1" d="M865.24,534.85h-2.18c-2.17,0-1.45,1.44,0,1.69s0,0,1.93,0S865.48,535.33,865.24,534.85Z" transform="translate(-368.89 -126.42)"/><path class="cls-1" d="M903.64,485.57h0v1.69h0S903.88,485.81,903.64,485.57Z" transform="translate(-368.89 -126.42)"/><path class="cls-1" d="M857.51,523.73a2,2,0,0,0-1.94,0s-1.2,1.45,0,1.94a1.72,1.72,0,0,0,1.94,0A5.09,5.09,0,0,0,857.51,523.73Z" transform="translate(-368.89 -126.42)"/><path class="cls-1" d="M887.7,493.3H886c-.49,0,0,1.69,0,1.93s0,0,1.69,0S888.18,493.78,887.7,493.3Z" transform="translate(-368.89 -126.42)"/><path class="cls-1" d="M894.7,499.58h0v1.21h1.21C897.12,500.79,894.94,499.82,894.7,499.58Z" transform="translate(-368.89 -126.42)"/><path class="cls-1" d="M1005.08,198.39h0a273.4,273.4,0,0,1,34.78,44.2l-12.56,8.21a283.28,283.28,0,0,1,42.51,139.85l21.26-1.69a345.88,345.88,0,0,1-28.74,156h0a347.39,347.39,0,0,0,28.74-158.45l-21,1.69a288,288,0,0,0-41.55-135.74l12.56-8A272.69,272.69,0,0,0,1005.08,198.39Z" transform="translate(-368.89 -126.42)"/><path class="cls-1" d="M1064.74,539.19a18.43,18.43,0,0,0-3.86,5.32c-1.45,3.14-1.93,6.28-1.45,6.52s2.66-1.93,4.1-5.32S1065.47,539.68,1064.74,539.19Z" transform="translate(-368.89 -126.42)"/><path class="cls-1" d="M1090.59,382.2a10.25,10.25,0,0,0,0,6.52c1.2,3.38,0,6.28,1.69,6.28s1.2-2.9,1.2-6.52S1091.31,382.2,1090.59,382.2Z" transform="translate(-368.89 -126.42)"/><path class="cls-1" d="M1001.7,195.25s0,2.42,2.9,4.59,4.11,3.38,4.59,3.14,0-2.66-2.9-4.83S1002.19,194.77,1001.7,195.25Z" transform="translate(-368.89 -126.42)"/><path class="cls-1" d="M1069.81,384.13v6.28c0,3.38,0,5.8,1.7,5.8s1.2-2.9,1.2-6S1069.81,384.13,1069.81,384.13Z" transform="translate(-368.89 -126.42)"/><path class="cls-1" d="M1024.16,246a10.91,10.91,0,0,0,1.94,5.8c1.93,2.66,3.62,4.83,4.34,4.35s0-2.9-1.93-5.8S1024.65,245.49,1024.16,246Z" transform="translate(-368.89 -126.42)"/><path class="cls-1" d="M1037.45,239.69a5.81,5.81,0,0,0,1.45,3.87c1.21,1.93,2.41,3.14,2.9,2.89s0-1.93-1.45-3.86S1037.93,239.45,1037.45,239.69Z" transform="translate(-368.89 -126.42)"/><path class="cls-1" d="M977.79,513.11v1.45l10.87,5.79a243,243,0,0,1-26.57,42.75l26.57,22.23a270.91,270.91,0,0,0,40.82-72.46l32.12,13.28v-2.42l-32.6-12.8a277.62,277.62,0,0,1-40.1,72.46l-26.08-21.25a230.28,230.28,0,0,0,26.32-43Z" transform="translate(-368.89 -126.42)"/><path class="cls-1" d="M1060.64,523.25c-1.21,3.14-1.69,6,0,6.28s2.17-1.93,3.38-5.31,1.69-6,0-6.28S1061.84,520.11,1060.64,523.25Z" transform="translate(-368.89 -126.42)"/><path class="cls-1" d="M1027.79,510.93c-1.21,2.9-1.45,5.32,0,5.56s2.17-1.69,3.38-4.59,1.21-5.31,0-5.56S1028.75,507.31,1027.79,510.93Z" transform="translate(-368.89 -126.42)"/><path class="cls-1" d="M976.58,513.35c0,1.93-1.21,3.62,0,3.86s1.69,0,2.42-2.9,1.21-3.38,0-3.62S977.55,511.66,976.58,513.35Z" transform="translate(-368.89 -126.42)"/><path class="cls-1" d="M987.45,583.39c-1.69,2.42-2.9,4.83-2.17,5.32s2.65,0,4.35-3.38,2.89-4.84,2.17-5.32S989.38,581.22,987.45,583.39Z" transform="translate(-368.89 -126.42)"/><path class="cls-1" d="M960.88,561.41c-1.45,2.18-2.41,4.11-1.93,4.83s2.42,0,4.11-2.89,2.41-4.35,1.93-4.83S962.57,559.48,960.88,561.41Z" transform="translate(-368.89 -126.42)"/><path class="cls-1" d="M987.45,519.63v3.14c0,.24,1.21,0,1.93-2.42s0-2.9,0-2.9A5.81,5.81,0,0,0,987.45,519.63Z" transform="translate(-368.89 -126.42)"/><path class="cls-1" d="M866,539.19h0l6.76,10.39A131.49,131.49,0,0,1,840.36,566l12.07,33.09a177.42,177.42,0,0,0,54.83-31.4c7.49,8.94,14.74,18.12,22.22,27.3l1.45-1.21-22.7-27.54a173.76,173.76,0,0,1-55.8,31.65c-4.1-10.39-8.45-20.78-12.31-31.4a141.27,141.27,0,0,0,32.36-16.67Z" transform="translate(-368.89 -126.42)"/><path class="cls-1" d="M928.52,593.3c-1.93,1.69-3.14,3.38-2.66,4.1s2.42,0,4.59-1.93,3.14-3.86,2.66-4.35S930.69,591.36,928.52,593.3Z" transform="translate(-368.89 -126.42)"/><path class="cls-1" d="M906.3,566c-1.69,1.45-2.66,2.9-2.18,3.63s2.18,0,3.87-1.45,2.65-3.14,2.41-3.87S908,564.55,906.3,566Z" transform="translate(-368.89 -126.42)"/><path class="cls-1" d="M865,538.47s-1.93,1.93-1.44,2.41,1.44,0,2.65,0,1.93-1.93,1.69-2.65S866.2,537.74,865,538.47Z" transform="translate(-368.89 -126.42)"/><path class="cls-1" d="M852.43,597.4c-2.17,0-3.86,1.93-3.62,2.66s2.42,0,4.59,0,3.87-2.17,3.62-2.9S854.37,596.68,852.43,597.4Z" transform="translate(-368.89 -126.42)"/><path class="cls-1" d="M839.39,565c-1.93,0-3.14,1.69-2.9,2.41s2.18,0,3.87,0,3.38-1.93,2.9-2.65S841.32,564.55,839.39,565Z" transform="translate(-368.89 -126.42)"/><path class="cls-1" d="M871.76,549.34s-1.69,1.45-1.45,1.93,0,0,2.41,0,1.45-1.45,1.21-1.93A1.91,1.91,0,0,0,871.76,549.34Z" transform="translate(-368.89 -126.42)"/><path class="cls-1" d="M840.36,297.18h0l5.79-10.87a142.64,142.64,0,0,1,28,18.11c7.49-8.69,15.46-17.39,24.16-25.84a168.91,168.91,0,0,0-53.14-30.43l13-30.68H856.3c-4.35,10.87-8.45,21.74-12.8,32.85A169.1,169.1,0,0,1,896.88,280l-22.47,25.6a132.63,132.63,0,0,0-28-18.11A43.83,43.83,0,0,0,840.36,297.18Z" transform="translate(-368.89 -126.42)"/><path class="cls-1" d="M856.78,217.47h5.32c.24,0-1.69-2.17-4.35-3.14a8.83,8.83,0,0,0-5.32,0C852.19,214.33,854.13,217.47,856.78,217.47Z" transform="translate(-368.89 -126.42)"/><path class="cls-1" d="M844,249.84h4.59c.24,0-1.21-1.94-3.62-2.66a8.58,8.58,0,0,0-4.59,0C840.12,247.18,841.81,248.87,844,249.84Z" transform="translate(-368.89 -126.42)"/><path class="cls-1" d="M840.36,298.14H843c.25,0,0-1.45-1.69-2.17a2.86,2.86,0,0,0-2.65,0C838.43,296,839.15,297.66,840.36,298.14Z" transform="translate(-368.89 -126.42)"/><path class="cls-1" d="M897.6,280.27c1.69,1.45,3.14,1.93,3.87,1.45s0-2.17-1.94-3.62-3.38-1.94-3.86-1.45S895.91,279.06,897.6,280.27Z" transform="translate(-368.89 -126.42)"/><path class="cls-1" d="M873.69,305.63s2.66,1.45,3.14,0,0-1.93,0-3.14-2.9-1.45-3.38,0S872.48,304.42,873.69,305.63Z" transform="translate(-368.89 -126.42)"/><path class="cls-1" d="M846.64,287.27h2.17c.24,0,0-1.2-1.45-1.69a2.82,2.82,0,0,0-2.17,0C845,285.58,845.67,286.79,846.64,287.27Z" transform="translate(-368.89 -126.42)"/><path class="cls-1" d="M1069.81,325.19h0l5.08-1.44a261,261,0,0,1,5.79,27.29l14.5-2.66a345.61,345.61,0,0,0-9.67-41.54l14-4.83h0l-14.25,5.07a338,338,0,0,1,9.66,41.06l-13.76,2.9c-1.69-9.18-3.63-18.36-6-27.29Z" transform="translate(-368.89 -126.42)"/><path class="cls-1" d="M1098.56,302.73a5.8,5.8,0,0,0,1.45,2.66v-3.14c0-1.69,0-2.66-1.45-2.42S1098.07,301.28,1098.56,302.73Z" transform="translate(-368.89 -126.42)"/><path class="cls-1" d="M1084.55,307.56c0,1.45,0,2.66,1.45,2.66a7.9,7.9,0,0,0,0-3.14,2.75,2.75,0,0,0-1.45-2.42C1084.31,304.66,1084.06,306.11,1084.55,307.56Z" transform="translate(-368.89 -126.42)"/><path class="cls-1" d="M1069.81,325.92v1.93a3.82,3.82,0,0,0,0-2.41V323.5A4,4,0,0,0,1069.81,325.92Z" transform="translate(-368.89 -126.42)"/><path class="cls-1" d="M1094,348.86v0Z" transform="translate(-368.89 -126.42)"/><path class="cls-1" d="M1080,351.76v-2.9A10.1,10.1,0,0,0,1080,351.76Z" transform="translate(-368.89 -126.42)"/><path class="cls-1" d="M1074.4,324.71V323A3.62,3.62,0,0,0,1074.4,324.71Z" transform="translate(-368.89 -126.42)"/><path class="cls-1" d="M1017.88,382.44H1023c0,7.24,0,15,1.2,22.46h14.5a269.45,269.45,0,0,0-2.18-34.3l14.49-2.41h0l-14.73,2.41a273.3,273.3,0,0,1,2.42,34.3h-14c0-7.49,0-15-1.21-22.46Z" transform="translate(-368.89 -126.42)"/><path class="cls-1" d="M1050.49,367.46v2.42a3.17,3.17,0,0,0,0-2.42v0Z" transform="translate(-368.89 -126.42)"/><path class="cls-1" d="M1035.76,369.88v0Z" transform="translate(-368.89 -126.42)"/><path class="cls-1" d="M1017.64,382.92v-1.69A3.61,3.61,0,0,0,1017.64,382.92Z" transform="translate(-368.89 -126.42)"/><path class="cls-1" d="M1038.42,404.18V402A5.3,5.3,0,0,0,1038.42,404.18Z" transform="translate(-368.89 -126.42)"/><path class="cls-1" d="M1023.68,404.66v0Z" transform="translate(-368.89 -126.42)"/><path class="cls-1" d="M1022.72,382.44V381A5,5,0,0,0,1022.72,382.44Z" transform="translate(-368.89 -126.42)"/><path class="cls-1" d="M924.89,318.19h0l5.08-3.14a174.68,174.68,0,0,1,8.69,16.18l15.22-7.73a170,170,0,0,0-14.73-25.36l13.28-8.21h0l-14,10.15a223.13,223.13,0,0,1,14.73,25.36l-14.73,7.48a151.65,151.65,0,0,0-8.94-16.18Z" transform="translate(-368.89 -126.42)"/><path class="cls-1" d="M951.7,289.93s1.21,1.45,1.7,0,0,0,0-2.17-1.45-1.45-1.7-1.21S951,288,951.7,289.93Z" transform="translate(-368.89 -126.42)"/><path class="cls-1" d="M937.7,298.87s1.2,1.45,1.69,1.21,0-1.21,0-1.94a2.44,2.44,0,0,0-1.69-1.45A2.1,2.1,0,0,0,937.7,298.87Z" transform="translate(-368.89 -126.42)"/><path class="cls-1" d="M923.45,318.67h1.2c1.21,0,0,0,0-1.45a1.48,1.48,0,0,0-1.2,0A2.68,2.68,0,0,0,923.45,318.67Z" transform="translate(-368.89 -126.42)"/><path class="cls-1" d="M952.43,324s0,1.69,1.21,1.45,0,0,0-1.94-1.21-1.69-1.45-1.45S952,323,952.43,324Z" transform="translate(-368.89 -126.42)"/><path class="cls-1" d="M937.21,331.72s1.21,1.45,1.45,0,0,0,0-1.94,0-1.45-1.45,0S936.73,330.75,937.21,331.72Z" transform="translate(-368.89 -126.42)"/><path class="cls-1" d="M928.76,315.53h0v-1.2h0S928.52,314.08,928.76,315.53Z" transform="translate(-368.89 -126.42)"/><path class="cls-1" d="M1049,504.41h0c2.42-7.73,4.83-15.7,6.77-24.15l6.76,1.69a334.2,334.2,0,0,0,9.18-71.25H1061.6a299.83,299.83,0,0,0-6.52-68.84h0a304.37,304.37,0,0,1,6.52,69.56h10.15a327.64,327.64,0,0,1-8.7,68.6l-6.76-1.69C1054.11,488,1051.7,496.2,1049,504.41Z" transform="translate(-368.89 -126.42)"/><path class="cls-1" d="M1055.56,345.72a5.26,5.26,0,0,0,0-2.89c0-1.45,0-2.66-1.2-2.42s0,1.21,0,2.66S1055.08,345.72,1055.56,345.72Z" transform="translate(-368.89 -126.42)"/><path class="cls-1" d="M1061.36,414.56V411.9C1061.36,413.6,1061.12,414.56,1061.36,414.56Z" transform="translate(-368.89 -126.42)"/><path class="cls-1" d="M1048.56,507.31l1.21-2.17c1.2-2.18,0-2.18,0-2.18l-1.21,1.94C1047.35,506.83,1048.32,507.31,1048.56,507.31Z" transform="translate(-368.89 -126.42)"/><path class="cls-1" d="M1071.51,414.8v-2.9C1071.51,413.6,1071.26,414.8,1071.51,414.8Z" transform="translate(-368.89 -126.42)"/><path class="cls-1" d="M1062.09,485.09a4.58,4.58,0,0,0,1.2-2.9v-2.9a4.36,4.36,0,0,0-1.2,2.66C1061.6,483.16,1061.6,484.85,1062.09,485.09Z" transform="translate(-368.89 -126.42)"/><path class="cls-1" d="M1055.56,483.16v-1.94C1055.56,482.67,1055.32,483.16,1055.56,483.16Z" transform="translate(-368.89 -126.42)"/><path class="cls-1" d="M973.2,464.56h0c-1.69,5.55-3.38,11.11-5.31,16.66l-6.28-2.41a207.68,207.68,0,0,1-20.53,42.27l8.45,5.79A191.49,191.49,0,0,1,917.89,565h0a196.93,196.93,0,0,0,31.16-38.65l-8.21-5.8a206.45,206.45,0,0,0,19.56-41.06l6.52,2.66A149,149,0,0,0,973.2,464.56Z" transform="translate(-368.89 -126.42)"/><path class="cls-1" d="M919.1,563.83h-1.93c-1.94,0,0,1.45,0,1.69s0,0,1.69,0S919.34,564.07,919.1,563.83Z" transform="translate(-368.89 -126.42)"/><path class="cls-1" d="M950.26,525.18l-1.7,1.21c-1.69,1.21,0,1.93,0,2.18s0,0,1.7-1.45S950.5,525.18,950.26,525.18Z" transform="translate(-368.89 -126.42)"/><path class="cls-1" d="M973.2,463.35v1.45a1.93,1.93,0,0,0,0,1.69v-3.14Z" transform="translate(-368.89 -126.42)"/><path class="cls-1" d="M941.8,519.39l-1.69,1.2c-1.69,1.21,0,1.94,0,1.94h1.45C943,522.53,942,519.63,941.8,519.39Z" transform="translate(-368.89 -126.42)"/><path class="cls-1" d="M961.61,477.12a2.4,2.4,0,0,0-1.21,1.69v1.93c0,.24,0,0,1.21-1.45S962.09,477.36,961.61,477.12Z" transform="translate(-368.89 -126.42)"/><path class="cls-1" d="M967.89,480.26h0v.24C967.89,479.29,968.13,480.26,967.89,480.26Z" transform="translate(-368.89 -126.42)"/><path class="cls-1" d="M876.59,309.25h0a91.28,91.28,0,0,1,7,6.77l-4.1,3.62a123.55,123.55,0,0,1,15.45,20.53l6.77-4.35A118.77,118.77,0,0,1,913.3,360h0a115,115,0,0,0-11.59-24.16l-6.77,4.11a107,107,0,0,0-15-19.81l4.11-3.86Z" transform="translate(-368.89 -126.42)"/><path class="cls-1" d="M911.85,359.49h0v-1.21C911.85,357.08,912.33,359.49,911.85,359.49Z" transform="translate(-368.89 -126.42)"/><path class="cls-1" d="M900.74,335.1v1.21h0Z" transform="translate(-368.89 -126.42)"/><path class="cls-1" d="M875.14,308.77Z" transform="translate(-368.89 -126.42)"/><path class="cls-1" d="M893.5,339.45Z" transform="translate(-368.89 -126.42)"/><path class="cls-1" d="M878,319.16Z" transform="translate(-368.89 -126.42)"/><path class="cls-1" d="M882.14,315.77Z" transform="translate(-368.89 -126.42)"/><path class="cls-1" d="M922.48,217.47h0c4.83,3.14,9.42,6.76,14,10.15L932.87,232a206.63,206.63,0,0,1,32.36,32.61l6.28-5.07a211.51,211.51,0,0,1,24.15,39.37h0A222.57,222.57,0,0,0,971.51,259l-6.28,4.84a216,216,0,0,0-31.4-31.65l3.62-4.1C932.38,223.51,927.55,219.89,922.48,217.47Z" transform="translate(-368.89 -126.42)"/><path class="cls-1" d="M995.66,296.45v1.93a1.94,1.94,0,0,0,1.21,1.45V297.9C996.87,296,995.91,296.45,995.66,296.45Z" transform="translate(-368.89 -126.42)"/><path class="cls-1" d="M970.3,257.32V259c0,1.7,1.45,1.45,1.69,0s0,0,0-1.93S970.54,257.08,970.3,257.32Z" transform="translate(-368.89 -126.42)"/><path class="cls-1" d="M921.51,215.78V217l3.38.48H923S921.51,215.54,921.51,215.78Z" transform="translate(-368.89 -126.42)"/><path class="cls-1" d="M964,262.4a6.83,6.83,0,0,0,0,1.69l1.69,1.2v-1.93C965.71,262.64,964.26,262.15,964,262.4Z" transform="translate(-368.89 -126.42)"/><path class="cls-1" d="M931.42,230a4.4,4.4,0,0,0,1.2,1.69h1.94c.24,0,0,0-1.21-1.69S931.66,229.79,931.42,230Z" transform="translate(-368.89 -126.42)"/><path class="cls-1" d="M935.52,226.41Z" transform="translate(-368.89 -126.42)"/><path class="cls-1" d="M944.7,364.32h0q1.69,7.24,2.9,14.49L940.84,380a199.83,199.83,0,0,1,1.93,39.86h9.9a190.82,190.82,0,0,1-7.25,42h0a195.42,195.42,0,0,0,7.49-42.51H942.77a169.08,169.08,0,0,0-1.93-38.4l6.76-1.45Q946.51,371.94,944.7,364.32Z" transform="translate(-368.89 -126.42)"/><path class="cls-1" d="M945.91,460.45v3.38l1.21-1.44A2.2,2.2,0,0,0,945.91,460.45Z" transform="translate(-368.89 -126.42)"/><path class="cls-1" d="M952.67,418.43v1.69C952.67,418.43,953.15,418.43,952.67,418.43Z" transform="translate(-368.89 -126.42)"/><path class="cls-1" d="M944.22,362.39v1.45h0v-1.45C944.22,360.94,944.46,362.39,944.22,362.39Z" transform="translate(-368.89 -126.42)"/><path class="cls-1" d="M942.77,417.94v1.69C942.77,417.94,943,417.94,942.77,417.94Z" transform="translate(-368.89 -126.42)"/><path class="cls-1" d="M940.35,378.57a2.86,2.86,0,0,0,0,1.69V380C940.35,378.33,940.84,378.57,940.35,378.57Z" transform="translate(-368.89 -126.42)"/><path class="cls-1" d="M947.36,377.85h0v-1.21A1.68,1.68,0,0,0,947.36,377.85Z" transform="translate(-368.89 -126.42)"/><path class="cls-1" d="M849.54,324.23h0l3.62-4.59a78,78,0,0,1,9.66,8.21L874.66,316a127.82,127.82,0,0,0-16.43-13.29c3.38-4.59,6.52-9.18,9.9-13.52h0L858.23,303a124.15,124.15,0,0,1,16.18,13.29l-11.35,11.59a83.38,83.38,0,0,0-9.66-8.45Z" transform="translate(-368.89 -126.42)"/><path class="cls-1" d="M867.89,289.93h1.69c.25,0,0,0,0-1.45s-1.45,0-1.69,0S867.17,289.93,867.89,289.93Z" transform="translate(-368.89 -126.42)"/><path class="cls-1" d="M858,303.46h1.69c.24,0,0,0,0-1.45s-1.45,0-1.69,0S857.51,303,858,303.46Z" transform="translate(-368.89 -126.42)"/><path class="cls-1" d="M849.54,324.71h-1.21A1.42,1.42,0,0,0,849.54,324.71Z" transform="translate(-368.89 -126.42)"/><path class="cls-1" d="M874.41,316.5h1.45c.25,0,0,0,0-1.45s0,0-1.45,0S873.93,316,874.41,316.5Z" transform="translate(-368.89 -126.42)"/><path class="cls-1" d="M864,328.33h-1.45c-.24,0-.48-.48,0,0Z" transform="translate(-368.89 -126.42)"/><path class="cls-1" d="M852.43,319.88Z" transform="translate(-368.89 -126.42)"/><path class="cls-1" d="M1035.76,513.83h0A303.61,303.61,0,0,0,1041.07,316l-28,10.14A223.59,223.59,0,0,0,901.22,195l10.15-17.87a306.17,306.17,0,0,0-81.64-27.3h0a294.14,294.14,0,0,1,78.5,25.85c-3.38,5.79-6.52,12.07-9.9,17.87a222.69,222.69,0,0,1,115,134.77l28.25-9.9A301.45,301.45,0,0,1,1035.76,513.83Z" transform="translate(-368.89 -126.42)"/><path class="cls-1" d="M1038.9,507.31a17.44,17.44,0,0,0-4.59,6.76c-1.45,4.11-2.17,7.49,0,8.22s3.14-2.66,4.59-7S1039.86,507.31,1038.9,507.31Z" transform="translate(-368.89 -126.42)"/><path class="cls-1" d="M1039.62,311.19v8.21c0,4.1,3.14,7.24,4.11,7s0-4.1,0-8.45S1040.59,310.7,1039.62,311.19Z" transform="translate(-368.89 -126.42)"/><path class="cls-1" d="M823.45,149.36a23,23,0,0,0,8,2.9,26.46,26.46,0,0,0,8.21,0,20.43,20.43,0,0,0-7.73-3.14C827.32,148.15,823.69,148.39,823.45,149.36Z" transform="translate(-368.89 -126.42)"/><path class="cls-1" d="M1011.85,322.05v7.25c0,3.62,2.65,6.52,3.86,6.28s0-3.86,0-7.49S1012.81,321.57,1011.85,322.05Z" transform="translate(-368.89 -126.42)"/><path class="cls-1" d="M892.29,190.9a19.12,19.12,0,0,0,6.28,5.32c3.86,1.93,7.49,2.89,8,1.93s-1.93-3.38-5.8-4.83S892.77,189.94,892.29,190.9Z" transform="translate(-368.89 -126.42)"/><path class="cls-1" d="M904.36,174.24a15.7,15.7,0,0,0,4.35,3.62c2.66,1.45,5.07,1.93,5.56,1.45s-1.69-2.42-4.35-3.62S904.61,173.75,904.36,174.24Z" transform="translate(-368.89 -126.42)"/><path class="cls-1" d="M876.59,239.21l24.15-43.72h0l-24.15,44Z" transform="translate(-368.89 -126.42)"/><path class="cls-1" d="M873.69,241.62c3.38,1.7,6.52,2.42,7.25,0s-1.7-3.14-5.08-4.83-6.76-2.41-7.48-1.2S870.31,239.21,873.69,241.62Z" transform="translate(-368.89 -126.42)"/><path class="cls-1" d="M1061.84,524.7h0a338.24,338.24,0,0,0,21-101.2,263.27,263.27,0,0,0,8-34.3h0a285.26,285.26,0,0,1-8,35A342.31,342.31,0,0,1,1061.84,524.7Z" transform="translate(-368.89 -126.42)"/><path class="cls-1" d="M920.79,525.18l4.83,3.87a204.25,204.25,0,0,0,28.74-55.31h0a194.87,194.87,0,0,1-29.47,54.1,32.21,32.21,0,0,0-4.58-3.38Z" transform="translate(-368.89 -126.42)"/><path class="cls-1" d="M1028.75,511.42h0a303,303,0,0,0,16.91-74.15l-24.15-2.42a6.25,6.25,0,0,1,0,1.93l24.15,2.66A297.4,297.4,0,0,1,1028.75,511.42Z" transform="translate(-368.89 -126.42)"/><path class="cls-1" d="M916.44,393.79h0c0-5.07-1.45-10.39-2.41-15.46l-18.84,4.59c0-2.66,0-5.55-1.94-8.21h0l2.18,9.18,18.84-4.59C915.23,384.37,916,389,916.44,393.79Z" transform="translate(-368.89 -126.42)"/><path class="cls-1" d="M930.69,464.08l4.35,1.69v-1.21l-4.11-1.45A175.27,175.27,0,0,0,939.39,403H929v1.21h9.9A173.06,173.06,0,0,1,930.69,464.08Z" transform="translate(-368.89 -126.42)"/><path class="cls-1" d="M987.93,519.87h0a263.27,263.27,0,0,0,19.57-56.28l-21.26-4.83a253.59,253.59,0,0,0,4.35-26.57h0a217.6,217.6,0,0,1-4.59,28l21.26,5.07A248.19,248.19,0,0,1,987.93,519.87Z" transform="translate(-368.89 -126.42)"/><path class="cls-1" d="M968.13,464.8l4.35,1.21h0l-3.87-1.21a215,215,0,0,0,6.77-43.23h-.25A220.48,220.48,0,0,1,968.13,464.8Z" transform="translate(-368.89 -126.42)"/><path class="cls-1" d="M1098.32,284.62h0A276.28,276.28,0,0,0,1087,257.08c-6.28,3.38-12.8,6.52-19.32,9.66A285.25,285.25,0,0,0,964.75,148.39h0a284,284,0,0,1,103.37,120.77l19.33-9.66A197.41,197.41,0,0,1,1098.32,284.62Z" transform="translate(-368.89 -126.42)"/><path class="cls-1" d="M904.36,162.64c4.83-9.9,9.91-19.8,15-29.95h-1.93L902.92,162.4a325.57,325.57,0,0,0-69.57-21.25c0,3.38-1.2,6.76-1.93,10.14h1.93c0-3.38,0-6.76,1.94-9.9A317.31,317.31,0,0,1,904.36,162.64Z" transform="translate(-368.89 -126.42)"/><path class="cls-1" d="M922,261h0a154.61,154.61,0,0,0-21.26-17.63l-12.08,16.9a182.49,182.49,0,0,1,16.91,13l-6,6.52h1.21l6.28-7a180.74,180.74,0,0,0-16.66-13l10.38-15A151.91,151.91,0,0,1,922,261Z" transform="translate(-368.89 -126.42)"/><path class="cls-1" d="M867.65,254.43l8.94-14.25h-1.21l-7.73,14a147.14,147.14,0,0,0-15.22-7.24v2.17h.49v-2.17Z" transform="translate(-368.89 -126.42)"/><path class="cls-1" d="M1027.06,251.29h0a268.32,268.32,0,0,0-32.85-41.79l10.87-10.39v-1.2l-11.35,10.62A259.72,259.72,0,0,1,1027.06,251.29Z" transform="translate(-368.89 -126.42)"/><path class="cls-1" d="M983.1,318l14.25-7h0l-15,7c-2.17-5.07-4.59-10.15-7.25-15h0C978.27,307.32,980.69,312.63,983.1,318Z" transform="translate(-368.89 -126.42)"/><path class="cls-1" d="M840.84,297.42h0a126.27,126.27,0,0,0-20.29-7.49c2.9-8.21,5.56-16.42,8.21-24.15a100.43,100.43,0,0,1,18.12,6.52h0a193.72,193.72,0,0,0-18.6-8.21c-2.9,8.45-5.55,16.9-8.21,25.36A135.23,135.23,0,0,1,840.84,297.42Z" transform="translate(-368.89 -126.42)"/><path class="cls-1" d="M881.66,399.59h.48a100.92,100.92,0,0,0-16.9-48.31h0A99.46,99.46,0,0,1,881.66,399.59Z" transform="translate(-368.89 -126.42)"/><path class="cls-1" d="M865.24,539.68h0s6.76-4.83,9.9-7.49v-1.45a145,145,0,0,0,24.15-25.6h0a150.8,150.8,0,0,1-24.15,26.08l1.21,1.69Z" transform="translate(-368.89 -126.42)"/><path class="cls-1" d="M949.05,609l8,8.93a255.39,255.39,0,0,0,30.19-32.36h0a269.9,269.9,0,0,1-28.74,31.15l-7-8.21,8.22-8-10.15-10.63-1.21,1.45,9.42,10.15A35.48,35.48,0,0,1,949.05,609Z" transform="translate(-368.89 -126.42)"/></svg>