<svg id="Layer_1" data-name="Layer 1" xmlns="http://www.w3.org/2000/svg" viewBox="0 0 365.35 491.51"><defs><style>.cls-1{fill:#f2f2f2;}</style></defs><title>tech-2</title><path class="cls-1" d="M605.79,345l-42.51-24.15a236.7,236.7,0,0,1,80.91-89.61l-28.5-40.09a14.06,14.06,0,0,1,3.14-1.94l28.26,41.31a241.41,241.41,0,0,0-81.88,88.64c13.76,7.73,27.53,15.46,41.06,24.15a200.33,200.33,0,0,1,42.27-53.86l12.31,13.29a10.8,10.8,0,0,1-1.69,1.69c-3.86-4.35-8-8.46-12.07-12.56A196.5,196.5,0,0,0,605.79,345Z" transform="translate(-462.89 -168.42)"/><path class="cls-1" d="M618.34,192.32c-4.58,2.9-8.69,4.84-9.41,3.87s2.41-4.11,7-7.25,9.18-4.59,9.9-3.62S622.93,189.18,618.34,192.32Z" transform="translate(-462.89 -168.42)"/><path class="cls-1" d="M646.6,232.42c-3.86,2.66-7.48,4.11-8.21,3.14s1.93-3.62,6-6.28,7.73-3.87,8.21-2.9S650.47,230,646.6,232.42Z" transform="translate(-462.89 -168.42)"/><path class="cls-1" d="M660.85,303.91c-1.93,1.69-4.1,2.9-4.58,2.18s0-2.66,2.41-4.59,4.35-2.9,5.07-2.18S663,302,660.85,303.91Z" transform="translate(-462.89 -168.42)"/><path class="cls-1" d="M565.69,321.06c-1.93,3.62-4.35,6.28-5.31,5.8s0-3.87,1.93-7.73,4.59-6.52,5.31-5.8S567.62,317.2,565.69,321.06Z" transform="translate(-462.89 -168.42)"/><path class="cls-1" d="M608.93,344.73c-1.45,3.14-3.63,5.32-4.59,4.83s0-3.62,1.2-6.76,3.39-5.07,3.39-4.59Z" transform="translate(-462.89 -168.42)"/><path class="cls-1" d="M648.29,291.59c-1.69,1.45-3.38,2.42-3.86,1.94s0-2.18,2.17-3.87,3.63-2.41,3.87-1.93S650,289.9,648.29,291.59Z" transform="translate(-462.89 -168.42)"/><path class="cls-1" d="M687.66,417l-46.13-14.73a153.85,153.85,0,0,1,35.75-63.77l-36.23-33.57,1.69-1.69L679,337.49a155.76,155.76,0,0,0-36.23,63.28l44.68,14.73a113.2,113.2,0,0,1,15.7-32.61l14.74,10.63h0l-14.25-10.14A118,118,0,0,0,687.66,417Z" transform="translate(-462.89 -168.42)"/><path class="cls-1" d="M643.22,305.36c-2.41,2.66-4.83,4.11-5.79,3.38s0-3.38,2.89-6,5.08-3.87,6-3.14S645.64,303,643.22,305.36Z" transform="translate(-462.89 -168.42)"/><path class="cls-1" d="M679.45,339.18c-1.93,1.93-4.1,3.14-4.83,2.41s0-3.14,1.93-5.07,4.83-2.9,4.83-2.17A6.54,6.54,0,0,1,679.45,339.18Z" transform="translate(-462.89 -168.42)"/><path class="cls-1" d="M718.58,394.73s-1.93,1.45-2.66,0,0-1.69,0-2.9,2.18-1.45,2.9,0A2.66,2.66,0,0,1,718.58,394.73Z" transform="translate(-462.89 -168.42)"/><path class="cls-1" d="M643.71,402c0,2.41-1.94,4.34-3.14,4.1s-1.21-2.66,0-5.31,2.17-4.35,3.14-4.11S644.43,399.56,643.71,402Z" transform="translate(-462.89 -168.42)"/><path class="cls-1" d="M689.6,417c0,1.69-1.69,2.9-2.66,2.66s-1.45-1.93,0-3.87,1.93-2.9,2.9-2.65S690.08,415.26,689.6,417Z" transform="translate(-462.89 -168.42)"/><path class="cls-1" d="M704.09,384.83s-1.93,1.45-2.42,1.2,0-1.44,0-2.65,1.69-1.45,2.42,0S705.54,383.86,704.09,384.83Z" transform="translate(-462.89 -168.42)"/><path class="cls-1" d="M612.55,454.63H564.24a247.22,247.22,0,0,1,18.84-101.69l-44.44-21a9.16,9.16,0,0,0,1.21-2.66l44.92,22.23a244.7,244.7,0,0,0-19.56,101.2h46.61a205,205,0,0,1,7.25-57l17.39,5.55a4.8,4.8,0,0,0,0,1.69l-16.67-5.07A205.25,205.25,0,0,0,612.55,454.63Z" transform="translate(-462.89 -168.42)"/><path class="cls-1" d="M541.05,331.93c-1.69,4.11-3.86,7.25-4.83,6.76s.25-3.62.25-6.76,4.34-7.25,5.31-6.52S542.75,328.31,541.05,331.93Z" transform="translate(-462.89 -168.42)"/><path class="cls-1" d="M584.77,353.19c-1.45,3.38-3.38,5.79-4.35,5.55s0-3.62,0-7.24,3.63-5.8,4.59-5.32S587.19,349.8,584.77,353.19Z" transform="translate(-462.89 -168.42)"/><path class="cls-1" d="M637.43,402.46c0,2.17-1.69,3.62-2.66,3.38s0-2.17,0-4.35,1.93-3.62,2.66-3.38S637.91,400.28,637.43,402.46Z" transform="translate(-462.89 -168.42)"/><path class="cls-1" d="M566.42,452.7c0,3.86,0,7-1.7,6.76s-2.17-2.9-2.17-6.76,0-6.77,1.93-6.77S566.42,450,566.42,452.7Z" transform="translate(-462.89 -168.42)"/><path class="cls-1" d="M614.48,452.7c0,3.14,0,5.55-1.93,5.55s-1.93-2.41-2.18-5.55,0-5.56,2.18-5.56S614.24,450.77,614.48,452.7Z" transform="translate(-462.89 -168.42)"/><path class="cls-1" d="M620.52,397.87c0,1.93-1.45,3.14-2.18,2.9s0-1.69,0-3.63,1.45-3.14,2.18-2.89S621,396.18,620.52,397.87Z" transform="translate(-462.89 -168.42)"/><path class="cls-1" d="M534.77,630.71h0A331.8,331.8,0,0,1,501,558.25l-19.32,6.52a370.49,370.49,0,0,1,2.41-238.15L512.31,337A280.7,280.7,0,0,1,667.86,172.52h0A280.41,280.41,0,0,0,510.38,339.66L482.6,328.79a369.77,369.77,0,0,0-2.41,230.91l19.32-6.53A360.85,360.85,0,0,0,534.77,630.71Z" transform="translate(-462.89 -168.42)"/><path class="cls-1" d="M658.68,177.11a22.75,22.75,0,0,1,8.7-6c5.55-2.17,9.9-3.38,10.38-2.17s-3.62,3.38-8.93,5.55S659.16,178.07,658.68,177.11Z" transform="translate(-462.89 -168.42)"/><path class="cls-1" d="M508.69,346.18c-1.21,0,0-4.59,0-9.18s4.1-8,5.07-7.73,0,4.59-1.45,9.18S509.65,346.42,508.69,346.18Z" transform="translate(-462.89 -168.42)"/><path class="cls-1" d="M537.91,636a15.54,15.54,0,0,1-5.31-5.31c-2.17-3.63-3.14-6.77-2.41-7.49s3.14,2.17,5.07,5.8S538.64,635.54,537.91,636Z" transform="translate(-462.89 -168.42)"/><path class="cls-1" d="M480.67,335.8c-1.21,0,0-4.84,0-9.91S485,317,486,317.44s0,4.83-1.69,9.9S481.64,336.28,480.67,335.8Z" transform="translate(-462.89 -168.42)"/><path class="cls-1" d="M484.54,573.46c-1.21,0-3.39-3.62-5.08-8.69s-2.17-9.66,0-9.9,2.9,3.62,4.59,8.69S485.5,573.46,484.54,573.46Z" transform="translate(-462.89 -168.42)"/><path class="cls-1" d="M502.17,562.35a13.36,13.36,0,0,1-2.9-5.07c-1-3.14-1.21-5.8,0-5.8s1.93,1.94,2.9,5.08S502.89,562.11,502.17,562.35Z" transform="translate(-462.89 -168.42)"/><path class="cls-1" d="M664.72,544.72h0A167,167,0,0,1,647.09,507l-19.33,6.52a200.51,200.51,0,0,1,1.45-129.7l28,11.35a141.05,141.05,0,0,1,78.5-82.36h0a140.36,140.36,0,0,0-78.5,84.29l-27.77-10.86a200.39,200.39,0,0,0-1.21,125.35l19.32-6.28A180.55,180.55,0,0,0,664.72,544.72Z" transform="translate(-462.89 -168.42)"/><path class="cls-1" d="M729.69,315.27a8.62,8.62,0,0,1,3.87-3.87c2.65-1.21,5.31-1.21,5.55,0s-1.45,2.66-3.86,3.62S729.69,316.23,729.69,315.27Z" transform="translate(-462.89 -168.42)"/><path class="cls-1" d="M655.3,399.8c-1.21,0-1.21-2.66,0-4.83s2.41-3.86,3.38-3.62,1.21,2.65,0,5.07S657.23,400.28,655.3,399.8Z" transform="translate(-462.89 -168.42)"/><path class="cls-1" d="M666.17,547.62a4,4,0,0,1-3.38-2.42c-1.21-2.41-1.45-3.62,0-4.1s2.17,0,3.38,2.41S666.89,547.14,666.17,547.62Z" transform="translate(-462.89 -168.42)"/><path class="cls-1" d="M627.28,389.66c-1.21,0-1.21-2.9,0-5.8s2.9-4.59,3.87-4.35,0,3.14,0,5.8S628.25,389.9,627.28,389.66Z" transform="translate(-462.89 -168.42)"/><path class="cls-1" d="M629.21,518.39a7.5,7.5,0,0,1-3.38-4.34,13.9,13.9,0,0,1,0-5.8c0-.24,2.42,1.69,3.38,4.59S630.18,518.15,629.21,518.39Z" transform="translate(-462.89 -168.42)"/><path class="cls-1" d="M647.57,509.7s-1.45,0-1.93-2.42,0-3.14,0-3.14,1.45,0,1.93,2.42S648.29,509.46,647.57,509.7Z" transform="translate(-462.89 -168.42)"/><path class="cls-1" d="M692.25,650.51h0a213.43,213.43,0,0,1-45.65-34.29l-14.25,15a257.68,257.68,0,0,1-71.73-154.34l29.22-2.9a217.43,217.43,0,0,1,35.27-146.13h0a217.43,217.43,0,0,0-34.06,149l-29.22,3.38A257.23,257.23,0,0,0,630.9,629.74L645.4,615A196,196,0,0,0,692.25,650.51Z" transform="translate(-462.89 -168.42)"/><path class="cls-1" d="M622.21,333.62a14,14,0,0,1,1.69-6.28c1.69-2.9,4.35-4.59,5.31-3.86s0,3.38-1.93,6.28S623.18,334.35,622.21,333.62Z" transform="translate(-462.89 -168.42)"/><path class="cls-1" d="M591.78,481a13.76,13.76,0,0,1-2.66-6c-.48-3.38,0-6.28,1.45-6.28s2.17,2.66,2.41,5.8S593,480.72,591.78,481Z" transform="translate(-462.89 -168.42)"/><path class="cls-1" d="M696.12,652.93h-5.56c-2.65,0-4.34-3.38-3.86-4.11s2.9,0,5.55,1.21S696.6,652.2,696.12,652.93Z" transform="translate(-462.89 -168.42)"/><path class="cls-1" d="M562.07,484.82a14.66,14.66,0,0,1-2.9-7c-.48-4.11,0-7,1.45-7s2.17,3.14,2.41,6.77S563,484.58,562.07,484.82Z" transform="translate(-462.89 -168.42)"/><path class="cls-1" d="M637.18,636.26a8.42,8.42,0,0,1-6.28-3.62c-2.65-3.62-4.34-5.56-3.62-6.28s3.62,0,6.28,3.38S637.91,635.3,637.18,636.26Z" transform="translate(-462.89 -168.42)"/><path class="cls-1" d="M649,619.35a5.24,5.24,0,0,1-3.62-1.93c-1.69-1.93-2.42-3.38-1.94-3.86s2.18,0,3.63,1.93S649.5,618.87,649,619.35Z" transform="translate(-462.89 -168.42)"/><path class="cls-1" d="M722.69,541.34h0a122.05,122.05,0,0,1-18.84-24.15L686.94,528.3a150.44,150.44,0,0,1-21.25-94.44l29.22,3.86a101.2,101.2,0,0,1,34.78-66.42h0a101.93,101.93,0,0,0-34.78,69.08l-29.47-3.62a152.21,152.21,0,0,0,20.53,91L703.12,517A114.77,114.77,0,0,0,722.69,541.34Z" transform="translate(-462.89 -168.42)"/><path class="cls-1" d="M727.28,373.72v-3.63c0-1.2,3.14-1.45,3.86,0s0,2.42,0,3.63S728,374.44,727.28,373.72Z" transform="translate(-462.89 -168.42)"/><path class="cls-1" d="M694.67,442.79c-1.21,0-1.93-1.69-1.69-3.38s0-2.9,2.17-2.9,1.69,1.7,1.69,3.39S695.64,442.79,694.67,442.79Z" transform="translate(-462.89 -168.42)"/><path class="cls-1" d="M724.14,543.27a2.4,2.4,0,0,1-3.14,0c-1.21,0-1.45-2.41,0-3.14s1.93,0,3.14,0S724.62,542.55,724.14,543.27Z" transform="translate(-462.89 -168.42)"/><path class="cls-1" d="M665.2,439.65c-1.21,0-1.93-1.93-1.69-4.1s1.21-3.87,2.42-3.62,1.69,1.93,1.45,4.1S666.17,439.9,665.2,439.65Z" transform="translate(-462.89 -168.42)"/><path class="cls-1" d="M688.63,532.89a4.68,4.68,0,0,1-3.86-2.18c-1.21-2.17-1.21-3.86,0-4.59s2.41,0,3.62,2.42S689.6,532.4,688.63,532.89Z" transform="translate(-462.89 -168.42)"/><path class="cls-1" d="M705.54,520.33a2.72,2.72,0,0,1-2.18-1.21,2.63,2.63,0,0,1,0-2.42c0-.24,1.45,0,2.18,1.21A2.18,2.18,0,0,1,705.54,520.33Z" transform="translate(-462.89 -168.42)"/><path class="cls-1" d="M823.89,610.18h0a178.44,178.44,0,0,1-48.31,0L772,630.47a162.38,162.38,0,0,1-111.11-65.94L685,545.93a164,164,0,0,1-30.92-101.2h0A164.72,164.72,0,0,0,685,549.31l-24.16,18.6a161.83,161.83,0,0,0,107.25,64c1.44-6.76,2.65-13.52,3.86-20.28A180.79,180.79,0,0,0,823.89,610.18Z" transform="translate(-462.89 -168.42)"/><path class="cls-1" d="M652.64,450.52s-1.93-2.17-1.93-4.34,0-4.35,2.17-4.35,1.94,1.93,1.94,4.35S653.85,450.52,652.64,450.52Z" transform="translate(-462.89 -168.42)"/><path class="cls-1" d="M686.46,551a5.11,5.11,0,0,1-4.11-2.41c-1.45-2.42-1.93-3.87,0-4.59s2.66,0,4.11,2.41S687.42,549.31,686.46,551Z" transform="translate(-462.89 -168.42)"/><path class="cls-1" d="M828.24,609.94a9.79,9.79,0,0,1-4.83,2.41,13.05,13.05,0,0,1-4.83,0,8.28,8.28,0,0,1,4.58-2.17C825.82,609.94,828,609.21,828.24,609.94Z" transform="translate(-462.89 -168.42)"/><path class="cls-1" d="M663.75,570.08a6,6,0,0,1-4.83-2.9c-1.69-2.89-2.41-4.83-1.45-5.31s2.9,0,4.59,2.9S664.48,569.36,663.75,570.08Z" transform="translate(-462.89 -168.42)"/><path class="cls-1" d="M776.79,632.16a10.74,10.74,0,0,1-6.28,1.2c-3.38-.48-5.55-1.69-5.31-2.89s2.9-1.45,6,0S778,631,776.79,632.16Z" transform="translate(-462.89 -168.42)"/><path class="cls-1" d="M778,611.87h-3.62c-1.94,0-2.9,0-2.9-1.69s1.69,0,3.38,0S778,611.14,778,611.87Z" transform="translate(-462.89 -168.42)"/><path class="cls-1" d="M654.82,607h0a164.27,164.27,0,0,1-15.94-18.12l-7.25,6a239.3,239.3,0,0,1-33.82-61.59l11.12-4.83a231.84,231.84,0,0,1-13.29-65.46h0a230.52,230.52,0,0,0,13.77,66.42l-12.32,4.84a226.16,226.16,0,0,0,32.85,59.9l7.24-6A176.55,176.55,0,0,0,654.82,607Z" transform="translate(-462.89 -168.42)"/><path class="cls-1" d="M596.85,465.74v-2.66C596.85,465.74,597.33,465.74,596.85,465.74Z" transform="translate(-462.89 -168.42)"/><path class="cls-1" d="M611.1,531.2s-1.21,0-1.69-2.18a4.53,4.53,0,0,1,0-2.9c0-.24,1.21,0,1.69,2.42S611.58,531,611.1,531.2Z" transform="translate(-462.89 -168.42)"/><path class="cls-1" d="M656,608.73l-2.17-1.21c-2.17-1.21,0-1.69,0-2.17s0,0,1.93,1.2S657.23,608.24,656,608.73Z" transform="translate(-462.89 -168.42)"/><path class="cls-1" d="M598.78,536.27l-1.69-2.42c-1.69-2.41,0-2.65,0-2.9s1.21,0,1.69,2.42S599.26,536,598.78,536.27Z" transform="translate(-462.89 -168.42)"/><path class="cls-1" d="M633.08,597.62a3,3,0,0,1-2.42-1.69c-1-1.69-1.45-2.42-1.2-2.9s1.69,0,2.65,1.93A7.32,7.32,0,0,1,633.08,597.62Z" transform="translate(-462.89 -168.42)"/><path class="cls-1" d="M639.6,590.37h-1.45c-1.45,0,0-1.45,0-1.69s0,0,1.45,0S639.84,590.13,639.6,590.37Z" transform="translate(-462.89 -168.42)"/><path class="cls-1" d="M679,528.78h0a135.08,135.08,0,0,0,8.94,13.77l7.24-5.56a125.7,125.7,0,0,0,30.92,30l-7.73,11.35a139,139,0,0,0,46.13,19.81h0a130.77,130.77,0,0,1-46.61-20.29l7.73-11.11a128.12,128.12,0,0,1-30-29.47l-7.49,5.8A101.46,101.46,0,0,1,679,528.78Z" transform="translate(-462.89 -168.42)"/><path class="cls-1" d="M762.54,597.62h2.17c1,0,2.18,0,1.94,1.2s0,0-2.18,0S762.54,597.62,762.54,597.62Z" transform="translate(-462.89 -168.42)"/><path class="cls-1" d="M716.89,576.85h2.17c2.18,0,1.45,1.44,0,1.69s0,0-1.93,0S716.65,577.33,716.89,576.85Z" transform="translate(-462.89 -168.42)"/><path class="cls-1" d="M678.49,527.57h0v1.69h0S678.24,527.81,678.49,527.57Z" transform="translate(-462.89 -168.42)"/><path class="cls-1" d="M724.62,565.73a2,2,0,0,1,1.93,0s1.21,1.45,0,1.94a1.7,1.7,0,0,1-1.93,0A5.09,5.09,0,0,1,724.62,565.73Z" transform="translate(-462.89 -168.42)"/><path class="cls-1" d="M694.43,535.3h1.69c.48,0,0,1.69,0,1.93s0,0-1.69,0S693.94,535.78,694.43,535.3Z" transform="translate(-462.89 -168.42)"/><path class="cls-1" d="M687.42,541.58h0v1.21h-1.2C685,542.79,687.18,541.82,687.42,541.58Z" transform="translate(-462.89 -168.42)"/><path class="cls-1" d="M577,240.39h0a274.51,274.51,0,0,0-34.78,44.2l12.56,8.21a283.38,283.38,0,0,0-42.51,139.85L491.06,431A345.88,345.88,0,0,0,519.8,587h0a347.26,347.26,0,0,1-28.74-158.45l21,1.69a287.91,287.91,0,0,1,41.54-135.74l-12.56-8A273.2,273.2,0,0,1,577,240.39Z" transform="translate(-462.89 -168.42)"/><path class="cls-1" d="M517.38,581.19a18.36,18.36,0,0,1,3.87,5.32c1.45,3.14,1.93,6.28,1.45,6.52s-2.66-1.93-4.11-5.32S516.66,581.68,517.38,581.19Z" transform="translate(-462.89 -168.42)"/><path class="cls-1" d="M491.54,424.2a10.25,10.25,0,0,1,0,6.52c-1.21,3.38,0,6.28-1.69,6.28s-1.21-2.9-1.21-6.52S490.82,424.2,491.54,424.2Z" transform="translate(-462.89 -168.42)"/><path class="cls-1" d="M580.42,237.25s0,2.42-2.89,4.59-4.11,3.38-4.59,3.14,0-2.66,2.89-4.83S579.94,236.77,580.42,237.25Z" transform="translate(-462.89 -168.42)"/><path class="cls-1" d="M512.31,426.13v6.28c0,3.38,0,5.8-1.69,5.8s-1.21-2.9-1.21-6S512.31,426.13,512.31,426.13Z" transform="translate(-462.89 -168.42)"/><path class="cls-1" d="M558,288a11,11,0,0,1-1.93,5.8c-1.93,2.66-3.62,4.83-4.35,4.35s0-2.9,1.93-5.8S557.48,287.49,558,288Z" transform="translate(-462.89 -168.42)"/><path class="cls-1" d="M544.68,281.69a5.86,5.86,0,0,1-1.45,3.87c-1.21,1.93-2.42,3.14-2.9,2.89s0-1.93,1.45-3.86S544.19,281.45,544.68,281.69Z" transform="translate(-462.89 -168.42)"/><path class="cls-1" d="M604.34,555.11v1.45l-10.87,5.79A242.37,242.37,0,0,0,620,605.1l-26.57,22.23a270.64,270.64,0,0,1-40.82-72.46l-32.13,13.28v-2.42l32.61-12.8a277.33,277.33,0,0,0,40.1,72.46l26.08-21.25a230.86,230.86,0,0,1-26.33-43Z" transform="translate(-462.89 -168.42)"/><path class="cls-1" d="M521.49,565.25c1.21,3.14,1.69,6,0,6.28s-2.17-1.93-3.38-5.31-1.69-6,0-6.28S520.28,562.11,521.49,565.25Z" transform="translate(-462.89 -168.42)"/><path class="cls-1" d="M554.34,552.93c1.21,2.9,1.45,5.32,0,5.56s-2.18-1.69-3.38-4.59-1.21-5.31,0-5.56S553.37,549.31,554.34,552.93Z" transform="translate(-462.89 -168.42)"/><path class="cls-1" d="M605.54,555.35c0,1.93,1.21,3.62,0,3.86s-1.69,0-2.41-2.9-1.21-3.38,0-3.62S604.58,553.66,605.54,555.35Z" transform="translate(-462.89 -168.42)"/><path class="cls-1" d="M594.67,625.39c1.7,2.42,2.9,4.83,2.18,5.32s-2.66,0-4.35-3.38-2.9-4.84-2.17-5.32S592.74,623.22,594.67,625.39Z" transform="translate(-462.89 -168.42)"/><path class="cls-1" d="M621.24,603.41c1.45,2.18,2.42,4.11,1.94,4.83s-2.42,0-4.11-2.89-2.42-4.35-1.93-4.83S619.55,601.48,621.24,603.41Z" transform="translate(-462.89 -168.42)"/><path class="cls-1" d="M594.67,561.63v3.14c0,.24-1.2,0-1.93-2.42s0-2.9,0-2.9A5.72,5.72,0,0,1,594.67,561.63Z" transform="translate(-462.89 -168.42)"/><path class="cls-1" d="M716.17,581.19h0l-6.77,10.39A131.55,131.55,0,0,0,741.77,608l-12.08,33.09a177.42,177.42,0,0,1-54.83-31.4c-7.48,8.94-14.73,18.12-22.22,27.3l-1.45-1.21,22.71-27.54a173.82,173.82,0,0,0,55.79,31.65c4.11-10.39,8.46-20.78,12.32-31.4a141.54,141.54,0,0,1-32.37-16.67Z" transform="translate(-462.89 -168.42)"/><path class="cls-1" d="M653.61,635.3c1.93,1.69,3.14,3.38,2.66,4.1s-2.42,0-4.59-1.93-3.14-3.86-2.66-4.35S651.43,633.36,653.61,635.3Z" transform="translate(-462.89 -168.42)"/><path class="cls-1" d="M675.83,608c1.69,1.45,2.66,2.9,2.17,3.63s-2.17,0-3.86-1.45-2.66-3.14-2.42-3.87S674.14,606.55,675.83,608Z" transform="translate(-462.89 -168.42)"/><path class="cls-1" d="M717.13,580.47s1.93,1.93,1.45,2.41-1.45,0-2.66,0-1.93-1.93-1.69-2.65S715.92,579.74,717.13,580.47Z" transform="translate(-462.89 -168.42)"/><path class="cls-1" d="M729.69,639.4c2.18,0,3.87,1.93,3.62,2.66s-2.41,0-4.58,0-3.87-2.17-3.63-2.9S727.76,638.68,729.69,639.4Z" transform="translate(-462.89 -168.42)"/><path class="cls-1" d="M742.73,607c1.94,0,3.14,1.69,2.9,2.41s-2.17,0-3.86,0-3.38-1.93-2.9-2.65S740.8,606.55,742.73,607Z" transform="translate(-462.89 -168.42)"/><path class="cls-1" d="M710.37,591.34s1.69,1.45,1.45,1.93,0,0-2.42,0-1.45-1.45-1.21-1.93A1.93,1.93,0,0,1,710.37,591.34Z" transform="translate(-462.89 -168.42)"/><path class="cls-1" d="M741.77,339.18h0L736,328.31a143.23,143.23,0,0,0-28,18.11c-7.48-8.69-15.45-17.39-24.15-25.84a168.8,168.8,0,0,1,53.14-30.43l-13.05-30.68h1.94c4.34,10.87,8.45,21.74,12.8,32.85A169.1,169.1,0,0,0,685.25,322l22.46,25.6a132.7,132.7,0,0,1,28-18.11A44.21,44.21,0,0,1,741.77,339.18Z" transform="translate(-462.89 -168.42)"/><path class="cls-1" d="M725.34,259.47H720c-.24,0,1.69-2.17,4.35-3.14a8.8,8.8,0,0,1,5.31,0C729.93,256.33,728,259.47,725.34,259.47Z" transform="translate(-462.89 -168.42)"/><path class="cls-1" d="M738.15,291.84h-4.59c-.25,0,1.2-1.94,3.62-2.66a8.59,8.59,0,0,1,4.59,0C742,289.18,740.32,290.87,738.15,291.84Z" transform="translate(-462.89 -168.42)"/><path class="cls-1" d="M741.77,340.14h-2.66c-.24,0,0-1.45,1.69-2.17a2.88,2.88,0,0,1,2.66,0C743.7,338,743,339.66,741.77,340.14Z" transform="translate(-462.89 -168.42)"/><path class="cls-1" d="M684.52,322.27c-1.69,1.45-3.14,1.93-3.86,1.45s0-2.17,1.93-3.62,3.38-1.94,3.87-1.45S686.22,321.06,684.52,322.27Z" transform="translate(-462.89 -168.42)"/><path class="cls-1" d="M708.44,347.63s-2.66,1.45-3.14,0,0-1.93,0-3.14,2.89-1.45,3.38,0S709.64,346.42,708.44,347.63Z" transform="translate(-462.89 -168.42)"/><path class="cls-1" d="M735.49,329.27h-2.18c-.24,0,0-1.2,1.45-1.69a2.85,2.85,0,0,1,2.18,0C737.18,327.58,736.45,328.79,735.49,329.27Z" transform="translate(-462.89 -168.42)"/><path class="cls-1" d="M512.31,367.19h0l-5.07-1.44a261.07,261.07,0,0,0-5.8,27.29L487,390.38a345.57,345.57,0,0,1,9.66-41.54l-14-4.83h0l14.25,5.07a339.92,339.92,0,0,0-9.66,41.06L501,393c1.69-9.18,3.62-18.36,6-27.29Z" transform="translate(-462.89 -168.42)"/><path class="cls-1" d="M483.57,344.73a5.8,5.8,0,0,1-1.45,2.66v-3.14c0-1.69,0-2.66,1.45-2.42S484.05,343.28,483.57,344.73Z" transform="translate(-462.89 -168.42)"/><path class="cls-1" d="M497.58,349.56c0,1.45,0,2.66-1.45,2.66a7.55,7.55,0,0,1,0-3.14,2.75,2.75,0,0,1,1.45-2.42C497.82,346.66,498.06,348.11,497.58,349.56Z" transform="translate(-462.89 -168.42)"/><path class="cls-1" d="M512.31,367.92v1.93a3.82,3.82,0,0,1,0-2.41V365.5A3.85,3.85,0,0,1,512.31,367.92Z" transform="translate(-462.89 -168.42)"/><path class="cls-1" d="M488.16,390.86v0Z" transform="translate(-462.89 -168.42)"/><path class="cls-1" d="M502.17,393.76v-2.9A10.1,10.1,0,0,1,502.17,393.76Z" transform="translate(-462.89 -168.42)"/><path class="cls-1" d="M507.72,366.71V365A3.62,3.62,0,0,1,507.72,366.71Z" transform="translate(-462.89 -168.42)"/><path class="cls-1" d="M564.24,424.44h-5.07c0,7.24,0,15-1.21,22.46H543.47a269.44,269.44,0,0,1,2.17-34.3l-14.49-2.41h0l14.73,2.41a273.29,273.29,0,0,0-2.41,34.3h14c0-7.49,0-15,1.21-22.46Z" transform="translate(-462.89 -168.42)"/><path class="cls-1" d="M531.63,409.46v2.42a3.17,3.17,0,0,1,0-2.42v0Z" transform="translate(-462.89 -168.42)"/><path class="cls-1" d="M546.37,411.88v0Z" transform="translate(-462.89 -168.42)"/><path class="cls-1" d="M564.48,424.92v-1.69A3.61,3.61,0,0,1,564.48,424.92Z" transform="translate(-462.89 -168.42)"/><path class="cls-1" d="M543.71,446.18V444A5.52,5.52,0,0,1,543.71,446.18Z" transform="translate(-462.89 -168.42)"/><path class="cls-1" d="M558.44,446.66v0Z" transform="translate(-462.89 -168.42)"/><path class="cls-1" d="M559.41,424.44V423A5,5,0,0,1,559.41,424.44Z" transform="translate(-462.89 -168.42)"/><path class="cls-1" d="M657.23,360.19h0l-5.07-3.14a172.42,172.42,0,0,0-8.7,16.18l-15.21-7.73A168.31,168.31,0,0,1,643,340.14l-13.28-8.21h0l14,10.15A221.72,221.72,0,0,0,629,367.44l14.74,7.48a151.57,151.57,0,0,1,8.93-16.18Z" transform="translate(-462.89 -168.42)"/><path class="cls-1" d="M630.42,331.93s-1.21,1.45-1.69,0,0,0,0-2.17,1.45-1.45,1.69-1.21S631.15,330,630.42,331.93Z" transform="translate(-462.89 -168.42)"/><path class="cls-1" d="M644.43,340.87s-1.21,1.45-1.69,1.21,0-1.21,0-1.94a2.4,2.4,0,0,1,1.69-1.45A2.12,2.12,0,0,1,644.43,340.87Z" transform="translate(-462.89 -168.42)"/><path class="cls-1" d="M658.68,360.67h-1.21c-1.2,0,0,0,0-1.45a1.5,1.5,0,0,1,1.21,0A2.79,2.79,0,0,1,658.68,360.67Z" transform="translate(-462.89 -168.42)"/><path class="cls-1" d="M629.7,366s0,1.69-1.21,1.45,0,0,0-1.94,1.21-1.69,1.45-1.45S630.18,365,629.7,366Z" transform="translate(-462.89 -168.42)"/><path class="cls-1" d="M644.91,373.72s-1.2,1.45-1.45,0,0,0,0-1.94,0-1.45,1.45,0S645.4,372.75,644.91,373.72Z" transform="translate(-462.89 -168.42)"/><path class="cls-1" d="M653.37,357.53h0v-1.2h0S653.61,356.08,653.37,357.53Z" transform="translate(-462.89 -168.42)"/><path class="cls-1" d="M533.08,546.41h0c-2.41-7.73-4.83-15.7-6.76-24.15L519.56,524a334.2,334.2,0,0,1-9.18-71.25h10.14a299.84,299.84,0,0,1,6.53-68.84h0a304.37,304.37,0,0,0-6.53,69.56H510.38a327.63,327.63,0,0,0,8.69,68.6l6.77-1.69C528,530,530.43,538.2,533.08,546.41Z" transform="translate(-462.89 -168.42)"/><path class="cls-1" d="M526.56,387.72a5.26,5.26,0,0,1,0-2.89c0-1.45,0-2.66,1.21-2.42s0,1.21,0,2.66S527.05,387.72,526.56,387.72Z" transform="translate(-462.89 -168.42)"/><path class="cls-1" d="M520.77,456.56V453.9C520.77,455.6,521,456.56,520.77,456.56Z" transform="translate(-462.89 -168.42)"/><path class="cls-1" d="M533.57,549.31l-1.21-2.17c-1.21-2.18,0-2.18,0-2.18l1.21,1.94C534.77,548.83,533.81,549.31,533.57,549.31Z" transform="translate(-462.89 -168.42)"/><path class="cls-1" d="M510.62,456.8v-2.9C510.62,455.6,510.86,456.8,510.62,456.8Z" transform="translate(-462.89 -168.42)"/><path class="cls-1" d="M520,527.09a4.59,4.59,0,0,1-1.21-2.9v-2.9A4.31,4.31,0,0,1,520,524C520.52,525.16,520.52,526.85,520,527.09Z" transform="translate(-462.89 -168.42)"/><path class="cls-1" d="M526.56,525.16v-1.94C526.56,524.67,526.8,525.16,526.56,525.16Z" transform="translate(-462.89 -168.42)"/><path class="cls-1" d="M608.93,506.56h0c1.69,5.55,3.38,11.11,5.31,16.66l6.28-2.41a207.68,207.68,0,0,0,20.53,42.27l-8.45,5.79A191.15,191.15,0,0,0,664.24,607h0a196.57,196.57,0,0,1-31.16-38.65l8.21-5.8a206.45,206.45,0,0,1-19.56-41.06l-6.53,2.66A147.18,147.18,0,0,1,608.93,506.56Z" transform="translate(-462.89 -168.42)"/><path class="cls-1" d="M663,605.83H665c1.93,0,0,1.45,0,1.69s0,0-1.69,0S662.79,606.07,663,605.83Z" transform="translate(-462.89 -168.42)"/><path class="cls-1" d="M631.87,567.18l1.69,1.21c1.69,1.21,0,1.93,0,2.18s0,0-1.69-1.45S631.63,567.18,631.87,567.18Z" transform="translate(-462.89 -168.42)"/><path class="cls-1" d="M608.93,505.35v1.45a2,2,0,0,1,0,1.69v-3.14Z" transform="translate(-462.89 -168.42)"/><path class="cls-1" d="M640.32,561.39l1.7,1.2c1.69,1.21,0,1.94,0,1.94h-1.45C639.12,564.53,640.08,561.63,640.32,561.39Z" transform="translate(-462.89 -168.42)"/><path class="cls-1" d="M620.52,519.12a2.4,2.4,0,0,1,1.21,1.69v1.93c0,.24,0,0-1.21-1.45S620,519.36,620.52,519.12Z" transform="translate(-462.89 -168.42)"/><path class="cls-1" d="M614.24,522.26h0v.24C614.24,521.29,614,522.26,614.24,522.26Z" transform="translate(-462.89 -168.42)"/><path class="cls-1" d="M705.54,351.25h0a93.28,93.28,0,0,0-7,6.77l4.11,3.62a124.16,124.16,0,0,0-15.46,20.53l-6.76-4.35A117.73,117.73,0,0,0,668.83,402h0a114,114,0,0,1,11.59-24.16l6.76,4.11a107,107,0,0,1,15-19.81l-4.11-3.86Z" transform="translate(-462.89 -168.42)"/><path class="cls-1" d="M670.27,401.49h0v-1.21C670.27,399.08,669.79,401.49,670.27,401.49Z" transform="translate(-462.89 -168.42)"/><path class="cls-1" d="M681.38,377.1v1.21h0Z" transform="translate(-462.89 -168.42)"/><path class="cls-1" d="M707,350.77Z" transform="translate(-462.89 -168.42)"/><path class="cls-1" d="M688.63,381.45Z" transform="translate(-462.89 -168.42)"/><path class="cls-1" d="M704.09,361.16Z" transform="translate(-462.89 -168.42)"/><path class="cls-1" d="M700,357.77Z" transform="translate(-462.89 -168.42)"/><path class="cls-1" d="M659.65,259.47h0c-4.83,3.14-9.42,6.76-14,10.15l3.62,4.34a206.21,206.21,0,0,0-32.36,32.61l-6.28-5.07a211,211,0,0,0-24.16,39.37h0A222.62,222.62,0,0,1,610.62,301l6.28,4.84a215.42,215.42,0,0,1,31.39-31.65l-3.62-4.1C649.74,265.51,654.57,261.89,659.65,259.47Z" transform="translate(-462.89 -168.42)"/><path class="cls-1" d="M586.46,338.45v1.93a1.92,1.92,0,0,1-1.21,1.45V339.9C585.25,338,586.22,338.45,586.46,338.45Z" transform="translate(-462.89 -168.42)"/><path class="cls-1" d="M611.82,299.32V301c0,1.7-1.45,1.45-1.69,0s0,0,0-1.93S611.58,299.08,611.82,299.32Z" transform="translate(-462.89 -168.42)"/><path class="cls-1" d="M660.61,257.78V259l-3.38.48h1.93S660.61,257.54,660.61,257.78Z" transform="translate(-462.89 -168.42)"/><path class="cls-1" d="M618.1,304.4a6,6,0,0,1,0,1.69l-1.69,1.2v-1.93C616.41,304.64,617.86,304.15,618.1,304.4Z" transform="translate(-462.89 -168.42)"/><path class="cls-1" d="M650.71,272a4.32,4.32,0,0,1-1.21,1.69h-1.93c-.24,0,0,0,1.21-1.69S650.47,271.79,650.71,272Z" transform="translate(-462.89 -168.42)"/><path class="cls-1" d="M646.6,268.41Z" transform="translate(-462.89 -168.42)"/><path class="cls-1" d="M637.43,406.32h0q-1.7,7.24-2.9,14.49l6.76,1.21a199.83,199.83,0,0,0-1.93,39.86h-9.9a191.4,191.4,0,0,0,7.24,42h0a196.63,196.63,0,0,1-7.49-42.51h10.15a169.08,169.08,0,0,1,1.93-38.4l-6.76-1.45Q635.61,413.94,637.43,406.32Z" transform="translate(-462.89 -168.42)"/><path class="cls-1" d="M636.22,502.45v3.38L635,504.39A2.18,2.18,0,0,1,636.22,502.45Z" transform="translate(-462.89 -168.42)"/><path class="cls-1" d="M629.46,460.43v1.69C629.46,460.43,629,460.43,629.46,460.43Z" transform="translate(-462.89 -168.42)"/><path class="cls-1" d="M637.91,404.39v1.45h0v-1.45C637.91,402.94,637.67,404.39,637.91,404.39Z" transform="translate(-462.89 -168.42)"/><path class="cls-1" d="M639.36,459.94v1.69C639.36,459.94,639.12,459.94,639.36,459.94Z" transform="translate(-462.89 -168.42)"/><path class="cls-1" d="M641.77,420.57a2.86,2.86,0,0,1,0,1.69V422C641.77,420.33,641.29,420.57,641.77,420.57Z" transform="translate(-462.89 -168.42)"/><path class="cls-1" d="M634.77,419.85h0v-1.21A1.68,1.68,0,0,1,634.77,419.85Z" transform="translate(-462.89 -168.42)"/><path class="cls-1" d="M732.59,366.23h0L729,361.64a78,78,0,0,0-9.66,8.21L707.47,358a127.72,127.72,0,0,1,16.42-13.29c-3.38-4.59-6.52-9.18-9.9-13.52h0l9.9,13.76a124.82,124.82,0,0,0-16.18,13.29l11.35,11.59a82.66,82.66,0,0,1,9.67-8.45Z" transform="translate(-462.89 -168.42)"/><path class="cls-1" d="M714.23,331.93h-1.69c-.24,0,0,0,0-1.45s1.45,0,1.69,0S715,331.93,714.23,331.93Z" transform="translate(-462.89 -168.42)"/><path class="cls-1" d="M724.14,345.46h-1.69c-.25,0,0,0,0-1.45s1.44,0,1.69,0S724.62,345,724.14,345.46Z" transform="translate(-462.89 -168.42)"/><path class="cls-1" d="M732.59,366.71h1.21A1.42,1.42,0,0,1,732.59,366.71Z" transform="translate(-462.89 -168.42)"/><path class="cls-1" d="M707.71,358.5h-1.45c-.24,0,0,0,0-1.45s0,0,1.45,0S708.19,358,707.71,358.5Z" transform="translate(-462.89 -168.42)"/><path class="cls-1" d="M718.1,370.33h1.45c.24,0,.48-.48,0,0Z" transform="translate(-462.89 -168.42)"/><path class="cls-1" d="M729.69,361.88Z" transform="translate(-462.89 -168.42)"/><path class="cls-1" d="M546.37,555.83h0A303.55,303.55,0,0,1,541.05,358l28,10.14A223.66,223.66,0,0,1,680.9,237l-10.14-17.87a306.05,306.05,0,0,1,81.64-27.3h0a294,294,0,0,0-78.5,25.85c3.38,5.79,6.52,12.07,9.9,17.87a222.69,222.69,0,0,0-115,134.77l-28.26-9.9A301.39,301.39,0,0,0,546.37,555.83Z" transform="translate(-462.89 -168.42)"/><path class="cls-1" d="M543.23,549.31a17.44,17.44,0,0,1,4.59,6.76c1.45,4.11,2.17,7.49,0,8.22s-3.14-2.66-4.59-7S542.26,549.31,543.23,549.31Z" transform="translate(-462.89 -168.42)"/><path class="cls-1" d="M542.5,353.19v8.21c0,4.1-3.14,7.24-4.1,7s0-4.1,0-8.45S541.54,352.7,542.5,353.19Z" transform="translate(-462.89 -168.42)"/><path class="cls-1" d="M758.68,191.36a23.06,23.06,0,0,1-8,2.9,26.49,26.49,0,0,1-8.21,0,20.53,20.53,0,0,1,7.73-3.14C754.81,190.15,758.43,190.39,758.68,191.36Z" transform="translate(-462.89 -168.42)"/><path class="cls-1" d="M570.28,364.05v7.25c0,3.62-2.66,6.52-3.86,6.28s0-3.86,0-7.49S569.31,363.57,570.28,364.05Z" transform="translate(-462.89 -168.42)"/><path class="cls-1" d="M689.84,232.9a19.25,19.25,0,0,1-6.28,5.32c-3.87,1.93-7.49,2.89-8,1.93s1.93-3.38,5.79-4.83S689.36,231.94,689.84,232.9Z" transform="translate(-462.89 -168.42)"/><path class="cls-1" d="M677.76,216.24a15.52,15.52,0,0,1-4.35,3.62c-2.65,1.45-5.07,1.93-5.55,1.45s1.69-2.42,4.35-3.62S677.52,215.75,677.76,216.24Z" transform="translate(-462.89 -168.42)"/><path class="cls-1" d="M705.54,281.21l-24.16-43.72h0l24.16,44Z" transform="translate(-462.89 -168.42)"/><path class="cls-1" d="M708.44,283.62c-3.38,1.7-6.52,2.42-7.25,0s1.69-3.14,5.07-4.83,6.77-2.41,7.49-1.2S711.82,281.21,708.44,283.62Z" transform="translate(-462.89 -168.42)"/><path class="cls-1" d="M520.28,566.7h0a338.23,338.23,0,0,1-21-101.2,261.65,261.65,0,0,1-8-34.3h0a281.63,281.63,0,0,0,8,35A342.3,342.3,0,0,0,520.28,566.7Z" transform="translate(-462.89 -168.42)"/><path class="cls-1" d="M661.34,567.18l-4.83,3.87a204.28,204.28,0,0,1-28.75-55.31h0a195.39,195.39,0,0,0,29.47,54.1,32.3,32.3,0,0,1,4.59-3.38Z" transform="translate(-462.89 -168.42)"/><path class="cls-1" d="M553.37,553.42h0a303.49,303.49,0,0,1-16.9-74.15l24.15-2.42a5.69,5.69,0,0,0,0,1.93l-24.15,2.66A297.85,297.85,0,0,0,553.37,553.42Z" transform="translate(-462.89 -168.42)"/><path class="cls-1" d="M665.69,435.79h0c0-5.07,1.44-10.39,2.41-15.46l18.84,4.59c0-2.66,0-5.55,1.93-8.21h0l-2.17,9.18-18.84-4.59C666.89,426.37,666.17,431,665.69,435.79Z" transform="translate(-462.89 -168.42)"/><path class="cls-1" d="M651.43,506.08l-4.34,1.69v-1.21l4.1-1.45A175,175,0,0,1,642.74,445h10.39v1.21h-9.91A173.54,173.54,0,0,0,651.43,506.08Z" transform="translate(-462.89 -168.42)"/><path class="cls-1" d="M594.19,561.87h0a263.24,263.24,0,0,1-19.56-56.28l21.25-4.83a253.59,253.59,0,0,1-4.35-26.57h0a219.35,219.35,0,0,0,4.59,28l-21.25,5.07A248.16,248.16,0,0,0,594.19,561.87Z" transform="translate(-462.89 -168.42)"/><path class="cls-1" d="M614,506.8,609.65,508h0l3.86-1.21a215,215,0,0,1-6.76-43.23H607A220.5,220.5,0,0,0,614,506.8Z" transform="translate(-462.89 -168.42)"/><path class="cls-1" d="M483.81,326.62h0a273.85,273.85,0,0,1,11.35-27.54c6.28,3.38,12.8,6.52,19.33,9.66A285.18,285.18,0,0,1,617.38,190.39h0A284,284,0,0,0,514,311.16l-19.32-9.66A196,196,0,0,0,483.81,326.62Z" transform="translate(-462.89 -168.42)"/><path class="cls-1" d="M677.76,204.64c-4.83-9.9-9.9-19.8-15-29.95h1.93l14.49,29.71a325.31,325.31,0,0,1,69.56-21.25c0,3.38,1.21,6.76,1.93,10.14h-1.93c0-3.38,0-6.76-1.93-9.9A317.39,317.39,0,0,0,677.76,204.64Z" transform="translate(-462.89 -168.42)"/><path class="cls-1" d="M660.13,303h0a155.13,155.13,0,0,1,21.25-17.63l12.08,16.9a183.84,183.84,0,0,0-16.91,13l6,6.52h-1.21l-6.28-7a182.23,182.23,0,0,1,16.67-13l-10.39-15A151.82,151.82,0,0,0,660.13,303Z" transform="translate(-462.89 -168.42)"/><path class="cls-1" d="M714.47,296.43l-8.93-14.25h1.21l7.72,14a149.13,149.13,0,0,1,15.22-7.24v2.17h-.48v-2.17Z" transform="translate(-462.89 -168.42)"/><path class="cls-1" d="M555.06,293.29h0a268.92,268.92,0,0,1,32.85-41.79L577,241.11v-1.2l11.35,10.62A259.72,259.72,0,0,0,555.06,293.29Z" transform="translate(-462.89 -168.42)"/><path class="cls-1" d="M599,360l-14.25-7h0l15,7c2.17-5.07,4.59-10.15,7.24-15h0C603.85,349.32,601.44,354.63,599,360Z" transform="translate(-462.89 -168.42)"/><path class="cls-1" d="M741.28,339.42h0a126.63,126.63,0,0,1,20.29-7.49c-2.89-8.21-5.55-16.42-8.21-24.15a100.33,100.33,0,0,0-18.11,6.52h0a194.65,194.65,0,0,1,18.59-8.21c2.9,8.45,5.56,16.9,8.22,25.36A135.74,135.74,0,0,0,741.28,339.42Z" transform="translate(-462.89 -168.42)"/><path class="cls-1" d="M700.47,441.59H700a101,101,0,0,1,16.91-48.31h0A99.46,99.46,0,0,0,700.47,441.59Z" transform="translate(-462.89 -168.42)"/><path class="cls-1" d="M716.89,581.68h0s-6.76-4.83-9.9-7.49v-1.45a145.42,145.42,0,0,1-24.16-25.6h0A151.25,151.25,0,0,0,707,573.22l-1.21,1.69Z" transform="translate(-462.89 -168.42)"/><path class="cls-1" d="M633.08,651l-8,8.93a254.67,254.67,0,0,1-30.19-32.36h0a268.13,268.13,0,0,0,28.74,31.15l7-8.21-8.21-8,10.15-10.63,1.2,1.45-9.42,10.15A35.56,35.56,0,0,0,633.08,651Z" transform="translate(-462.89 -168.42)"/></svg>