<svg id="Layer_1" data-name="Layer 1" xmlns="http://www.w3.org/2000/svg" viewBox="0 0 15.13 20.36"><defs><style>.cls-1{fill:#f2f2f2;}</style></defs><title>tech</title><path class="cls-1" d="M17.13,9.54l1.76-1a9.8,9.8,0,0,0-3.35-3.71l1.18-1.66a.57.57,0,0,0-.13-.08L15.42,4.8a10,10,0,0,1,3.39,3.67c-.57.32-1.14.64-1.7,1a8.3,8.3,0,0,0-1.75-2.23l-.51.55a.46.46,0,0,0,.07.07c.16-.18.33-.35.5-.52A8.14,8.14,0,0,1,17.13,9.54Z" transform="translate(-7.92 -2.23)"/><path class="cls-1" d="M16.61,3.22c.19.12.36.2.39.16s-.1-.17-.29-.3-.38-.19-.41-.15S16.42,3.09,16.61,3.22Z" transform="translate(-7.92 -2.23)"/><path class="cls-1" d="M15.44,4.88c.16.11.31.17.34.13s-.08-.15-.25-.26-.32-.16-.34-.12S15.28,4.78,15.44,4.88Z" transform="translate(-7.92 -2.23)"/><path class="cls-1" d="M14.85,7.84c.08.07.17.12.19.09s0-.11-.1-.19-.18-.12-.21-.09S14.76,7.76,14.85,7.84Z" transform="translate(-7.92 -2.23)"/><path class="cls-1" d="M18.79,8.55c.08.15.18.26.22.24s0-.16-.08-.32-.19-.27-.22-.24S18.71,8.39,18.79,8.55Z" transform="translate(-7.92 -2.23)"/><path class="cls-1" d="M17,9.53c.06.13.15.22.19.2s0-.15-.05-.28S17,9.24,17,9.26,17,9.4,17,9.53Z" transform="translate(-7.92 -2.23)"/><path class="cls-1" d="M15.37,7.33c.07.06.14.1.16.08s0-.09-.09-.16-.15-.1-.16-.08S15.3,7.26,15.37,7.33Z" transform="translate(-7.92 -2.23)"/><path class="cls-1" d="M13.74,12.52l1.91-.61a6.37,6.37,0,0,0-1.48-2.64l1.5-1.39-.07-.07L14.1,9.23a6.45,6.45,0,0,1,1.5,2.62l-1.85.61a4.67,4.67,0,0,0-.65-1.35l-.61.44,0,0,.59-.42A4.89,4.89,0,0,1,13.74,12.52Z" transform="translate(-7.92 -2.23)"/><path class="cls-1" d="M15.58,7.9c.1.11.2.17.24.14s0-.14-.12-.25-.21-.16-.25-.13S15.48,7.8,15.58,7.9Z" transform="translate(-7.92 -2.23)"/><path class="cls-1" d="M14.08,9.3c.08.08.17.13.2.1s0-.13-.08-.21S14,9.07,14,9.1,14,9.22,14.08,9.3Z" transform="translate(-7.92 -2.23)"/><path class="cls-1" d="M12.46,11.6s.08.06.11,0,0-.07,0-.12-.09-.06-.12,0A.11.11,0,0,0,12.46,11.6Z" transform="translate(-7.92 -2.23)"/><path class="cls-1" d="M15.56,11.9c0,.1.08.18.13.17s.05-.11,0-.22-.09-.18-.13-.17S15.53,11.8,15.56,11.9Z" transform="translate(-7.92 -2.23)"/><path class="cls-1" d="M13.66,12.52c0,.07.07.12.11.11s.06-.08,0-.16-.08-.12-.12-.11S13.64,12.45,13.66,12.52Z" transform="translate(-7.92 -2.23)"/><path class="cls-1" d="M13.06,11.19s.08.06.1.05,0-.06,0-.11-.07-.06-.1,0S13,11.15,13.06,11.19Z" transform="translate(-7.92 -2.23)"/><path class="cls-1" d="M16.85,14.08l2,0a10.23,10.23,0,0,0-.78-4.21L19.91,9a.37.37,0,0,1-.05-.11L18,9.81A10.13,10.13,0,0,1,18.81,14H16.88a8.49,8.49,0,0,0-.3-2.36l-.72.23a.19.19,0,0,1,0,.07l.69-.21A8.5,8.5,0,0,1,16.85,14.08Z" transform="translate(-7.92 -2.23)"/><path class="cls-1" d="M19.81,9c.07.17.16.3.2.28S20,9.13,20,9s-.18-.3-.22-.27S19.74,8.85,19.81,9Z" transform="translate(-7.92 -2.23)"/><path class="cls-1" d="M18,9.88c.06.14.14.24.18.23s0-.15,0-.3-.15-.24-.19-.22S17.9,9.74,18,9.88Z" transform="translate(-7.92 -2.23)"/><path class="cls-1" d="M15.82,11.92c0,.09.07.15.11.14s0-.09,0-.18-.08-.15-.11-.14S15.8,11.83,15.82,11.92Z" transform="translate(-7.92 -2.23)"/><path class="cls-1" d="M18.76,14c0,.16,0,.29.07.28s.09-.12.09-.28,0-.28-.08-.28S18.76,13.89,18.76,14Z" transform="translate(-7.92 -2.23)"/><path class="cls-1" d="M16.77,14c0,.13,0,.23.08.23s.08-.1.09-.23,0-.23-.09-.23S16.78,13.92,16.77,14Z" transform="translate(-7.92 -2.23)"/><path class="cls-1" d="M16.52,11.73c0,.08.06.13.09.12s0-.07,0-.15-.06-.13-.09-.12S16.5,11.66,16.52,11.73Z" transform="translate(-7.92 -2.23)"/><path class="cls-1" d="M20.07,21.37h0a13.72,13.72,0,0,0,1.4-3l.8.27a15.34,15.34,0,0,0-.1-9.86L21,9.21A11.62,11.62,0,0,0,14.56,2.4l0,0a11.61,11.61,0,0,1,6.52,6.92l1.15-.45a15.31,15.31,0,0,1,.1,9.56l-.8-.27A14.92,14.92,0,0,1,20.07,21.37Z" transform="translate(-7.92 -2.23)"/><path class="cls-1" d="M14.94,2.59s-.13-.16-.36-.25-.41-.14-.43-.09.15.14.37.23S14.92,2.63,14.94,2.59Z" transform="translate(-7.92 -2.23)"/><path class="cls-1" d="M21.15,9.59c.05,0,0-.19,0-.38s-.17-.33-.21-.32,0,.19.06.38S21.11,9.6,21.15,9.59Z" transform="translate(-7.92 -2.23)"/><path class="cls-1" d="M19.94,21.59s.13-.07.22-.22.13-.28.1-.31-.13.09-.21.24S19.91,21.57,19.94,21.59Z" transform="translate(-7.92 -2.23)"/><path class="cls-1" d="M22.31,9.16c.05,0,0-.2,0-.41s-.18-.37-.22-.35,0,.2.07.41S22.27,9.18,22.31,9.16Z" transform="translate(-7.92 -2.23)"/><path class="cls-1" d="M22.15,19c.05,0,.14-.15.21-.36s.09-.4,0-.41-.12.15-.19.36S22.11,19,22.15,19Z" transform="translate(-7.92 -2.23)"/><path class="cls-1" d="M21.42,18.54s.08-.08.12-.21.05-.24,0-.24-.08.08-.12.21S21.39,18.53,21.42,18.54Z" transform="translate(-7.92 -2.23)"/><path class="cls-1" d="M14.69,17.81h0a6.93,6.93,0,0,0,.73-1.56l.8.27a8.3,8.3,0,0,0-.06-5.37L15,11.62a5.84,5.84,0,0,0-3.25-3.41v0A5.81,5.81,0,0,1,15,11.7l1.15-.45a8.3,8.3,0,0,1,.05,5.19l-.8-.26A7.49,7.49,0,0,1,14.69,17.81Z" transform="translate(-7.92 -2.23)"/><path class="cls-1" d="M12,8.31s-.05-.11-.16-.16-.22-.05-.23,0,.06.11.16.15S12,8.35,12,8.31Z" transform="translate(-7.92 -2.23)"/><path class="cls-1" d="M15.08,11.81c.05,0,.05-.11,0-.2s-.1-.16-.14-.15-.05.11,0,.21S15,11.83,15.08,11.81Z" transform="translate(-7.92 -2.23)"/><path class="cls-1" d="M14.63,17.93s.09,0,.14-.1.06-.15,0-.17-.09,0-.14.1S14.6,17.91,14.63,17.93Z" transform="translate(-7.92 -2.23)"/><path class="cls-1" d="M16.24,11.39c.05,0,.05-.12,0-.24s-.12-.19-.16-.18,0,.13,0,.24S16.2,11.4,16.24,11.39Z" transform="translate(-7.92 -2.23)"/><path class="cls-1" d="M16.16,16.72s.11-.06.14-.18,0-.23,0-.24-.1.07-.14.19S16.12,16.71,16.16,16.72Z" transform="translate(-7.92 -2.23)"/><path class="cls-1" d="M15.4,16.36s.06,0,.08-.1,0-.13,0-.13-.06,0-.08.1S15.37,16.35,15.4,16.36Z" transform="translate(-7.92 -2.23)"/><path class="cls-1" d="M13.55,22.19v0a8.83,8.83,0,0,0,1.89-1.42l.59.62A10.67,10.67,0,0,0,19,15l-1.21-.12a9,9,0,0,0-1.46-6.05l0,0A9,9,0,0,1,17.74,15l1.21.14a10.65,10.65,0,0,1-2.86,6.19l-.6-.61A8.11,8.11,0,0,1,13.55,22.19Z" transform="translate(-7.92 -2.23)"/><path class="cls-1" d="M16.45,9.07s0-.14-.07-.26-.18-.19-.22-.16,0,.14.08.26S16.41,9.1,16.45,9.07Z" transform="translate(-7.92 -2.23)"/><path class="cls-1" d="M17.71,15.17s.09-.11.11-.25,0-.26-.06-.26-.09.11-.1.24S17.66,15.16,17.71,15.17Z" transform="translate(-7.92 -2.23)"/><path class="cls-1" d="M13.39,22.29s.12,0,.23,0,.18-.14.16-.17-.12,0-.23.05S13.37,22.26,13.39,22.29Z" transform="translate(-7.92 -2.23)"/><path class="cls-1" d="M18.94,15.33s.1-.12.12-.29,0-.29-.06-.29-.09.13-.1.28S18.9,15.32,18.94,15.33Z" transform="translate(-7.92 -2.23)"/><path class="cls-1" d="M15.83,21.6s.15,0,.26-.15.18-.23.15-.26-.15,0-.26.14S15.8,21.56,15.83,21.6Z" transform="translate(-7.92 -2.23)"/><path class="cls-1" d="M15.34,20.9s.08,0,.15-.08.1-.14.08-.16-.09,0-.15.08S15.32,20.88,15.34,20.9Z" transform="translate(-7.92 -2.23)"/><path class="cls-1" d="M12.29,17.67l0,0a5.06,5.06,0,0,0,.78-1l.7.46a6.23,6.23,0,0,0,.88-3.91l-1.21.16A4.19,4.19,0,0,0,12,10.63l0,0a4.22,4.22,0,0,1,1.44,2.86l1.22-.15a6.3,6.3,0,0,1-.85,3.77l-.71-.45A4.76,4.76,0,0,1,12.29,17.67Z" transform="translate(-7.92 -2.23)"/><path class="cls-1" d="M12.1,10.73s0-.1,0-.15-.13-.06-.16,0,0,.1,0,.15S12.07,10.76,12.1,10.73Z" transform="translate(-7.92 -2.23)"/><path class="cls-1" d="M13.45,13.59c.05,0,.08-.07.07-.14s0-.12-.09-.12-.07.07-.07.14S13.41,13.59,13.45,13.59Z" transform="translate(-7.92 -2.23)"/><path class="cls-1" d="M12.23,17.75a.1.1,0,0,0,.13,0c.05,0,.06-.1,0-.13s-.08,0-.13,0S12.21,17.72,12.23,17.75Z" transform="translate(-7.92 -2.23)"/><path class="cls-1" d="M14.67,13.46c.05,0,.08-.08.07-.17s-.05-.16-.1-.15-.07.08-.06.17S14.63,13.47,14.67,13.46Z" transform="translate(-7.92 -2.23)"/><path class="cls-1" d="M13.7,17.32s.11,0,.16-.09.05-.16,0-.19-.1,0-.15.1S13.66,17.3,13.7,17.32Z" transform="translate(-7.92 -2.23)"/><path class="cls-1" d="M13,16.8s.06,0,.09-.05,0-.09,0-.1-.06,0-.09.05A.09.09,0,0,0,13,16.8Z" transform="translate(-7.92 -2.23)"/><path class="cls-1" d="M8.1,20.52v0a7.39,7.39,0,0,0,2,0l.15.84a6.72,6.72,0,0,0,4.6-2.73l-1-.77a6.79,6.79,0,0,0,1.28-4.19h0A6.82,6.82,0,0,1,13.85,18l1,.77a6.7,6.7,0,0,1-4.44,2.65c-.06-.28-.11-.56-.16-.84A7.48,7.48,0,0,1,8.1,20.52Z" transform="translate(-7.92 -2.23)"/><path class="cls-1" d="M15.19,13.91s.08-.09.08-.18,0-.18-.09-.18-.08.08-.08.18S15.14,13.91,15.19,13.91Z" transform="translate(-7.92 -2.23)"/><path class="cls-1" d="M13.79,18.07s.11,0,.17-.1.08-.16,0-.19-.11,0-.17.1S13.75,18,13.79,18.07Z" transform="translate(-7.92 -2.23)"/><path class="cls-1" d="M7.92,20.51s.08.08.2.1.2,0,.2,0-.08-.08-.19-.09S7.93,20.48,7.92,20.51Z" transform="translate(-7.92 -2.23)"/><path class="cls-1" d="M14.73,18.86s.13,0,.2-.12.1-.2.06-.22-.12,0-.19.12S14.7,18.83,14.73,18.86Z" transform="translate(-7.92 -2.23)"/><path class="cls-1" d="M10.05,21.43s.12.07.26.05.23-.07.22-.12-.12-.06-.25,0S10,21.38,10.05,21.43Z" transform="translate(-7.92 -2.23)"/><path class="cls-1" d="M10,20.59s.07,0,.15,0,.12,0,.12-.07-.07,0-.14,0S10,20.56,10,20.59Z" transform="translate(-7.92 -2.23)"/><path class="cls-1" d="M15.1,20.39h0a6.81,6.81,0,0,0,.66-.75l.3.25a9.9,9.9,0,0,0,1.4-2.55L17,17.14a9.61,9.61,0,0,0,.55-2.71h0a9.56,9.56,0,0,1-.57,2.75l.51.2a9.36,9.36,0,0,1-1.36,2.48l-.3-.25A7.31,7.31,0,0,1,15.1,20.39Z" transform="translate(-7.92 -2.23)"/><path class="cls-1" d="M17.5,14.54s0,0,0-.11,0-.11,0-.11,0,0,0,.11S17.48,14.54,17.5,14.54Z" transform="translate(-7.92 -2.23)"/><path class="cls-1" d="M16.91,17.25s.05,0,.07-.09,0-.11,0-.12-.05,0-.07.1S16.89,17.24,16.91,17.25Z" transform="translate(-7.92 -2.23)"/><path class="cls-1" d="M15.05,20.46s0,0,.09-.05,0-.07,0-.09,0,0-.08.05S15,20.44,15.05,20.46Z" transform="translate(-7.92 -2.23)"/><path class="cls-1" d="M17.42,17.46s0,0,.07-.1,0-.11,0-.12-.05,0-.07.1S17.4,17.45,17.42,17.46Z" transform="translate(-7.92 -2.23)"/><path class="cls-1" d="M16,20s.06,0,.1-.07.06-.1.05-.12-.07,0-.11.08S16,20,16,20Z" transform="translate(-7.92 -2.23)"/><path class="cls-1" d="M15.73,19.7s0,0,.06,0,0-.06,0-.07,0,0-.06,0S15.72,19.69,15.73,19.7Z" transform="translate(-7.92 -2.23)"/><path class="cls-1" d="M14.1,17.15h0a5.57,5.57,0,0,1-.37.57l-.3-.23a5.2,5.2,0,0,1-1.28,1.24l.32.47a5.76,5.76,0,0,1-1.91.82h0a5.42,5.42,0,0,0,1.93-.84l-.32-.46a5.32,5.32,0,0,0,1.24-1.22l.31.24C13.86,17.55,14,17.35,14.1,17.15Z" transform="translate(-7.92 -2.23)"/><path class="cls-1" d="M10.64,20s-.05,0-.09,0-.09,0-.08.05,0,0,.09,0S10.64,20,10.64,20Z" transform="translate(-7.92 -2.23)"/><path class="cls-1" d="M12.53,19.14s0,0-.09,0-.06.06,0,.07,0,0,.08,0S12.54,19.16,12.53,19.14Z" transform="translate(-7.92 -2.23)"/><path class="cls-1" d="M14.12,17.1s0,0,0,0,0,.06,0,.07a.05.05,0,0,0,0,0S14.13,17.11,14.12,17.1Z" transform="translate(-7.92 -2.23)"/><path class="cls-1" d="M12.21,18.68a.08.08,0,0,0-.08,0s-.05.06,0,.08a.07.07,0,0,0,.08,0S12.22,18.7,12.21,18.68Z" transform="translate(-7.92 -2.23)"/><path class="cls-1" d="M13.46,17.42s-.05,0-.07,0,0,.07,0,.08,0,0,.07,0S13.48,17.44,13.46,17.42Z" transform="translate(-7.92 -2.23)"/><path class="cls-1" d="M13.75,17.68s0,0,0,0,0,.05,0,.05,0,0,.05,0S13.76,17.69,13.75,17.68Z" transform="translate(-7.92 -2.23)"/><path class="cls-1" d="M18.32,5.21h0a11.36,11.36,0,0,1,1.44,1.83l-.52.34A11.73,11.73,0,0,1,21,13.17l.88-.07a14.32,14.32,0,0,1-1.19,6.46h0A14.38,14.38,0,0,0,21.88,13l-.87.07a11.92,11.92,0,0,0-1.72-5.62l.52-.33A11.3,11.3,0,0,0,18.32,5.21Z" transform="translate(-7.92 -2.23)"/><path class="cls-1" d="M20.79,19.32s-.1.09-.16.22-.08.26-.06.27.11-.08.17-.22S20.82,19.34,20.79,19.32Z" transform="translate(-7.92 -2.23)"/><path class="cls-1" d="M21.86,12.82s-.05.13,0,.27,0,.26.07.26.05-.12.05-.27S21.89,12.82,21.86,12.82Z" transform="translate(-7.92 -2.23)"/><path class="cls-1" d="M18.18,5.08s0,.1.12.19.17.14.19.13,0-.11-.12-.2S18.2,5.06,18.18,5.08Z" transform="translate(-7.92 -2.23)"/><path class="cls-1" d="M21,12.9s0,.12,0,.26,0,.24.07.24.05-.12.05-.25S21,12.9,21,12.9Z" transform="translate(-7.92 -2.23)"/><path class="cls-1" d="M19.11,7.18s0,.13.08.24.15.2.18.18,0-.12-.08-.24S19.13,7.16,19.11,7.18Z" transform="translate(-7.92 -2.23)"/><path class="cls-1" d="M19.66,6.92a.24.24,0,0,0,.06.16c.05.08.1.13.12.12s0-.08-.06-.16S19.68,6.91,19.66,6.92Z" transform="translate(-7.92 -2.23)"/><path class="cls-1" d="M17.19,18.24l0,.06.45.24a10.07,10.07,0,0,1-1.1,1.77l1.1.92a11.21,11.21,0,0,0,1.69-3l1.33.55,0-.1-1.35-.53a11.49,11.49,0,0,1-1.66,3l-1.08-.88a9.54,9.54,0,0,0,1.09-1.78Z" transform="translate(-7.92 -2.23)"/><path class="cls-1" d="M20.62,18.66c-.05.13-.07.25,0,.26s.09-.08.14-.22.07-.25,0-.26S20.67,18.53,20.62,18.66Z" transform="translate(-7.92 -2.23)"/><path class="cls-1" d="M19.26,18.15c-.05.12-.06.22,0,.23s.09-.07.14-.19.05-.22,0-.23S19.3,18,19.26,18.15Z" transform="translate(-7.92 -2.23)"/><path class="cls-1" d="M17.14,18.25c0,.08-.05.15,0,.16s.07,0,.1-.12.05-.14,0-.15S17.18,18.18,17.14,18.25Z" transform="translate(-7.92 -2.23)"/><path class="cls-1" d="M17.59,21.15c-.07.1-.12.2-.09.22s.11,0,.18-.14.12-.2.09-.22S17.67,21.06,17.59,21.15Z" transform="translate(-7.92 -2.23)"/><path class="cls-1" d="M16.49,20.24c-.06.09-.1.17-.08.2s.1,0,.17-.12.1-.18.08-.2S16.56,20.16,16.49,20.24Z" transform="translate(-7.92 -2.23)"/><path class="cls-1" d="M17.59,18.51c0,.06,0,.12,0,.13s.05,0,.08-.1,0-.12,0-.12S17.62,18.45,17.59,18.51Z" transform="translate(-7.92 -2.23)"/><path class="cls-1" d="M12.56,19.32l0,0,.28.43a5.45,5.45,0,0,1-1.34.68L12,21.8a7.35,7.35,0,0,0,2.27-1.3c.31.37.61.75.92,1.13l.06-.05-.94-1.14A7.19,7.19,0,0,1,12,21.75c-.17-.43-.35-.86-.51-1.3a5.86,5.86,0,0,0,1.34-.69Z" transform="translate(-7.92 -2.23)"/><path class="cls-1" d="M15.15,21.56c-.08.07-.13.14-.11.17s.1,0,.19-.08.13-.16.11-.18S15.24,21.48,15.15,21.56Z" transform="translate(-7.92 -2.23)"/><path class="cls-1" d="M14.23,20.43c-.07.06-.11.12-.09.15s.09,0,.16-.06.11-.13.1-.16S14.3,20.37,14.23,20.43Z" transform="translate(-7.92 -2.23)"/><path class="cls-1" d="M12.52,19.29s-.08.08-.06.1.06,0,.11,0,.08-.08.07-.11S12.57,19.26,12.52,19.29Z" transform="translate(-7.92 -2.23)"/><path class="cls-1" d="M12,21.73c-.09,0-.16.08-.15.11s.1,0,.19,0,.16-.09.15-.12S12.08,21.7,12,21.73Z" transform="translate(-7.92 -2.23)"/><path class="cls-1" d="M11.46,20.39c-.08,0-.13.07-.12.1s.09,0,.16,0,.14-.08.12-.11S11.54,20.37,11.46,20.39Z" transform="translate(-7.92 -2.23)"/><path class="cls-1" d="M12.8,19.74s-.07.06-.06.08,0,0,.1,0,.06-.06.05-.08A.08.08,0,0,0,12.8,19.74Z" transform="translate(-7.92 -2.23)"/><path class="cls-1" d="M11.5,9.3l0,0,.24-.45a5.93,5.93,0,0,1,1.16.75c.31-.36.64-.72,1-1.07a7,7,0,0,0-2.2-1.26L12.24,6l-.08,0c-.18.45-.35.9-.53,1.36a7,7,0,0,1,2.21,1.23l-.93,1.06a5.5,5.5,0,0,0-1.16-.75C11.66,9,11.58,9.14,11.5,9.3Z" transform="translate(-7.92 -2.23)"/><path class="cls-1" d="M12.18,6c.11,0,.21,0,.22,0s-.07-.09-.18-.13-.21,0-.22,0S12.07,6,12.18,6Z" transform="translate(-7.92 -2.23)"/><path class="cls-1" d="M11.65,7.34c.09,0,.18,0,.19,0s-.05-.08-.15-.11-.18,0-.19,0S11.56,7.3,11.65,7.34Z" transform="translate(-7.92 -2.23)"/><path class="cls-1" d="M11.5,9.34c.05,0,.1,0,.11,0s0-.06-.07-.09-.1,0-.11,0S11.45,9.32,11.5,9.34Z" transform="translate(-7.92 -2.23)"/><path class="cls-1" d="M13.87,8.6c.07.06.13.08.16.06s0-.09-.08-.15-.14-.08-.16-.06S13.8,8.55,13.87,8.6Z" transform="translate(-7.92 -2.23)"/><path class="cls-1" d="M12.88,9.65s.11.06.13,0,0-.08,0-.13-.12-.06-.14,0S12.83,9.6,12.88,9.65Z" transform="translate(-7.92 -2.23)"/><path class="cls-1" d="M11.76,8.89s.08,0,.09,0,0-.05-.06-.07-.08,0-.09,0S11.72,8.87,11.76,8.89Z" transform="translate(-7.92 -2.23)"/><path class="cls-1" d="M21,10.46a.08.08,0,0,1,0,0l.21-.06a10.8,10.8,0,0,1,.24,1.13l.6-.11a14.31,14.31,0,0,0-.4-1.72l.58-.2v0l-.59.21a14,14,0,0,1,.4,1.7l-.57.12c-.07-.38-.15-.76-.25-1.13Z" transform="translate(-7.92 -2.23)"/><path class="cls-1" d="M22.19,9.53a.24.24,0,0,0,.06.11s0-.06,0-.13,0-.11-.06-.1S22.17,9.47,22.19,9.53Z" transform="translate(-7.92 -2.23)"/><path class="cls-1" d="M21.61,9.73c0,.06,0,.11.06.11a.32.32,0,0,0,0-.13c0-.06-.05-.1-.06-.1S21.59,9.67,21.61,9.73Z" transform="translate(-7.92 -2.23)"/><path class="cls-1" d="M21,10.49s0,.08,0,.08a.16.16,0,0,0,0-.1s0-.08,0-.08A.16.16,0,0,0,21,10.49Z" transform="translate(-7.92 -2.23)"/><path class="cls-1" d="M22,11.44c0,.06,0,.11,0,.11s0-.06,0-.12,0-.11,0-.11S22,11.38,22,11.44Z" transform="translate(-7.92 -2.23)"/><path class="cls-1" d="M21.42,11.56c0,.06,0,.1,0,.1s0-.05,0-.11,0-.11,0-.11S21.41,11.5,21.42,11.56Z" transform="translate(-7.92 -2.23)"/><path class="cls-1" d="M21.19,10.44s0,.06,0,.06,0,0,0-.07,0-.07,0-.06S21.18,10.4,21.19,10.44Z" transform="translate(-7.92 -2.23)"/><path class="cls-1" d="M18.85,12.83a0,0,0,0,0,0,0l.21,0c0,.3,0,.62.05.93l.6,0a11.16,11.16,0,0,0-.09-1.42l.6-.1a.06.06,0,0,0,0,0l-.61.1a11.3,11.3,0,0,1,.1,1.42l-.58,0c0-.31,0-.62-.05-.93Z" transform="translate(-7.92 -2.23)"/><path class="cls-1" d="M20.2,12.21c0,.06,0,.1,0,.1a.13.13,0,0,0,0-.1c0-.06,0-.1,0-.1S20.2,12.16,20.2,12.21Z" transform="translate(-7.92 -2.23)"/><path class="cls-1" d="M19.59,12.31s0,.09,0,.09,0,0,0-.1,0-.09,0-.08S19.59,12.26,19.59,12.31Z" transform="translate(-7.92 -2.23)"/><path class="cls-1" d="M18.84,12.85s0,.07,0,.06,0,0,0-.07,0-.07,0-.06S18.83,12.81,18.84,12.85Z" transform="translate(-7.92 -2.23)"/><path class="cls-1" d="M19.7,13.73c0,.06,0,.1,0,.1s0-.05,0-.1,0-.09,0-.09S19.69,13.68,19.7,13.73Z" transform="translate(-7.92 -2.23)"/><path class="cls-1" d="M19.09,13.75c0,.05,0,.09,0,.09s0,0,0-.09,0-.09,0-.09S19.09,13.7,19.09,13.75Z" transform="translate(-7.92 -2.23)"/><path class="cls-1" d="M19.05,12.83l0,.05s0,0,0-.05,0-.06,0-.06A.22.22,0,0,0,19.05,12.83Z" transform="translate(-7.92 -2.23)"/><path class="cls-1" d="M15,10.17l0,0,.21-.13a7.12,7.12,0,0,1,.36.67l.63-.32a7,7,0,0,0-.61-1.05L16.14,9l0,0-.58.42a9.24,9.24,0,0,1,.61,1.05l-.61.31a6.29,6.29,0,0,0-.37-.67Z" transform="translate(-7.92 -2.23)"/><path class="cls-1" d="M16.11,9s.05.06.07,0,0,0,0-.09-.06-.06-.07-.05S16.08,8.92,16.11,9Z" transform="translate(-7.92 -2.23)"/><path class="cls-1" d="M15.53,9.37s.05.06.07.05,0-.05,0-.08a.1.1,0,0,0-.07-.06S15.5,9.33,15.53,9.37Z" transform="translate(-7.92 -2.23)"/><path class="cls-1" d="M14.94,10.19s0,0,.05,0,0,0,0-.06a.06.06,0,0,0-.05,0S14.93,10.17,14.94,10.19Z" transform="translate(-7.92 -2.23)"/><path class="cls-1" d="M16.14,10.41s0,.07.05.06,0,0,0-.08-.05-.07-.06-.06S16.12,10.37,16.14,10.41Z" transform="translate(-7.92 -2.23)"/><path class="cls-1" d="M15.51,10.73s.05.06.06,0,0,0,0-.08,0-.06-.06,0S15.49,10.69,15.51,10.73Z" transform="translate(-7.92 -2.23)"/><path class="cls-1" d="M15.16,10.06s0,0,0,0,0,0,0-.05a.05.05,0,0,0,0,0S15.15,10,15.16,10.06Z" transform="translate(-7.92 -2.23)"/><path class="cls-1" d="M20.14,17.88h0c.1-.32.2-.65.28-1l.28.07A13.83,13.83,0,0,0,21.08,14h-.42a12.41,12.41,0,0,0-.27-2.85h0a12.61,12.61,0,0,1,.27,2.88h.42a13.55,13.55,0,0,1-.36,2.84l-.28-.07C20.35,17.2,20.25,17.54,20.14,17.88Z" transform="translate(-7.92 -2.23)"/><path class="cls-1" d="M20.41,11.31a.22.22,0,0,0,0-.12c0-.06,0-.11-.05-.1s0,.05,0,.11S20.39,11.31,20.41,11.31Z" transform="translate(-7.92 -2.23)"/><path class="cls-1" d="M20.65,14.16s0-.05,0-.11,0-.12,0-.12,0,.05,0,.12S20.64,14.16,20.65,14.16Z" transform="translate(-7.92 -2.23)"/><path class="cls-1" d="M20.12,18s0,0,.05-.09,0-.09,0-.09,0,0-.05.08S20.11,18,20.12,18Z" transform="translate(-7.92 -2.23)"/><path class="cls-1" d="M21.07,14.17s0-.06,0-.12,0-.12,0-.12,0,.05,0,.12S21.06,14.17,21.07,14.17Z" transform="translate(-7.92 -2.23)"/><path class="cls-1" d="M20.68,17.08a.19.19,0,0,0,.05-.12c0-.06,0-.12,0-.12a.18.18,0,0,0-.05.11C20.66,17,20.66,17.07,20.68,17.08Z" transform="translate(-7.92 -2.23)"/><path class="cls-1" d="M20.41,17s0,0,0-.07,0-.07,0-.07,0,0,0,.06S20.4,17,20.41,17Z" transform="translate(-7.92 -2.23)"/><path class="cls-1" d="M17,16.23h0c-.07.23-.14.46-.22.69l-.26-.1a8.58,8.58,0,0,1-.85,1.75l.35.24a7.92,7.92,0,0,1-1.31,1.58h0A8.15,8.15,0,0,0,16,18.79l-.34-.24a8.56,8.56,0,0,0,.81-1.7l.27.11A6.14,6.14,0,0,0,17,16.23Z" transform="translate(-7.92 -2.23)"/><path class="cls-1" d="M14.76,20.34s0,0-.08,0,0,.06,0,.07,0,0,.07,0S14.77,20.35,14.76,20.34Z" transform="translate(-7.92 -2.23)"/><path class="cls-1" d="M16.05,18.74s0,0-.07.05,0,.08,0,.09,0,0,.07-.06S16.06,18.74,16.05,18.74Z" transform="translate(-7.92 -2.23)"/><path class="cls-1" d="M17,16.18s0,0,0,.06a.08.08,0,0,0,0,.07s0,0,0-.06S17,16.18,17,16.18Z" transform="translate(-7.92 -2.23)"/><path class="cls-1" d="M15.7,18.5s0,0-.07.05,0,.08,0,.08,0,0,.06,0S15.71,18.51,15.7,18.5Z" transform="translate(-7.92 -2.23)"/><path class="cls-1" d="M16.52,16.75a.1.1,0,0,0-.05.07s0,.07,0,.08,0,0,.05-.06S16.54,16.76,16.52,16.75Z" transform="translate(-7.92 -2.23)"/><path class="cls-1" d="M16.78,16.88s0,0,0,0,0,0,0,.06,0,0,0-.05S16.79,16.88,16.78,16.88Z" transform="translate(-7.92 -2.23)"/><path class="cls-1" d="M13,9.8h0a3.83,3.83,0,0,1,.29.28l-.17.15a5.11,5.11,0,0,1,.64.85l.28-.18a4.91,4.91,0,0,1,.48,1h0a4.75,4.75,0,0,0-.48-1l-.28.17a4.42,4.42,0,0,0-.62-.82l.17-.16Z" transform="translate(-7.92 -2.23)"/><path class="cls-1" d="M14.46,11.88a.08.08,0,0,0,0,0s0,0,0,0,0,0,0-.05S14.48,11.88,14.46,11.88Z" transform="translate(-7.92 -2.23)"/><path class="cls-1" d="M14,10.87s0,0,0,.05a.05.05,0,0,0,0,0,0,0,0,0,0,0,0S14,10.86,14,10.87Z" transform="translate(-7.92 -2.23)"/><path class="cls-1" d="M12.94,9.78a0,0,0,0,0,0,0,0,0,0,0,0,0,0,.06.06,0,0,0,0,0Z" transform="translate(-7.92 -2.23)"/><path class="cls-1" d="M13.7,11.05a.11.11,0,0,0,0,0s0,0,0,0a0,0,0,0,0,0,0S13.71,11,13.7,11.05Z" transform="translate(-7.92 -2.23)"/><path class="cls-1" d="M13.06,10.21s0,0,0,0a.06.06,0,0,0,0,0s0,0,0,0S13.07,10.2,13.06,10.21Z" transform="translate(-7.92 -2.23)"/><path class="cls-1" d="M13.23,10.07a0,0,0,0,0,0,0h0s0,0,0,0S13.24,10.06,13.23,10.07Z" transform="translate(-7.92 -2.23)"/><path class="cls-1" d="M14.9,6h0c.2.13.39.28.58.42l-.15.18a8.55,8.55,0,0,1,1.34,1.35l.26-.21a8.76,8.76,0,0,1,1,1.63h0a9.21,9.21,0,0,0-1-1.65l-.26.2a8.94,8.94,0,0,0-1.3-1.31l.15-.17C15.31,6.25,15.11,6.1,14.9,6Z" transform="translate(-7.92 -2.23)"/><path class="cls-1" d="M17.93,9.27s0,0,0,.08a.08.08,0,0,0,.05.06s0,0,0-.08S17.94,9.27,17.93,9.27Z" transform="translate(-7.92 -2.23)"/><path class="cls-1" d="M16.88,7.65s0,0,0,.07.06.06.07,0,0,0,0-.08S16.89,7.64,16.88,7.65Z" transform="translate(-7.92 -2.23)"/><path class="cls-1" d="M14.86,5.93s0,0,0,.05L15,6,14.92,6S14.86,5.92,14.86,5.93Z" transform="translate(-7.92 -2.23)"/><path class="cls-1" d="M16.62,7.86a.26.26,0,0,0,0,.07l.07.05s0-.05,0-.08S16.63,7.85,16.62,7.86Z" transform="translate(-7.92 -2.23)"/><path class="cls-1" d="M15.27,6.52a.18.18,0,0,0,.05.07s.07,0,.08,0,0,0-.05-.07S15.28,6.51,15.27,6.52Z" transform="translate(-7.92 -2.23)"/><path class="cls-1" d="M15.44,6.37l0,0s0,0,0,0,0,0,0,0S15.45,6.36,15.44,6.37Z" transform="translate(-7.92 -2.23)"/><path class="cls-1" d="M15.82,12.08h0q.07.3.12.6l-.28.05a8.26,8.26,0,0,1,.08,1.65h.41a7.93,7.93,0,0,1-.3,1.74h0a8.12,8.12,0,0,0,.31-1.76l-.42,0a7,7,0,0,0-.08-1.59l.28-.06C15.91,12.5,15.87,12.29,15.82,12.08Z" transform="translate(-7.92 -2.23)"/><path class="cls-1" d="M15.87,16.06s0,0,0,.06,0,.08,0,.08,0,0,.05-.06A.09.09,0,0,0,15.87,16.06Z" transform="translate(-7.92 -2.23)"/><path class="cls-1" d="M16.15,14.32s0,0,0,.07,0,.07,0,.07,0,0,0-.07S16.17,14.32,16.15,14.32Z" transform="translate(-7.92 -2.23)"/><path class="cls-1" d="M15.8,12s0,0,0,.06,0,.05,0,0,0,0,0-.06S15.81,12,15.8,12Z" transform="translate(-7.92 -2.23)"/><path class="cls-1" d="M15.74,14.3s0,0,0,.07,0,.07,0,.07,0,0,0-.07S15.75,14.3,15.74,14.3Z" transform="translate(-7.92 -2.23)"/><path class="cls-1" d="M15.64,12.67a.12.12,0,0,0,0,.07s0,.07,0,.06,0,0,0-.07S15.66,12.67,15.64,12.67Z" transform="translate(-7.92 -2.23)"/><path class="cls-1" d="M15.93,12.64s0,0,0,0,0,0,0,0,0,0,0-.05A.07.07,0,0,0,15.93,12.64Z" transform="translate(-7.92 -2.23)"/><path class="cls-1" d="M11.88,10.42h0l.15-.19a3.26,3.26,0,0,1,.4.34l.49-.49a5.27,5.27,0,0,0-.68-.55c.14-.19.27-.38.41-.56l0,0-.41.57a5.17,5.17,0,0,1,.67.55l-.47.48a3.46,3.46,0,0,0-.4-.35Z" transform="translate(-7.92 -2.23)"/><path class="cls-1" d="M12.64,9s.06,0,.07,0,0,0,0-.06-.06,0-.07,0S12.61,9,12.64,9Z" transform="translate(-7.92 -2.23)"/><path class="cls-1" d="M12.23,9.56s.06,0,.07,0,0,0,0-.06-.06,0-.07,0S12.21,9.54,12.23,9.56Z" transform="translate(-7.92 -2.23)"/><path class="cls-1" d="M11.88,10.44h0s0,0,0,0h-.05A.06.06,0,0,0,11.88,10.44Z" transform="translate(-7.92 -2.23)"/><path class="cls-1" d="M12.91,10.1s.05,0,.06,0,0,0,0-.06,0,0-.06,0S12.89,10.08,12.91,10.1Z" transform="translate(-7.92 -2.23)"/><path class="cls-1" d="M12.42,10.59a0,0,0,0,0,.06,0s0,0,0,0-.05,0-.06,0S12.4,10.57,12.42,10.59Z" transform="translate(-7.92 -2.23)"/><path class="cls-1" d="M12,10.24a0,0,0,0,0,0,0s0,0,0,0h0Z" transform="translate(-7.92 -2.23)"/><path class="cls-1" d="M19.59,18.27h0a12.57,12.57,0,0,0,.22-8.19l-1.16.42a9.26,9.26,0,0,0-4.63-5.43l.42-.74a12.67,12.67,0,0,0-3.38-1.13,0,0,0,0,1,0,0,12.17,12.17,0,0,1,3.25,1.07c-.14.24-.27.5-.41.74a9.22,9.22,0,0,1,4.76,5.58l1.17-.41A12.48,12.48,0,0,1,19.59,18.27Z" transform="translate(-7.92 -2.23)"/><path class="cls-1" d="M19.72,18s-.13.11-.19.28-.09.31,0,.34.13-.11.19-.29S19.76,18,19.72,18Z" transform="translate(-7.92 -2.23)"/><path class="cls-1" d="M19.75,9.88s0,.17,0,.34.13.3.17.29,0-.17,0-.35S19.79,9.86,19.75,9.88Z" transform="translate(-7.92 -2.23)"/><path class="cls-1" d="M10.8,3.18s.14.09.33.12.33,0,.34,0-.13-.09-.32-.13S10.81,3.14,10.8,3.18Z" transform="translate(-7.92 -2.23)"/><path class="cls-1" d="M18.6,10.33s0,.15,0,.3.11.27.16.26,0-.16,0-.31S18.64,10.31,18.6,10.33Z" transform="translate(-7.92 -2.23)"/><path class="cls-1" d="M13.65,4.9s.1.14.26.22.31.12.33.08S14.16,5.06,14,5,13.67,4.86,13.65,4.9Z" transform="translate(-7.92 -2.23)"/><path class="cls-1" d="M14.15,4.21s.07.09.18.15.21.08.23.06-.07-.1-.18-.15S14.16,4.19,14.15,4.21Z" transform="translate(-7.92 -2.23)"/><path class="cls-1" d="M13,6.9l1-1.81,0,0-1,1.82Z" transform="translate(-7.92 -2.23)"/><path class="cls-1" d="M12.88,7c.14.07.27.1.3,0s-.07-.13-.21-.2-.28-.1-.31-.05S12.74,6.9,12.88,7Z" transform="translate(-7.92 -2.23)"/><path class="cls-1" d="M20.67,18.72h0a14,14,0,0,0,.87-4.19,10.87,10.87,0,0,0,.33-1.42.09.09,0,0,0,0,0,11.72,11.72,0,0,1-.33,1.45A14.17,14.17,0,0,1,20.67,18.72Z" transform="translate(-7.92 -2.23)"/><path class="cls-1" d="M14.83,18.74l.2.16a8.46,8.46,0,0,0,1.19-2.29h0A8.08,8.08,0,0,1,15,18.85a1.33,1.33,0,0,0-.19-.14Z" transform="translate(-7.92 -2.23)"/><path class="cls-1" d="M19.3,18.17h0A12.55,12.55,0,0,0,20,15.1L19,15a.25.25,0,0,1,0,.08l1,.11A12.33,12.33,0,0,1,19.3,18.17Z" transform="translate(-7.92 -2.23)"/><path class="cls-1" d="M14.65,13.3h0c0-.21-.06-.43-.1-.64l-.78.19c0-.11,0-.23-.08-.34h0l.09.38.78-.19C14.6,12.91,14.63,13.1,14.65,13.3Z" transform="translate(-7.92 -2.23)"/><path class="cls-1" d="M15.24,16.21l.18.07s0,0,0-.05l-.17-.06a7.25,7.25,0,0,0,.35-2.49l-.43,0v.05l.41,0A7.17,7.17,0,0,1,15.24,16.21Z" transform="translate(-7.92 -2.23)"/><path class="cls-1" d="M17.61,18.52l0,0a10.91,10.91,0,0,0,.81-2.33l-.88-.2a10.5,10.5,0,0,0,.18-1.1h0a9,9,0,0,1-.19,1.16l.88.21A10.28,10.28,0,0,1,17.61,18.52Z" transform="translate(-7.92 -2.23)"/><path class="cls-1" d="M16.79,16.24l.18.05a.06.06,0,0,1,0,0l-.16-.05a8.9,8.9,0,0,0,.28-1.79l.41,0v0h-.42A9.12,9.12,0,0,1,16.79,16.24Z" transform="translate(-7.92 -2.23)"/><path class="cls-1" d="M22.18,8.78h0a11.37,11.37,0,0,0-.47-1.14c-.26.14-.53.27-.8.4a11.81,11.81,0,0,0-4.26-4.9v0a11.76,11.76,0,0,1,4.28,5l.8-.4C21.9,8.06,22.05,8.42,22.18,8.78Z" transform="translate(-7.92 -2.23)"/><path class="cls-1" d="M14.15,3.73c.2-.41.41-.82.62-1.24l-.08,0-.6,1.23a13.48,13.48,0,0,0-2.88-.88c0,.14-.05.28-.08.42l.08,0c0-.14,0-.28.08-.41A13.13,13.13,0,0,1,14.15,3.73Z" transform="translate(-7.92 -2.23)"/><path class="cls-1" d="M14.88,7.8l0,0A6.43,6.43,0,0,0,14,7.07l-.5.7a7.63,7.63,0,0,1,.7.54l-.25.27.05,0,.26-.29a7.48,7.48,0,0,0-.69-.54L14,7.13A6.27,6.27,0,0,1,14.88,7.8Z" transform="translate(-7.92 -2.23)"/><path class="cls-1" d="M12.63,7.53,13,6.94l-.05,0-.32.58A6.18,6.18,0,0,0,12,7.22l0,.09-.22,0,0,0,.24,0,0-.09Z" transform="translate(-7.92 -2.23)"/><path class="cls-1" d="M19.23,7.4h0a11.12,11.12,0,0,0-1.36-1.73l.45-.43,0-.05-.47.44A10.75,10.75,0,0,1,19.23,7.4Z" transform="translate(-7.92 -2.23)"/><path class="cls-1" d="M17.41,10.16,18,9.87s0,0,0,0l-.62.29c-.09-.21-.19-.42-.3-.62h0C17.21,9.72,17.31,9.94,17.41,10.16Z" transform="translate(-7.92 -2.23)"/><path class="cls-1" d="M11.52,9.31h0A5.24,5.24,0,0,0,10.68,9c.12-.34.23-.68.34-1a4.15,4.15,0,0,1,.75.27v0A8.11,8.11,0,0,0,11,7.93c-.12.35-.23.7-.34,1.05A5.6,5.6,0,0,1,11.52,9.31Z" transform="translate(-7.92 -2.23)"/><path class="cls-1" d="M13.21,13.54l.24,0v0l-.22,0a4.18,4.18,0,0,0-.7-2h0A4.12,4.12,0,0,1,13.21,13.54Z" transform="translate(-7.92 -2.23)"/><path class="cls-1" d="M12.53,19.34s0,0,0,0,.28-.2.41-.31l0-.06a6,6,0,0,0,1-1.06h0a6.25,6.25,0,0,1-1,1.08l.05.07Z" transform="translate(-7.92 -2.23)"/><path class="cls-1" d="M16,22.21l.33.37a10.56,10.56,0,0,0,1.25-1.34s0,0,0,0a11.16,11.16,0,0,1-1.19,1.29l-.29-.34.34-.33-.42-.44-.05.06.39.42C16.28,22,16.17,22.1,16,22.21Z" transform="translate(-7.92 -2.23)"/></svg>